<mxfile host="app.diagrams.net" modified="2024-04-25T15:24:05.727Z" agent="Mozilla/5.0 (Windows NT 10.0; Win64; x64) AppleWebKit/537.36 (KHTML, like Gecko) Chrome/124.0.0.0 Safari/537.36" etag="xd10OBgxU7j4uNXWkWRt" version="24.3.0" type="device">
  <diagram name="PÃ¡gina-1" id="P_EG35dM_7CVPaZ-Sxyr">
    <mxGraphModel dx="1285" dy="1809" grid="1" gridSize="10" guides="1" tooltips="1" connect="1" arrows="1" fold="1" page="1" pageScale="1" pageWidth="827" pageHeight="1169" math="0" shadow="0">
      <root>
        <mxCell id="0" />
        <mxCell id="1" parent="0" />
        <mxCell id="v2iRJg3Xfcc0tF-ludr_-1" value="&lt;pre style=&quot;user-select: text; font-family: &amp;quot;Courier New&amp;quot;, Courier, monospace, arial, sans-serif; margin-top: 0px; margin-bottom: 0px; overflow-wrap: break-word; background-color: rgb(255, 255, 255); font-size: 14px; font-weight: 400; text-align: left;&quot; class=&quot;aLF-aPX-K0-aPE&quot;&gt;usuarios&lt;/pre&gt;" style="swimlane;fontStyle=1;align=center;verticalAlign=top;childLayout=stackLayout;horizontal=1;startSize=26;horizontalStack=0;resizeParent=1;resizeParentMax=0;resizeLast=0;collapsible=1;marginBottom=0;whiteSpace=wrap;html=1;" parent="1" vertex="1">
          <mxGeometry x="1030" y="-630" width="160" height="476" as="geometry" />
        </mxCell>
        <mxCell id="v2iRJg3Xfcc0tF-ludr_-2" value="&lt;pre style=&quot;user-select: text; font-family: &amp;quot;Courier New&amp;quot;, Courier, monospace, arial, sans-serif; margin-top: 0px; margin-bottom: 0px; overflow-wrap: break-word; background-color: rgb(255, 255, 255); font-size: 14px;&quot; class=&quot;aLF-aPX-K0-aPE&quot;&gt;id_usuario&lt;/pre&gt;" style="text;strokeColor=none;fillColor=none;align=left;verticalAlign=top;spacingLeft=4;spacingRight=4;overflow=hidden;rotatable=0;points=[[0,0.5],[1,0.5]];portConstraint=eastwest;whiteSpace=wrap;html=1;" parent="v2iRJg3Xfcc0tF-ludr_-1" vertex="1">
          <mxGeometry y="26" width="160" height="26" as="geometry" />
        </mxCell>
        <mxCell id="Lcip7T_UkXhXK0Q2yI7Q-18" value="&lt;font style=&quot;font-size: 14px;&quot; face=&quot;Courier New&quot;&gt;id_permiso&lt;/font&gt;" style="text;strokeColor=none;fillColor=none;align=left;verticalAlign=top;spacingLeft=4;spacingRight=4;overflow=hidden;rotatable=0;points=[[0,0.5],[1,0.5]];portConstraint=eastwest;whiteSpace=wrap;html=1;" parent="v2iRJg3Xfcc0tF-ludr_-1" vertex="1">
          <mxGeometry y="52" width="160" height="26" as="geometry" />
        </mxCell>
        <mxCell id="v2iRJg3Xfcc0tF-ludr_-21" value="&lt;pre style=&quot;user-select: text; font-family: &amp;quot;Courier New&amp;quot;, Courier, monospace, arial, sans-serif; margin-top: 0px; margin-bottom: 0px; overflow-wrap: break-word; background-color: rgb(255, 255, 255); font-size: 14px;&quot; class=&quot;aLF-aPX-K0-aPE&quot;&gt;username&lt;/pre&gt;" style="text;strokeColor=none;fillColor=none;align=left;verticalAlign=top;spacingLeft=4;spacingRight=4;overflow=hidden;rotatable=0;points=[[0,0.5],[1,0.5]];portConstraint=eastwest;whiteSpace=wrap;html=1;" parent="v2iRJg3Xfcc0tF-ludr_-1" vertex="1">
          <mxGeometry y="78" width="160" height="26" as="geometry" />
        </mxCell>
        <mxCell id="v2iRJg3Xfcc0tF-ludr_-20" value="&lt;pre style=&quot;user-select: text; font-family: &amp;quot;Courier New&amp;quot;, Courier, monospace, arial, sans-serif; margin-top: 0px; margin-bottom: 0px; overflow-wrap: break-word; background-color: rgb(255, 255, 255); font-size: 14px;&quot; class=&quot;aLF-aPX-K0-aPE&quot;&gt;password&lt;/pre&gt;" style="text;strokeColor=none;fillColor=none;align=left;verticalAlign=top;spacingLeft=4;spacingRight=4;overflow=hidden;rotatable=0;points=[[0,0.5],[1,0.5]];portConstraint=eastwest;whiteSpace=wrap;html=1;" parent="v2iRJg3Xfcc0tF-ludr_-1" vertex="1">
          <mxGeometry y="104" width="160" height="26" as="geometry" />
        </mxCell>
        <mxCell id="v2iRJg3Xfcc0tF-ludr_-19" value="&lt;pre style=&quot;user-select: text; font-family: &amp;quot;Courier New&amp;quot;, Courier, monospace, arial, sans-serif; margin-top: 0px; margin-bottom: 0px; overflow-wrap: break-word; background-color: rgb(255, 255, 255); font-size: 14px;&quot; class=&quot;aLF-aPX-K0-aPE&quot;&gt;tipo&lt;/pre&gt;" style="text;strokeColor=none;fillColor=none;align=left;verticalAlign=top;spacingLeft=4;spacingRight=4;overflow=hidden;rotatable=0;points=[[0,0.5],[1,0.5]];portConstraint=eastwest;whiteSpace=wrap;html=1;" parent="v2iRJg3Xfcc0tF-ludr_-1" vertex="1">
          <mxGeometry y="130" width="160" height="26" as="geometry" />
        </mxCell>
        <mxCell id="v2iRJg3Xfcc0tF-ludr_-18" value="&lt;pre style=&quot;user-select: text; font-family: &amp;quot;Courier New&amp;quot;, Courier, monospace, arial, sans-serif; margin-top: 0px; margin-bottom: 0px; overflow-wrap: break-word; background-color: rgb(255, 255, 255); font-size: 14px;&quot; class=&quot;aLF-aPX-K0-aPE&quot;&gt;cuenta_activa&lt;/pre&gt;" style="text;strokeColor=none;fillColor=none;align=left;verticalAlign=top;spacingLeft=4;spacingRight=4;overflow=hidden;rotatable=0;points=[[0,0.5],[1,0.5]];portConstraint=eastwest;whiteSpace=wrap;html=1;" parent="v2iRJg3Xfcc0tF-ludr_-1" vertex="1">
          <mxGeometry y="156" width="160" height="26" as="geometry" />
        </mxCell>
        <mxCell id="v2iRJg3Xfcc0tF-ludr_-23" value="&lt;pre style=&quot;user-select: text; font-family: &amp;quot;Courier New&amp;quot;, Courier, monospace, arial, sans-serif; margin-top: 0px; margin-bottom: 0px; overflow-wrap: break-word; background-color: rgb(255, 255, 255); font-size: 14px;&quot; class=&quot;aLF-aPX-K0-aPE&quot;&gt;ultimo_cambio_pass&lt;/pre&gt;" style="text;strokeColor=none;fillColor=none;align=left;verticalAlign=top;spacingLeft=4;spacingRight=4;overflow=hidden;rotatable=0;points=[[0,0.5],[1,0.5]];portConstraint=eastwest;whiteSpace=wrap;html=1;" parent="v2iRJg3Xfcc0tF-ludr_-1" vertex="1">
          <mxGeometry y="182" width="160" height="26" as="geometry" />
        </mxCell>
        <mxCell id="v2iRJg3Xfcc0tF-ludr_-17" value="&lt;pre style=&quot;user-select: text; font-family: &amp;quot;Courier New&amp;quot;, Courier, monospace, arial, sans-serif; margin-top: 0px; margin-bottom: 0px; overflow-wrap: break-word; background-color: rgb(255, 255, 255); font-size: 14px;&quot; class=&quot;aLF-aPX-K0-aPE&quot;&gt;ultimo_login&lt;/pre&gt;" style="text;strokeColor=none;fillColor=none;align=left;verticalAlign=top;spacingLeft=4;spacingRight=4;overflow=hidden;rotatable=0;points=[[0,0.5],[1,0.5]];portConstraint=eastwest;whiteSpace=wrap;html=1;" parent="v2iRJg3Xfcc0tF-ludr_-1" vertex="1">
          <mxGeometry y="208" width="160" height="26" as="geometry" />
        </mxCell>
        <mxCell id="v2iRJg3Xfcc0tF-ludr_-26" value="&lt;pre style=&quot;user-select: text; font-family: &amp;quot;Courier New&amp;quot;, Courier, monospace, arial, sans-serif; margin-top: 0px; margin-bottom: 0px; overflow-wrap: break-word; background-color: rgb(255, 255, 255); font-size: 14px;&quot; class=&quot;aLF-aPX-K0-aPE&quot;&gt;nombres&lt;/pre&gt;" style="text;strokeColor=none;fillColor=none;align=left;verticalAlign=top;spacingLeft=4;spacingRight=4;overflow=hidden;rotatable=0;points=[[0,0.5],[1,0.5]];portConstraint=eastwest;whiteSpace=wrap;html=1;" parent="v2iRJg3Xfcc0tF-ludr_-1" vertex="1">
          <mxGeometry y="234" width="160" height="26" as="geometry" />
        </mxCell>
        <mxCell id="v2iRJg3Xfcc0tF-ludr_-25" value="&lt;pre style=&quot;user-select: text; font-family: &amp;quot;Courier New&amp;quot;, Courier, monospace, arial, sans-serif; margin-top: 0px; margin-bottom: 0px; overflow-wrap: break-word; background-color: rgb(255, 255, 255); font-size: 14px;&quot; class=&quot;aLF-aPX-K0-aPE&quot;&gt;apellidos&lt;/pre&gt;" style="text;strokeColor=none;fillColor=none;align=left;verticalAlign=top;spacingLeft=4;spacingRight=4;overflow=hidden;rotatable=0;points=[[0,0.5],[1,0.5]];portConstraint=eastwest;whiteSpace=wrap;html=1;" parent="v2iRJg3Xfcc0tF-ludr_-1" vertex="1">
          <mxGeometry y="260" width="160" height="26" as="geometry" />
        </mxCell>
        <mxCell id="v2iRJg3Xfcc0tF-ludr_-24" value="&lt;pre style=&quot;user-select: text; font-family: &amp;quot;Courier New&amp;quot;, Courier, monospace, arial, sans-serif; margin-top: 0px; margin-bottom: 0px; overflow-wrap: break-word; background-color: rgb(255, 255, 255); font-size: 14px;&quot; class=&quot;aLF-aPX-K0-aPE&quot;&gt;carnet&lt;/pre&gt;" style="text;strokeColor=none;fillColor=none;align=left;verticalAlign=top;spacingLeft=4;spacingRight=4;overflow=hidden;rotatable=0;points=[[0,0.5],[1,0.5]];portConstraint=eastwest;whiteSpace=wrap;html=1;" parent="v2iRJg3Xfcc0tF-ludr_-1" vertex="1">
          <mxGeometry y="286" width="160" height="26" as="geometry" />
        </mxCell>
        <mxCell id="MdilOlbVCDJDPG1JR87V-1" value="&lt;font style=&quot;font-size: 14px;&quot; face=&quot;Courier New&quot;&gt;sucursal&lt;/font&gt;" style="text;strokeColor=none;fillColor=none;align=left;verticalAlign=top;spacingLeft=4;spacingRight=4;overflow=hidden;rotatable=0;points=[[0,0.5],[1,0.5]];portConstraint=eastwest;whiteSpace=wrap;html=1;" vertex="1" parent="v2iRJg3Xfcc0tF-ludr_-1">
          <mxGeometry y="312" width="160" height="26" as="geometry" />
        </mxCell>
        <mxCell id="Lcip7T_UkXhXK0Q2yI7Q-17" value="&lt;font style=&quot;font-size: 14px;&quot; face=&quot;Courier New&quot;&gt;area&lt;/font&gt;" style="text;strokeColor=none;fillColor=none;align=left;verticalAlign=top;spacingLeft=4;spacingRight=4;overflow=hidden;rotatable=0;points=[[0,0.5],[1,0.5]];portConstraint=eastwest;whiteSpace=wrap;html=1;" parent="v2iRJg3Xfcc0tF-ludr_-1" vertex="1">
          <mxGeometry y="338" width="160" height="26" as="geometry" />
        </mxCell>
        <mxCell id="Lcip7T_UkXhXK0Q2yI7Q-16" value="&lt;font style=&quot;font-size: 14px;&quot; face=&quot;Courier New&quot;&gt;cargo&lt;/font&gt;" style="text;strokeColor=none;fillColor=none;align=left;verticalAlign=top;spacingLeft=4;spacingRight=4;overflow=hidden;rotatable=0;points=[[0,0.5],[1,0.5]];portConstraint=eastwest;whiteSpace=wrap;html=1;" parent="v2iRJg3Xfcc0tF-ludr_-1" vertex="1">
          <mxGeometry y="364" width="160" height="26" as="geometry" />
        </mxCell>
        <mxCell id="v2iRJg3Xfcc0tF-ludr_-22" value="&lt;pre style=&quot;user-select: text; font-family: &amp;quot;Courier New&amp;quot;, Courier, monospace, arial, sans-serif; margin-top: 0px; margin-bottom: 0px; overflow-wrap: break-word; background-color: rgb(255, 255, 255); font-size: 14px;&quot; class=&quot;aLF-aPX-K0-aPE&quot;&gt;fecha_creacion&lt;/pre&gt;" style="text;strokeColor=none;fillColor=none;align=left;verticalAlign=top;spacingLeft=4;spacingRight=4;overflow=hidden;rotatable=0;points=[[0,0.5],[1,0.5]];portConstraint=eastwest;whiteSpace=wrap;html=1;" parent="v2iRJg3Xfcc0tF-ludr_-1" vertex="1">
          <mxGeometry y="390" width="160" height="26" as="geometry" />
        </mxCell>
        <mxCell id="zRA_gL1lxdrGA0FTlB0p-1" value="&lt;font face=&quot;Courier New&quot; style=&quot;font-size: 14px;&quot;&gt;estado&lt;/font&gt;" style="text;strokeColor=none;fillColor=none;align=left;verticalAlign=top;spacingLeft=4;spacingRight=4;overflow=hidden;rotatable=0;points=[[0,0.5],[1,0.5]];portConstraint=eastwest;whiteSpace=wrap;html=1;" parent="v2iRJg3Xfcc0tF-ludr_-1" vertex="1">
          <mxGeometry y="416" width="160" height="26" as="geometry" />
        </mxCell>
        <mxCell id="v2iRJg3Xfcc0tF-ludr_-3" value="" style="line;strokeWidth=1;fillColor=none;align=left;verticalAlign=middle;spacingTop=-1;spacingLeft=3;spacingRight=3;rotatable=0;labelPosition=right;points=[];portConstraint=eastwest;strokeColor=inherit;" parent="v2iRJg3Xfcc0tF-ludr_-1" vertex="1">
          <mxGeometry y="442" width="160" height="8" as="geometry" />
        </mxCell>
        <mxCell id="v2iRJg3Xfcc0tF-ludr_-4" value="+ method(type): type" style="text;strokeColor=none;fillColor=none;align=left;verticalAlign=top;spacingLeft=4;spacingRight=4;overflow=hidden;rotatable=0;points=[[0,0.5],[1,0.5]];portConstraint=eastwest;whiteSpace=wrap;html=1;" parent="v2iRJg3Xfcc0tF-ludr_-1" vertex="1">
          <mxGeometry y="450" width="160" height="26" as="geometry" />
        </mxCell>
        <mxCell id="v2iRJg3Xfcc0tF-ludr_-48" value="&lt;pre style=&quot;user-select: text; font-family: &amp;quot;Courier New&amp;quot;, Courier, monospace, arial, sans-serif; margin-top: 0px; margin-bottom: 0px; overflow-wrap: break-word; background-color: rgb(255, 255, 255); font-size: 14px; font-weight: 400; text-align: left;&quot; class=&quot;aLF-aPX-K0-aPE&quot;&gt;planes&lt;/pre&gt;" style="swimlane;fontStyle=1;align=center;verticalAlign=top;childLayout=stackLayout;horizontal=1;startSize=26;horizontalStack=0;resizeParent=1;resizeParentMax=0;resizeLast=0;collapsible=1;marginBottom=0;whiteSpace=wrap;html=1;" parent="1" vertex="1">
          <mxGeometry x="735" y="80" width="240" height="294" as="geometry" />
        </mxCell>
        <mxCell id="v2iRJg3Xfcc0tF-ludr_-49" value="&lt;pre style=&quot;user-select: text; font-family: &amp;quot;Courier New&amp;quot;, Courier, monospace, arial, sans-serif; margin-top: 0px; margin-bottom: 0px; overflow-wrap: break-word; background-color: rgb(255, 255, 255); font-size: 14px;&quot; class=&quot;aLF-aPX-K0-aPE&quot;&gt;id_plan&lt;/pre&gt;" style="text;strokeColor=none;fillColor=none;align=left;verticalAlign=top;spacingLeft=4;spacingRight=4;overflow=hidden;rotatable=0;points=[[0,0.5],[1,0.5]];portConstraint=eastwest;whiteSpace=wrap;html=1;" parent="v2iRJg3Xfcc0tF-ludr_-48" vertex="1">
          <mxGeometry y="26" width="240" height="26" as="geometry" />
        </mxCell>
        <mxCell id="v2iRJg3Xfcc0tF-ludr_-52" value="&lt;pre style=&quot;user-select: text; font-family: &amp;quot;Courier New&amp;quot;, Courier, monospace, arial, sans-serif; margin-top: 0px; margin-bottom: 0px; overflow-wrap: break-word; background-color: rgb(255, 255, 255); font-size: 14px;&quot; class=&quot;aLF-aPX-K0-aPE&quot;&gt;etapa&lt;/pre&gt;" style="text;strokeColor=none;fillColor=none;align=left;verticalAlign=top;spacingLeft=4;spacingRight=4;overflow=hidden;rotatable=0;points=[[0,0.5],[1,0.5]];portConstraint=eastwest;whiteSpace=wrap;html=1;" parent="v2iRJg3Xfcc0tF-ludr_-48" vertex="1">
          <mxGeometry y="52" width="240" height="26" as="geometry" />
        </mxCell>
        <mxCell id="v2iRJg3Xfcc0tF-ludr_-56" value="&lt;pre style=&quot;user-select: text; font-family: &amp;quot;Courier New&amp;quot;, Courier, monospace, arial, sans-serif; margin-top: 0px; margin-bottom: 0px; overflow-wrap: break-word; background-color: rgb(255, 255, 255); font-size: 14px;&quot; class=&quot;aLF-aPX-K0-aPE&quot;&gt;titulo&lt;/pre&gt;" style="text;strokeColor=none;fillColor=none;align=left;verticalAlign=top;spacingLeft=4;spacingRight=4;overflow=hidden;rotatable=0;points=[[0,0.5],[1,0.5]];portConstraint=eastwest;whiteSpace=wrap;html=1;" parent="v2iRJg3Xfcc0tF-ludr_-48" vertex="1">
          <mxGeometry y="78" width="240" height="26" as="geometry" />
        </mxCell>
        <mxCell id="v2iRJg3Xfcc0tF-ludr_-55" value="&lt;pre style=&quot;user-select: text; font-family: &amp;quot;Courier New&amp;quot;, Courier, monospace, arial, sans-serif; margin-top: 0px; margin-bottom: 0px; overflow-wrap: break-word; background-color: rgb(255, 255, 255); font-size: 14px;&quot; class=&quot;aLF-aPX-K0-aPE&quot;&gt;gestion&lt;/pre&gt;" style="text;strokeColor=none;fillColor=none;align=left;verticalAlign=top;spacingLeft=4;spacingRight=4;overflow=hidden;rotatable=0;points=[[0,0.5],[1,0.5]];portConstraint=eastwest;whiteSpace=wrap;html=1;" parent="v2iRJg3Xfcc0tF-ludr_-48" vertex="1">
          <mxGeometry y="104" width="240" height="26" as="geometry" />
        </mxCell>
        <mxCell id="v2iRJg3Xfcc0tF-ludr_-54" value="&lt;pre style=&quot;user-select: text; font-family: &amp;quot;Courier New&amp;quot;, Courier, monospace, arial, sans-serif; margin-top: 0px; margin-bottom: 0px; overflow-wrap: break-word; background-color: rgb(255, 255, 255); font-size: 14px;&quot; class=&quot;aLF-aPX-K0-aPE&quot;&gt;objetivos&lt;/pre&gt;" style="text;strokeColor=none;fillColor=none;align=left;verticalAlign=top;spacingLeft=4;spacingRight=4;overflow=hidden;rotatable=0;points=[[0,0.5],[1,0.5]];portConstraint=eastwest;whiteSpace=wrap;html=1;" parent="v2iRJg3Xfcc0tF-ludr_-48" vertex="1">
          <mxGeometry y="130" width="240" height="26" as="geometry" />
        </mxCell>
        <mxCell id="1lgYtawJcJ5ZMoFz6sz0-2" value="&lt;font face=&quot;Courier New&quot; style=&quot;font-size: 14px;&quot;&gt;cronograma&lt;/font&gt;" style="text;align=left;verticalAlign=top;spacingLeft=4;spacingRight=4;overflow=hidden;rotatable=0;points=[[0,0.5],[1,0.5]];portConstraint=eastwest;whiteSpace=wrap;html=1;" parent="v2iRJg3Xfcc0tF-ludr_-48" vertex="1">
          <mxGeometry y="156" width="240" height="26" as="geometry" />
        </mxCell>
        <mxCell id="v2iRJg3Xfcc0tF-ludr_-58" value="&lt;pre style=&quot;user-select: text; font-family: &amp;quot;Courier New&amp;quot;, Courier, monospace, arial, sans-serif; margin-top: 0px; margin-bottom: 0px; overflow-wrap: break-word; background-color: rgb(255, 255, 255); font-size: 14px;&quot; class=&quot;aLF-aPX-K0-aPE&quot;&gt;aprobacion_planificacion&lt;/pre&gt;" style="text;strokeColor=#36393d;fillColor=#ffff88;align=left;verticalAlign=top;spacingLeft=4;spacingRight=4;overflow=hidden;rotatable=0;points=[[0,0.5],[1,0.5]];portConstraint=eastwest;whiteSpace=wrap;html=1;" parent="v2iRJg3Xfcc0tF-ludr_-48" vertex="1">
          <mxGeometry y="182" width="240" height="26" as="geometry" />
        </mxCell>
        <mxCell id="zRA_gL1lxdrGA0FTlB0p-65" value="&lt;font style=&quot;font-size: 14px;&quot; face=&quot;Courier New&quot;&gt;fecha_creacion&lt;/font&gt;" style="text;strokeColor=none;fillColor=none;align=left;verticalAlign=top;spacingLeft=4;spacingRight=4;overflow=hidden;rotatable=0;points=[[0,0.5],[1,0.5]];portConstraint=eastwest;whiteSpace=wrap;html=1;" parent="v2iRJg3Xfcc0tF-ludr_-48" vertex="1">
          <mxGeometry y="208" width="240" height="26" as="geometry" />
        </mxCell>
        <mxCell id="zRA_gL1lxdrGA0FTlB0p-10" value="&lt;font face=&quot;Courier New&quot; style=&quot;font-size: 14px;&quot;&gt;estado&lt;/font&gt;" style="text;strokeColor=none;fillColor=none;align=left;verticalAlign=top;spacingLeft=4;spacingRight=4;overflow=hidden;rotatable=0;points=[[0,0.5],[1,0.5]];portConstraint=eastwest;whiteSpace=wrap;html=1;" parent="v2iRJg3Xfcc0tF-ludr_-48" vertex="1">
          <mxGeometry y="234" width="240" height="26" as="geometry" />
        </mxCell>
        <mxCell id="v2iRJg3Xfcc0tF-ludr_-50" value="" style="line;strokeWidth=1;fillColor=none;align=left;verticalAlign=middle;spacingTop=-1;spacingLeft=3;spacingRight=3;rotatable=0;labelPosition=right;points=[];portConstraint=eastwest;strokeColor=inherit;" parent="v2iRJg3Xfcc0tF-ludr_-48" vertex="1">
          <mxGeometry y="260" width="240" height="8" as="geometry" />
        </mxCell>
        <mxCell id="v2iRJg3Xfcc0tF-ludr_-51" value="+ method(type): type" style="text;strokeColor=none;fillColor=none;align=left;verticalAlign=top;spacingLeft=4;spacingRight=4;overflow=hidden;rotatable=0;points=[[0,0.5],[1,0.5]];portConstraint=eastwest;whiteSpace=wrap;html=1;" parent="v2iRJg3Xfcc0tF-ludr_-48" vertex="1">
          <mxGeometry y="268" width="240" height="26" as="geometry" />
        </mxCell>
        <mxCell id="v2iRJg3Xfcc0tF-ludr_-59" value="&lt;pre style=&quot;user-select: text; font-family: &amp;quot;Courier New&amp;quot;, Courier, monospace, arial, sans-serif; margin-top: 0px; margin-bottom: 0px; overflow-wrap: break-word; background-color: rgb(255, 255, 255); font-size: 14px; font-weight: 400; text-align: left;&quot; class=&quot;aLF-aPX-K0-aPE&quot;&gt;actividades&lt;/pre&gt;" style="swimlane;fontStyle=1;align=center;verticalAlign=top;childLayout=stackLayout;horizontal=1;startSize=26;horizontalStack=0;resizeParent=1;resizeParentMax=0;resizeLast=0;collapsible=1;marginBottom=0;whiteSpace=wrap;html=1;" parent="1" vertex="1">
          <mxGeometry x="1040" y="80" width="160" height="216" as="geometry" />
        </mxCell>
        <mxCell id="v2iRJg3Xfcc0tF-ludr_-60" value="&lt;pre style=&quot;user-select: text; font-family: &amp;quot;Courier New&amp;quot;, Courier, monospace, arial, sans-serif; margin-top: 0px; margin-bottom: 0px; overflow-wrap: break-word; background-color: rgb(255, 255, 255); font-size: 14px;&quot; class=&quot;aLF-aPX-K0-aPE&quot;&gt;id_actividad&lt;/pre&gt;" style="text;strokeColor=none;fillColor=none;align=left;verticalAlign=top;spacingLeft=4;spacingRight=4;overflow=hidden;rotatable=0;points=[[0,0.5],[1,0.5]];portConstraint=eastwest;whiteSpace=wrap;html=1;" parent="v2iRJg3Xfcc0tF-ludr_-59" vertex="1">
          <mxGeometry y="26" width="160" height="26" as="geometry" />
        </mxCell>
        <mxCell id="v2iRJg3Xfcc0tF-ludr_-65" value="&lt;pre style=&quot;user-select: text; font-family: &amp;quot;Courier New&amp;quot;, Courier, monospace, arial, sans-serif; margin-top: 0px; margin-bottom: 0px; overflow-wrap: break-word; background-color: rgb(255, 255, 255); font-size: 14px;&quot; class=&quot;aLF-aPX-K0-aPE&quot;&gt;id_plan&lt;/pre&gt;" style="text;strokeColor=none;fillColor=none;align=left;verticalAlign=top;spacingLeft=4;spacingRight=4;overflow=hidden;rotatable=0;points=[[0,0.5],[1,0.5]];portConstraint=eastwest;whiteSpace=wrap;html=1;" parent="v2iRJg3Xfcc0tF-ludr_-59" vertex="1">
          <mxGeometry y="52" width="160" height="26" as="geometry" />
        </mxCell>
        <mxCell id="v2iRJg3Xfcc0tF-ludr_-64" value="&lt;pre style=&quot;user-select: text; font-family: &amp;quot;Courier New&amp;quot;, Courier, monospace, arial, sans-serif; margin-top: 0px; margin-bottom: 0px; overflow-wrap: break-word; background-color: rgb(255, 255, 255); font-size: 14px;&quot; class=&quot;aLF-aPX-K0-aPE&quot;&gt;titulo&lt;/pre&gt;" style="text;strokeColor=none;fillColor=none;align=left;verticalAlign=top;spacingLeft=4;spacingRight=4;overflow=hidden;rotatable=0;points=[[0,0.5],[1,0.5]];portConstraint=eastwest;whiteSpace=wrap;html=1;" parent="v2iRJg3Xfcc0tF-ludr_-59" vertex="1">
          <mxGeometry y="78" width="160" height="26" as="geometry" />
        </mxCell>
        <mxCell id="v2iRJg3Xfcc0tF-ludr_-63" value="&lt;pre style=&quot;user-select: text; font-family: &amp;quot;Courier New&amp;quot;, Courier, monospace, arial, sans-serif; margin-top: 0px; margin-bottom: 0px; overflow-wrap: break-word; background-color: rgb(255, 255, 255); font-size: 14px;&quot; class=&quot;aLF-aPX-K0-aPE&quot;&gt;riesgo&lt;/pre&gt;" style="text;strokeColor=none;fillColor=none;align=left;verticalAlign=top;spacingLeft=4;spacingRight=4;overflow=hidden;rotatable=0;points=[[0,0.5],[1,0.5]];portConstraint=eastwest;whiteSpace=wrap;html=1;" parent="v2iRJg3Xfcc0tF-ludr_-59" vertex="1">
          <mxGeometry y="104" width="160" height="26" as="geometry" />
        </mxCell>
        <mxCell id="zRA_gL1lxdrGA0FTlB0p-66" value="&lt;font face=&quot;Courier New&quot; style=&quot;font-size: 14px;&quot;&gt;fecha_creacion&lt;/font&gt;" style="text;strokeColor=none;fillColor=none;align=left;verticalAlign=top;spacingLeft=4;spacingRight=4;overflow=hidden;rotatable=0;points=[[0,0.5],[1,0.5]];portConstraint=eastwest;whiteSpace=wrap;html=1;" parent="v2iRJg3Xfcc0tF-ludr_-59" vertex="1">
          <mxGeometry y="130" width="160" height="26" as="geometry" />
        </mxCell>
        <mxCell id="zRA_gL1lxdrGA0FTlB0p-11" value="&lt;font face=&quot;Courier New&quot; style=&quot;font-size: 14px;&quot;&gt;estado&lt;/font&gt;" style="text;strokeColor=none;fillColor=none;align=left;verticalAlign=top;spacingLeft=4;spacingRight=4;overflow=hidden;rotatable=0;points=[[0,0.5],[1,0.5]];portConstraint=eastwest;whiteSpace=wrap;html=1;" parent="v2iRJg3Xfcc0tF-ludr_-59" vertex="1">
          <mxGeometry y="156" width="160" height="26" as="geometry" />
        </mxCell>
        <mxCell id="v2iRJg3Xfcc0tF-ludr_-61" value="" style="line;strokeWidth=1;fillColor=none;align=left;verticalAlign=middle;spacingTop=-1;spacingLeft=3;spacingRight=3;rotatable=0;labelPosition=right;points=[];portConstraint=eastwest;strokeColor=inherit;" parent="v2iRJg3Xfcc0tF-ludr_-59" vertex="1">
          <mxGeometry y="182" width="160" height="8" as="geometry" />
        </mxCell>
        <mxCell id="v2iRJg3Xfcc0tF-ludr_-62" value="+ method(type): type" style="text;strokeColor=none;fillColor=none;align=left;verticalAlign=top;spacingLeft=4;spacingRight=4;overflow=hidden;rotatable=0;points=[[0,0.5],[1,0.5]];portConstraint=eastwest;whiteSpace=wrap;html=1;" parent="v2iRJg3Xfcc0tF-ludr_-59" vertex="1">
          <mxGeometry y="190" width="160" height="26" as="geometry" />
        </mxCell>
        <mxCell id="v2iRJg3Xfcc0tF-ludr_-67" value="&lt;pre style=&quot;user-select: text; font-family: &amp;quot;Courier New&amp;quot;, Courier, monospace, arial, sans-serif; margin-top: 0px; margin-bottom: 0px; overflow-wrap: break-word; background-color: rgb(255, 255, 255); font-size: 14px; font-weight: 400; text-align: left;&quot; class=&quot;aLF-aPX-K0-aPE&quot;&gt;detalle_auditorias&lt;/pre&gt;" style="swimlane;fontStyle=1;align=center;verticalAlign=top;childLayout=stackLayout;horizontal=1;startSize=26;horizontalStack=0;resizeParent=1;resizeParentMax=0;resizeLast=0;collapsible=1;marginBottom=0;whiteSpace=wrap;html=1;" parent="1" vertex="1">
          <mxGeometry x="1671.5" y="-360" width="178.5" height="450" as="geometry" />
        </mxCell>
        <mxCell id="v2iRJg3Xfcc0tF-ludr_-68" value="&lt;pre style=&quot;user-select: text; font-family: &amp;quot;Courier New&amp;quot;, Courier, monospace, arial, sans-serif; margin-top: 0px; margin-bottom: 0px; overflow-wrap: break-word; background-color: rgb(255, 255, 255); font-size: 14px;&quot; class=&quot;aLF-aPX-K0-aPE&quot;&gt;id_detalle_auditoria&lt;/pre&gt;" style="text;strokeColor=none;fillColor=none;align=left;verticalAlign=top;spacingLeft=4;spacingRight=4;overflow=hidden;rotatable=0;points=[[0,0.5],[1,0.5]];portConstraint=eastwest;whiteSpace=wrap;html=1;" parent="v2iRJg3Xfcc0tF-ludr_-67" vertex="1">
          <mxGeometry y="26" width="178.5" height="26" as="geometry" />
        </mxCell>
        <mxCell id="1lgYtawJcJ5ZMoFz6sz0-20" value="&lt;pre style=&quot;user-select: text; font-family: &amp;quot;Courier New&amp;quot;, Courier, monospace, arial, sans-serif; margin-top: 0px; margin-bottom: 0px; overflow-wrap: break-word; background-color: rgb(255, 255, 255); font-size: 14px;&quot; class=&quot;aLF-aPX-K0-aPE&quot;&gt;id_auditoria&lt;/pre&gt;" style="text;strokeColor=none;fillColor=none;align=left;verticalAlign=top;spacingLeft=4;spacingRight=4;overflow=hidden;rotatable=0;points=[[0,0.5],[1,0.5]];portConstraint=eastwest;whiteSpace=wrap;html=1;" parent="v2iRJg3Xfcc0tF-ludr_-67" vertex="1">
          <mxGeometry y="52" width="178.5" height="26" as="geometry" />
        </mxCell>
        <mxCell id="ePQf7IGZMu_F8IOme0l5-1" value="&lt;pre style=&quot;user-select: text; font-family: &amp;quot;Courier New&amp;quot;, Courier, monospace, arial, sans-serif; margin-top: 0px; margin-bottom: 0px; overflow-wrap: break-word; background-color: rgb(255, 255, 255); font-size: 14px;&quot; class=&quot;aLF-aPX-K0-aPE&quot;&gt;departamento&lt;/pre&gt;" style="text;align=left;verticalAlign=top;spacingLeft=4;spacingRight=4;overflow=hidden;rotatable=0;points=[[0,0.5],[1,0.5]];portConstraint=eastwest;whiteSpace=wrap;html=1;" parent="v2iRJg3Xfcc0tF-ludr_-67" vertex="1">
          <mxGeometry y="78" width="178.5" height="26" as="geometry" />
        </mxCell>
        <mxCell id="ePQf7IGZMu_F8IOme0l5-2" value="&lt;pre style=&quot;user-select: text; font-family: &amp;quot;Courier New&amp;quot;, Courier, monospace, arial, sans-serif; margin-top: 0px; margin-bottom: 0px; overflow-wrap: break-word; background-color: rgb(255, 255, 255); font-size: 14px;&quot; class=&quot;aLF-aPX-K0-aPE&quot;&gt;&lt;pre style=&quot;user-select: text; font-family: &amp;quot;Courier New&amp;quot;, Courier, monospace, arial, sans-serif; margin-top: 0px; margin-bottom: 0px; overflow-wrap: break-word;&quot; class=&quot;aLF-aPX-K0-aPE&quot;&gt;documentos_apoyo&lt;/pre&gt;&lt;/pre&gt;" style="text;align=left;verticalAlign=top;spacingLeft=4;spacingRight=4;overflow=hidden;rotatable=0;points=[[0,0.5],[1,0.5]];portConstraint=eastwest;whiteSpace=wrap;html=1;" parent="v2iRJg3Xfcc0tF-ludr_-67" vertex="1">
          <mxGeometry y="104" width="178.5" height="26" as="geometry" />
        </mxCell>
        <mxCell id="v2iRJg3Xfcc0tF-ludr_-76" value="&lt;pre style=&quot;user-select: text; font-family: &amp;quot;Courier New&amp;quot;, Courier, monospace, arial, sans-serif; margin-top: 0px; margin-bottom: 0px; overflow-wrap: break-word; background-color: rgb(255, 255, 255); font-size: 14px;&quot; class=&quot;aLF-aPX-K0-aPE&quot;&gt;objetivo&lt;/pre&gt;" style="text;align=left;verticalAlign=top;spacingLeft=4;spacingRight=4;overflow=hidden;rotatable=0;points=[[0,0.5],[1,0.5]];portConstraint=eastwest;whiteSpace=wrap;html=1;" parent="v2iRJg3Xfcc0tF-ludr_-67" vertex="1">
          <mxGeometry y="130" width="178.5" height="26" as="geometry" />
        </mxCell>
        <mxCell id="v2iRJg3Xfcc0tF-ludr_-75" value="&lt;pre style=&quot;user-select: text; font-family: &amp;quot;Courier New&amp;quot;, Courier, monospace, arial, sans-serif; margin-top: 0px; margin-bottom: 0px; overflow-wrap: break-word; background-color: rgb(255, 255, 255); font-size: 14px;&quot; class=&quot;aLF-aPX-K0-aPE&quot;&gt;alcance&lt;/pre&gt;" style="text;align=left;verticalAlign=top;spacingLeft=4;spacingRight=4;overflow=hidden;rotatable=0;points=[[0,0.5],[1,0.5]];portConstraint=eastwest;whiteSpace=wrap;html=1;" parent="v2iRJg3Xfcc0tF-ludr_-67" vertex="1">
          <mxGeometry y="156" width="178.5" height="26" as="geometry" />
        </mxCell>
        <mxCell id="kC0Oe4MXgPykfY4GPiJI-11" value="&lt;font face=&quot;Courier New&quot; style=&quot;font-size: 14px;&quot;&gt;antecedentes&lt;/font&gt;" style="text;align=left;verticalAlign=top;spacingLeft=4;spacingRight=4;overflow=hidden;rotatable=0;points=[[0,0.5],[1,0.5]];portConstraint=eastwest;whiteSpace=wrap;html=1;fontSize=12;" parent="v2iRJg3Xfcc0tF-ludr_-67" vertex="1">
          <mxGeometry y="182" width="178.5" height="26" as="geometry" />
        </mxCell>
        <mxCell id="kC0Oe4MXgPykfY4GPiJI-12" value="&lt;font face=&quot;Courier New&quot; style=&quot;font-size: 14px;&quot;&gt;metodologia&lt;/font&gt;" style="text;align=left;verticalAlign=top;spacingLeft=4;spacingRight=4;overflow=hidden;rotatable=0;points=[[0,0.5],[1,0.5]];portConstraint=eastwest;whiteSpace=wrap;html=1;" parent="v2iRJg3Xfcc0tF-ludr_-67" vertex="1">
          <mxGeometry y="208" width="178.5" height="26" as="geometry" />
        </mxCell>
        <mxCell id="kC0Oe4MXgPykfY4GPiJI-13" value="&lt;font face=&quot;Courier New&quot; style=&quot;font-size: 14px;&quot;&gt;detalle_cronograma&lt;/font&gt;" style="text;align=left;verticalAlign=top;spacingLeft=4;spacingRight=4;overflow=hidden;rotatable=0;points=[[0,0.5],[1,0.5]];portConstraint=eastwest;whiteSpace=wrap;html=1;" parent="v2iRJg3Xfcc0tF-ludr_-67" vertex="1">
          <mxGeometry y="234" width="178.5" height="26" as="geometry" />
        </mxCell>
        <mxCell id="v2iRJg3Xfcc0tF-ludr_-77" value="&lt;pre style=&quot;user-select: text; font-family: &amp;quot;Courier New&amp;quot;, Courier, monospace, arial, sans-serif; margin-top: 0px; margin-bottom: 0px; overflow-wrap: break-word; background-color: rgb(255, 255, 255); font-size: 14px;&quot; class=&quot;aLF-aPX-K0-aPE&quot;&gt;motivo&lt;/pre&gt;" style="text;strokeColor=none;fillColor=none;align=left;verticalAlign=top;spacingLeft=4;spacingRight=4;overflow=hidden;rotatable=0;points=[[0,0.5],[1,0.5]];portConstraint=eastwest;whiteSpace=wrap;html=1;" parent="v2iRJg3Xfcc0tF-ludr_-67" vertex="1">
          <mxGeometry y="260" width="178.5" height="26" as="geometry" />
        </mxCell>
        <mxCell id="v2iRJg3Xfcc0tF-ludr_-74" value="&lt;pre style=&quot;user-select: text; font-family: &amp;quot;Courier New&amp;quot;, Courier, monospace, arial, sans-serif; margin-top: 0px; margin-bottom: 0px; overflow-wrap: break-word; background-color: rgb(255, 255, 255); font-size: 14px;&quot; class=&quot;aLF-aPX-K0-aPE&quot;&gt;limitacion&lt;/pre&gt;" style="text;strokeColor=none;fillColor=none;align=left;verticalAlign=top;spacingLeft=4;spacingRight=4;overflow=hidden;rotatable=0;points=[[0,0.5],[1,0.5]];portConstraint=eastwest;whiteSpace=wrap;html=1;" parent="v2iRJg3Xfcc0tF-ludr_-67" vertex="1">
          <mxGeometry y="286" width="178.5" height="26" as="geometry" />
        </mxCell>
        <mxCell id="nEU6rJS8Fw7hZ7WeVFnG-1" value="&lt;pre style=&quot;user-select: text; font-family: &amp;quot;Courier New&amp;quot;, Courier, monospace, arial, sans-serif; margin-top: 0px; margin-bottom: 0px; overflow-wrap: break-word; background-color: rgb(255, 255, 255); font-size: 14px;&quot; class=&quot;aLF-aPX-K0-aPE&quot;&gt;resultados&lt;/pre&gt;" style="text;strokeColor=none;fillColor=none;align=left;verticalAlign=top;spacingLeft=4;spacingRight=4;overflow=hidden;rotatable=0;points=[[0,0.5],[1,0.5]];portConstraint=eastwest;whiteSpace=wrap;html=1;" parent="v2iRJg3Xfcc0tF-ludr_-67" vertex="1">
          <mxGeometry y="312" width="178.5" height="26" as="geometry" />
        </mxCell>
        <mxCell id="v2iRJg3Xfcc0tF-ludr_-72" value="&lt;pre style=&quot;user-select: text; font-family: &amp;quot;Courier New&amp;quot;, Courier, monospace, arial, sans-serif; margin-top: 0px; margin-bottom: 0px; overflow-wrap: break-word; background-color: rgb(255, 255, 255); font-size: 14px;&quot; class=&quot;aLF-aPX-K0-aPE&quot;&gt;concluciones&lt;/pre&gt;" style="text;strokeColor=none;fillColor=none;align=left;verticalAlign=top;spacingLeft=4;spacingRight=4;overflow=hidden;rotatable=0;points=[[0,0.5],[1,0.5]];portConstraint=eastwest;whiteSpace=wrap;html=1;" parent="v2iRJg3Xfcc0tF-ludr_-67" vertex="1">
          <mxGeometry y="338" width="178.5" height="26" as="geometry" />
        </mxCell>
        <mxCell id="cOuRUTMtnNx2OE-kur7D-2" value="&lt;font face=&quot;Courier New&quot; style=&quot;font-size: 14px;&quot;&gt;fecha_creacion&lt;/font&gt;" style="text;strokeColor=none;fillColor=none;align=left;verticalAlign=top;spacingLeft=4;spacingRight=4;overflow=hidden;rotatable=0;points=[[0,0.5],[1,0.5]];portConstraint=eastwest;whiteSpace=wrap;html=1;" parent="v2iRJg3Xfcc0tF-ludr_-67" vertex="1">
          <mxGeometry y="364" width="178.5" height="26" as="geometry" />
        </mxCell>
        <mxCell id="zRA_gL1lxdrGA0FTlB0p-18" value="&lt;font face=&quot;Courier New&quot; style=&quot;font-size: 14px;&quot;&gt;estado&lt;/font&gt;" style="text;strokeColor=none;fillColor=none;align=left;verticalAlign=top;spacingLeft=4;spacingRight=4;overflow=hidden;rotatable=0;points=[[0,0.5],[1,0.5]];portConstraint=eastwest;whiteSpace=wrap;html=1;" parent="v2iRJg3Xfcc0tF-ludr_-67" vertex="1">
          <mxGeometry y="390" width="178.5" height="26" as="geometry" />
        </mxCell>
        <mxCell id="v2iRJg3Xfcc0tF-ludr_-69" value="" style="line;strokeWidth=1;fillColor=none;align=left;verticalAlign=middle;spacingTop=-1;spacingLeft=3;spacingRight=3;rotatable=0;labelPosition=right;points=[];portConstraint=eastwest;strokeColor=inherit;" parent="v2iRJg3Xfcc0tF-ludr_-67" vertex="1">
          <mxGeometry y="416" width="178.5" height="8" as="geometry" />
        </mxCell>
        <mxCell id="v2iRJg3Xfcc0tF-ludr_-70" value="+ method(type): type" style="text;strokeColor=none;fillColor=none;align=left;verticalAlign=top;spacingLeft=4;spacingRight=4;overflow=hidden;rotatable=0;points=[[0,0.5],[1,0.5]];portConstraint=eastwest;whiteSpace=wrap;html=1;" parent="v2iRJg3Xfcc0tF-ludr_-67" vertex="1">
          <mxGeometry y="424" width="178.5" height="26" as="geometry" />
        </mxCell>
        <mxCell id="v2iRJg3Xfcc0tF-ludr_-87" value="&lt;pre style=&quot;user-select: text; font-family: &amp;quot;Courier New&amp;quot;, Courier, monospace, arial, sans-serif; margin-top: 0px; margin-bottom: 0px; overflow-wrap: break-word; background-color: rgb(255, 255, 255); font-size: 14px; font-weight: 400; text-align: left;&quot; class=&quot;aLF-aPX-K0-aPE&quot;&gt;documento&lt;/pre&gt;" style="swimlane;fontStyle=1;align=center;verticalAlign=top;childLayout=stackLayout;horizontal=1;startSize=26;horizontalStack=0;resizeParent=1;resizeParentMax=0;resizeLast=0;collapsible=1;marginBottom=0;whiteSpace=wrap;html=1;fillColor=#cdeb8b;strokeColor=#36393d;" parent="1" vertex="1">
          <mxGeometry x="1930" y="1260" width="160" height="424" as="geometry" />
        </mxCell>
        <mxCell id="v2iRJg3Xfcc0tF-ludr_-88" value="&lt;pre style=&quot;user-select: text; font-family: &amp;quot;Courier New&amp;quot;, Courier, monospace, arial, sans-serif; margin-top: 0px; margin-bottom: 0px; overflow-wrap: break-word; background-color: rgb(255, 255, 255); font-size: 14px;&quot; class=&quot;aLF-aPX-K0-aPE&quot;&gt;id_documento&lt;/pre&gt;" style="text;strokeColor=none;fillColor=none;align=left;verticalAlign=top;spacingLeft=4;spacingRight=4;overflow=hidden;rotatable=0;points=[[0,0.5],[1,0.5]];portConstraint=eastwest;whiteSpace=wrap;html=1;" parent="v2iRJg3Xfcc0tF-ludr_-87" vertex="1">
          <mxGeometry y="26" width="160" height="26" as="geometry" />
        </mxCell>
        <mxCell id="cOuRUTMtnNx2OE-kur7D-1" value="&lt;pre style=&quot;user-select: text; font-family: &amp;quot;Courier New&amp;quot;, Courier, monospace, arial, sans-serif; margin-top: 0px; margin-bottom: 0px; overflow-wrap: break-word; background-color: rgb(255, 255, 255); font-size: 14px;&quot; class=&quot;aLF-aPX-K0-aPE&quot;&gt;tipo&lt;/pre&gt;" style="text;strokeColor=#36393d;fillColor=#cdeb8b;align=left;verticalAlign=top;spacingLeft=4;spacingRight=4;overflow=hidden;rotatable=0;points=[[0,0.5],[1,0.5]];portConstraint=eastwest;whiteSpace=wrap;html=1;" parent="v2iRJg3Xfcc0tF-ludr_-87" vertex="1">
          <mxGeometry y="52" width="160" height="26" as="geometry" />
        </mxCell>
        <mxCell id="v2iRJg3Xfcc0tF-ludr_-98" value="&lt;pre style=&quot;user-select: text; font-family: &amp;quot;Courier New&amp;quot;, Courier, monospace, arial, sans-serif; margin-top: 0px; margin-bottom: 0px; overflow-wrap: break-word; background-color: rgb(255, 255, 255); font-size: 14px;&quot; class=&quot;aLF-aPX-K0-aPE&quot;&gt;numeracion&lt;/pre&gt;" style="text;align=left;verticalAlign=top;spacingLeft=4;spacingRight=4;overflow=hidden;rotatable=0;points=[[0,0.5],[1,0.5]];portConstraint=eastwest;whiteSpace=wrap;html=1;" parent="v2iRJg3Xfcc0tF-ludr_-87" vertex="1">
          <mxGeometry y="78" width="160" height="26" as="geometry" />
        </mxCell>
        <mxCell id="v2iRJg3Xfcc0tF-ludr_-97" value="&lt;pre style=&quot;user-select: text; font-family: &amp;quot;Courier New&amp;quot;, Courier, monospace, arial, sans-serif; margin-top: 0px; margin-bottom: 0px; overflow-wrap: break-word; background-color: rgb(255, 255, 255); font-size: 14px;&quot; class=&quot;aLF-aPX-K0-aPE&quot;&gt;extension&lt;/pre&gt;" style="text;align=left;verticalAlign=top;spacingLeft=4;spacingRight=4;overflow=hidden;rotatable=0;points=[[0,0.5],[1,0.5]];portConstraint=eastwest;whiteSpace=wrap;html=1;" parent="v2iRJg3Xfcc0tF-ludr_-87" vertex="1">
          <mxGeometry y="104" width="160" height="26" as="geometry" />
        </mxCell>
        <mxCell id="v2iRJg3Xfcc0tF-ludr_-95" value="&lt;pre style=&quot;user-select: text; font-family: &amp;quot;Courier New&amp;quot;, Courier, monospace, arial, sans-serif; margin-top: 0px; margin-bottom: 0px; overflow-wrap: break-word; background-color: rgb(255, 255, 255); font-size: 14px;&quot; class=&quot;aLF-aPX-K0-aPE&quot;&gt;para&lt;/pre&gt;" style="text;align=left;verticalAlign=top;spacingLeft=4;spacingRight=4;overflow=hidden;rotatable=0;points=[[0,0.5],[1,0.5]];portConstraint=eastwest;whiteSpace=wrap;html=1;" parent="v2iRJg3Xfcc0tF-ludr_-87" vertex="1">
          <mxGeometry y="130" width="160" height="26" as="geometry" />
        </mxCell>
        <mxCell id="v2iRJg3Xfcc0tF-ludr_-94" value="&lt;pre style=&quot;user-select: text; font-family: &amp;quot;Courier New&amp;quot;, Courier, monospace, arial, sans-serif; margin-top: 0px; margin-bottom: 0px; overflow-wrap: break-word; background-color: rgb(255, 255, 255); font-size: 14px;&quot; class=&quot;aLF-aPX-K0-aPE&quot;&gt;cc&lt;/pre&gt;" style="text;strokeColor=none;fillColor=none;align=left;verticalAlign=top;spacingLeft=4;spacingRight=4;overflow=hidden;rotatable=0;points=[[0,0.5],[1,0.5]];portConstraint=eastwest;whiteSpace=wrap;html=1;" parent="v2iRJg3Xfcc0tF-ludr_-87" vertex="1">
          <mxGeometry y="156" width="160" height="26" as="geometry" />
        </mxCell>
        <mxCell id="v2iRJg3Xfcc0tF-ludr_-93" value="&lt;pre style=&quot;user-select: text; font-family: &amp;quot;Courier New&amp;quot;, Courier, monospace, arial, sans-serif; margin-top: 0px; margin-bottom: 0px; overflow-wrap: break-word; background-color: rgb(255, 255, 255); font-size: 14px;&quot; class=&quot;aLF-aPX-K0-aPE&quot;&gt;de&lt;/pre&gt;" style="text;align=left;verticalAlign=top;spacingLeft=4;spacingRight=4;overflow=hidden;rotatable=0;points=[[0,0.5],[1,0.5]];portConstraint=eastwest;whiteSpace=wrap;html=1;" parent="v2iRJg3Xfcc0tF-ludr_-87" vertex="1">
          <mxGeometry y="182" width="160" height="26" as="geometry" />
        </mxCell>
        <mxCell id="v2iRJg3Xfcc0tF-ludr_-92" value="&lt;pre style=&quot;user-select: text; font-family: &amp;quot;Courier New&amp;quot;, Courier, monospace, arial, sans-serif; margin-top: 0px; margin-bottom: 0px; overflow-wrap: break-word; background-color: rgb(255, 255, 255); font-size: 14px;&quot; class=&quot;aLF-aPX-K0-aPE&quot;&gt;firmas&lt;/pre&gt;" style="text;align=left;verticalAlign=top;spacingLeft=4;spacingRight=4;overflow=hidden;rotatable=0;points=[[0,0.5],[1,0.5]];portConstraint=eastwest;whiteSpace=wrap;html=1;" parent="v2iRJg3Xfcc0tF-ludr_-87" vertex="1">
          <mxGeometry y="208" width="160" height="26" as="geometry" />
        </mxCell>
        <mxCell id="ePQf7IGZMu_F8IOme0l5-7" value="&lt;pre style=&quot;user-select: text; font-family: &amp;quot;Courier New&amp;quot;, Courier, monospace, arial, sans-serif; margin-top: 0px; margin-bottom: 0px; overflow-wrap: break-word; background-color: rgb(255, 255, 255); font-size: 14px;&quot; class=&quot;aLF-aPX-K0-aPE&quot;&gt;referencia&lt;/pre&gt;" style="text;align=left;verticalAlign=top;spacingLeft=4;spacingRight=4;overflow=hidden;rotatable=0;points=[[0,0.5],[1,0.5]];portConstraint=eastwest;whiteSpace=wrap;html=1;" parent="v2iRJg3Xfcc0tF-ludr_-87" vertex="1">
          <mxGeometry y="234" width="160" height="26" as="geometry" />
        </mxCell>
        <mxCell id="xzRCo4YPVUpBEt9XM8Tn-67" value="&lt;pre style=&quot;user-select: text; font-family: &amp;quot;Courier New&amp;quot;, Courier, monospace, arial, sans-serif; margin-top: 0px; margin-bottom: 0px; overflow-wrap: break-word; background-color: rgb(255, 255, 255); font-size: 14px;&quot; class=&quot;aLF-aPX-K0-aPE&quot;&gt;ruta_original&lt;/pre&gt;" style="text;align=left;verticalAlign=top;spacingLeft=4;spacingRight=4;overflow=hidden;rotatable=0;points=[[0,0.5],[1,0.5]];portConstraint=eastwest;whiteSpace=wrap;html=1;" parent="v2iRJg3Xfcc0tF-ludr_-87" vertex="1">
          <mxGeometry y="260" width="160" height="26" as="geometry" />
        </mxCell>
        <mxCell id="xzRCo4YPVUpBEt9XM8Tn-69" value="&lt;pre style=&quot;user-select: text; font-family: &amp;quot;Courier New&amp;quot;, Courier, monospace, arial, sans-serif; margin-top: 0px; margin-bottom: 0px; overflow-wrap: break-word; background-color: rgb(255, 255, 255); font-size: 14px;&quot; class=&quot;aLF-aPX-K0-aPE&quot;&gt;ruta_personalizado&lt;/pre&gt;" style="text;align=left;verticalAlign=top;spacingLeft=4;spacingRight=4;overflow=hidden;rotatable=0;points=[[0,0.5],[1,0.5]];portConstraint=eastwest;whiteSpace=wrap;html=1;" parent="v2iRJg3Xfcc0tF-ludr_-87" vertex="1">
          <mxGeometry y="286" width="160" height="26" as="geometry" />
        </mxCell>
        <mxCell id="xzRCo4YPVUpBEt9XM8Tn-68" value="&lt;pre style=&quot;user-select: text; font-family: &amp;quot;Courier New&amp;quot;, Courier, monospace, arial, sans-serif; margin-top: 0px; margin-bottom: 0px; overflow-wrap: break-word; background-color: rgb(255, 255, 255); font-size: 14px;&quot; class=&quot;aLF-aPX-K0-aPE&quot;&gt;referencia&lt;/pre&gt;" style="text;align=left;verticalAlign=top;spacingLeft=4;spacingRight=4;overflow=hidden;rotatable=0;points=[[0,0.5],[1,0.5]];portConstraint=eastwest;whiteSpace=wrap;html=1;" parent="v2iRJg3Xfcc0tF-ludr_-87" vertex="1">
          <mxGeometry y="312" width="160" height="26" as="geometry" />
        </mxCell>
        <mxCell id="zRA_gL1lxdrGA0FTlB0p-68" value="&lt;font face=&quot;Courier New&quot; style=&quot;font-size: 14px;&quot;&gt;fecha_creacion&lt;/font&gt;" style="text;strokeColor=none;fillColor=none;align=left;verticalAlign=top;spacingLeft=4;spacingRight=4;overflow=hidden;rotatable=0;points=[[0,0.5],[1,0.5]];portConstraint=eastwest;whiteSpace=wrap;html=1;" parent="v2iRJg3Xfcc0tF-ludr_-87" vertex="1">
          <mxGeometry y="338" width="160" height="26" as="geometry" />
        </mxCell>
        <mxCell id="zRA_gL1lxdrGA0FTlB0p-23" value="&lt;font style=&quot;font-size: 14px;&quot; face=&quot;Courier New&quot;&gt;estado&lt;/font&gt;" style="text;strokeColor=none;fillColor=none;align=left;verticalAlign=top;spacingLeft=4;spacingRight=4;overflow=hidden;rotatable=0;points=[[0,0.5],[1,0.5]];portConstraint=eastwest;whiteSpace=wrap;html=1;" parent="v2iRJg3Xfcc0tF-ludr_-87" vertex="1">
          <mxGeometry y="364" width="160" height="26" as="geometry" />
        </mxCell>
        <mxCell id="v2iRJg3Xfcc0tF-ludr_-89" value="" style="line;strokeWidth=1;fillColor=none;align=left;verticalAlign=middle;spacingTop=-1;spacingLeft=3;spacingRight=3;rotatable=0;labelPosition=right;points=[];portConstraint=eastwest;strokeColor=inherit;" parent="v2iRJg3Xfcc0tF-ludr_-87" vertex="1">
          <mxGeometry y="390" width="160" height="8" as="geometry" />
        </mxCell>
        <mxCell id="v2iRJg3Xfcc0tF-ludr_-90" value="+ method(type): type" style="text;strokeColor=none;fillColor=none;align=left;verticalAlign=top;spacingLeft=4;spacingRight=4;overflow=hidden;rotatable=0;points=[[0,0.5],[1,0.5]];portConstraint=eastwest;whiteSpace=wrap;html=1;" parent="v2iRJg3Xfcc0tF-ludr_-87" vertex="1">
          <mxGeometry y="398" width="160" height="26" as="geometry" />
        </mxCell>
        <mxCell id="v2iRJg3Xfcc0tF-ludr_-99" value="&lt;pre style=&quot;user-select: text; font-family: &amp;quot;Courier New&amp;quot;, Courier, monospace, arial, sans-serif; margin-top: 0px; margin-bottom: 0px; overflow-wrap: break-word; background-color: rgb(255, 255, 255); font-size: 14px; font-weight: 400; text-align: left;&quot; class=&quot;aLF-aPX-K0-aPE&quot;&gt;observaciones&lt;/pre&gt;" style="swimlane;fontStyle=1;align=center;verticalAlign=top;childLayout=stackLayout;horizontal=1;startSize=26;horizontalStack=0;resizeParent=1;resizeParentMax=0;resizeLast=0;collapsible=1;marginBottom=0;whiteSpace=wrap;html=1;" parent="1" vertex="1">
          <mxGeometry x="1654" y="552" width="190" height="658" as="geometry" />
        </mxCell>
        <mxCell id="v2iRJg3Xfcc0tF-ludr_-100" value="&lt;pre style=&quot;user-select: text; font-family: &amp;quot;Courier New&amp;quot;, Courier, monospace, arial, sans-serif; margin-top: 0px; margin-bottom: 0px; overflow-wrap: break-word; background-color: rgb(255, 255, 255); font-size: 14px;&quot; class=&quot;aLF-aPX-K0-aPE&quot;&gt;id_observacion&lt;/pre&gt;" style="text;strokeColor=none;fillColor=none;align=left;verticalAlign=top;spacingLeft=4;spacingRight=4;overflow=hidden;rotatable=0;points=[[0,0.5],[1,0.5]];portConstraint=eastwest;whiteSpace=wrap;html=1;" parent="v2iRJg3Xfcc0tF-ludr_-99" vertex="1">
          <mxGeometry y="26" width="190" height="26" as="geometry" />
        </mxCell>
        <mxCell id="v2iRJg3Xfcc0tF-ludr_-113" value="&lt;pre style=&quot;user-select: text; font-family: &amp;quot;Courier New&amp;quot;, Courier, monospace, arial, sans-serif; margin-top: 0px; margin-bottom: 0px; overflow-wrap: break-word; background-color: rgb(255, 255, 255); font-size: 14px;&quot; class=&quot;aLF-aPX-K0-aPE&quot;&gt;id_auditoria&lt;/pre&gt;" style="text;strokeColor=none;fillColor=none;align=left;verticalAlign=top;spacingLeft=4;spacingRight=4;overflow=hidden;rotatable=0;points=[[0,0.5],[1,0.5]];portConstraint=eastwest;whiteSpace=wrap;html=1;" parent="v2iRJg3Xfcc0tF-ludr_-99" vertex="1">
          <mxGeometry y="52" width="190" height="26" as="geometry" />
        </mxCell>
        <mxCell id="v2iRJg3Xfcc0tF-ludr_-112" value="&lt;pre style=&quot;user-select: text; font-family: &amp;quot;Courier New&amp;quot;, Courier, monospace, arial, sans-serif; margin-top: 0px; margin-bottom: 0px; overflow-wrap: break-word; background-color: rgb(255, 255, 255); font-size: 14px;&quot; class=&quot;aLF-aPX-K0-aPE&quot;&gt;id_usuario_auditado&lt;/pre&gt;" style="text;strokeColor=none;fillColor=none;align=left;verticalAlign=top;spacingLeft=4;spacingRight=4;overflow=hidden;rotatable=0;points=[[0,0.5],[1,0.5]];portConstraint=eastwest;whiteSpace=wrap;html=1;" parent="v2iRJg3Xfcc0tF-ludr_-99" vertex="1">
          <mxGeometry y="78" width="190" height="26" as="geometry" />
        </mxCell>
        <mxCell id="zRA_gL1lxdrGA0FTlB0p-3" value="&lt;font style=&quot;font-size: 14px;&quot; face=&quot;Courier New&quot;&gt;id_usuario_auditor&lt;/font&gt;" style="text;strokeColor=none;fillColor=none;align=left;verticalAlign=top;spacingLeft=4;spacingRight=4;overflow=hidden;rotatable=0;points=[[0,0.5],[1,0.5]];portConstraint=eastwest;whiteSpace=wrap;html=1;" parent="v2iRJg3Xfcc0tF-ludr_-99" vertex="1">
          <mxGeometry y="104" width="190" height="26" as="geometry" />
        </mxCell>
        <mxCell id="v2iRJg3Xfcc0tF-ludr_-111" value="&lt;pre style=&quot;user-select: text; font-family: &amp;quot;Courier New&amp;quot;, Courier, monospace, arial, sans-serif; margin-top: 0px; margin-bottom: 0px; overflow-wrap: break-word; background-color: rgb(255, 255, 255); font-size: 14px;&quot; class=&quot;aLF-aPX-K0-aPE&quot;&gt;titulo&lt;/pre&gt;" style="text;strokeColor=none;fillColor=none;align=left;verticalAlign=top;spacingLeft=4;spacingRight=4;overflow=hidden;rotatable=0;points=[[0,0.5],[1,0.5]];portConstraint=eastwest;whiteSpace=wrap;html=1;" parent="v2iRJg3Xfcc0tF-ludr_-99" vertex="1">
          <mxGeometry y="130" width="190" height="26" as="geometry" />
        </mxCell>
        <mxCell id="v2iRJg3Xfcc0tF-ludr_-109" value="&lt;pre style=&quot;user-select: text; font-family: &amp;quot;Courier New&amp;quot;, Courier, monospace, arial, sans-serif; margin-top: 0px; margin-bottom: 0px; overflow-wrap: break-word; background-color: rgb(255, 255, 255); font-size: 14px;&quot; class=&quot;aLF-aPX-K0-aPE&quot;&gt;prioridad&lt;/pre&gt;" style="text;strokeColor=none;fillColor=none;align=left;verticalAlign=top;spacingLeft=4;spacingRight=4;overflow=hidden;rotatable=0;points=[[0,0.5],[1,0.5]];portConstraint=eastwest;whiteSpace=wrap;html=1;" parent="v2iRJg3Xfcc0tF-ludr_-99" vertex="1">
          <mxGeometry y="156" width="190" height="26" as="geometry" />
        </mxCell>
        <mxCell id="v2iRJg3Xfcc0tF-ludr_-108" value="&lt;pre style=&quot;user-select: text; font-family: &amp;quot;Courier New&amp;quot;, Courier, monospace, arial, sans-serif; margin-top: 0px; margin-bottom: 0px; overflow-wrap: break-word; background-color: rgb(255, 255, 255); font-size: 14px;&quot; class=&quot;aLF-aPX-K0-aPE&quot;&gt;condicion&lt;/pre&gt;" style="text;strokeColor=none;fillColor=none;align=left;verticalAlign=top;spacingLeft=4;spacingRight=4;overflow=hidden;rotatable=0;points=[[0,0.5],[1,0.5]];portConstraint=eastwest;whiteSpace=wrap;html=1;" parent="v2iRJg3Xfcc0tF-ludr_-99" vertex="1">
          <mxGeometry y="182" width="190" height="26" as="geometry" />
        </mxCell>
        <mxCell id="TRtConVOSURS0k0011Dr-1" value="&lt;font face=&quot;Courier New&quot; style=&quot;font-size: 14px;&quot;&gt;complemento&lt;/font&gt;" style="text;strokeColor=none;fillColor=none;align=left;verticalAlign=top;spacingLeft=4;spacingRight=4;overflow=hidden;rotatable=0;points=[[0,0.5],[1,0.5]];portConstraint=eastwest;whiteSpace=wrap;html=1;" parent="v2iRJg3Xfcc0tF-ludr_-99" vertex="1">
          <mxGeometry y="208" width="190" height="26" as="geometry" />
        </mxCell>
        <mxCell id="v2iRJg3Xfcc0tF-ludr_-106" value="&lt;pre style=&quot;user-select: text; font-family: &amp;quot;Courier New&amp;quot;, Courier, monospace, arial, sans-serif; margin-top: 0px; margin-bottom: 0px; overflow-wrap: break-word; background-color: rgb(255, 255, 255); font-size: 14px;&quot; class=&quot;aLF-aPX-K0-aPE&quot;&gt;criterio&lt;/pre&gt;" style="text;strokeColor=none;fillColor=none;align=left;verticalAlign=top;spacingLeft=4;spacingRight=4;overflow=hidden;rotatable=0;points=[[0,0.5],[1,0.5]];portConstraint=eastwest;whiteSpace=wrap;html=1;" parent="v2iRJg3Xfcc0tF-ludr_-99" vertex="1">
          <mxGeometry y="234" width="190" height="26" as="geometry" />
        </mxCell>
        <mxCell id="v2iRJg3Xfcc0tF-ludr_-105" value="&lt;pre style=&quot;user-select: text; font-family: &amp;quot;Courier New&amp;quot;, Courier, monospace, arial, sans-serif; margin-top: 0px; margin-bottom: 0px; overflow-wrap: break-word; background-color: rgb(255, 255, 255); font-size: 14px;&quot; class=&quot;aLF-aPX-K0-aPE&quot;&gt;causa&lt;/pre&gt;" style="text;strokeColor=none;fillColor=none;align=left;verticalAlign=top;spacingLeft=4;spacingRight=4;overflow=hidden;rotatable=0;points=[[0,0.5],[1,0.5]];portConstraint=eastwest;whiteSpace=wrap;html=1;" parent="v2iRJg3Xfcc0tF-ludr_-99" vertex="1">
          <mxGeometry y="260" width="190" height="26" as="geometry" />
        </mxCell>
        <mxCell id="v2iRJg3Xfcc0tF-ludr_-104" value="&lt;pre style=&quot;user-select: text; font-family: &amp;quot;Courier New&amp;quot;, Courier, monospace, arial, sans-serif; margin-top: 0px; margin-bottom: 0px; overflow-wrap: break-word; background-color: rgb(255, 255, 255); font-size: 14px;&quot; class=&quot;aLF-aPX-K0-aPE&quot;&gt;efecto&lt;/pre&gt;" style="text;strokeColor=none;fillColor=none;align=left;verticalAlign=top;spacingLeft=4;spacingRight=4;overflow=hidden;rotatable=0;points=[[0,0.5],[1,0.5]];portConstraint=eastwest;whiteSpace=wrap;html=1;" parent="v2iRJg3Xfcc0tF-ludr_-99" vertex="1">
          <mxGeometry y="286" width="190" height="26" as="geometry" />
        </mxCell>
        <mxCell id="v2iRJg3Xfcc0tF-ludr_-103" value="&lt;pre style=&quot;user-select: text; font-family: &amp;quot;Courier New&amp;quot;, Courier, monospace, arial, sans-serif; margin-top: 0px; margin-bottom: 0px; overflow-wrap: break-word; background-color: rgb(255, 255, 255); font-size: 14px;&quot; class=&quot;aLF-aPX-K0-aPE&quot;&gt;conclusion&lt;/pre&gt;" style="text;strokeColor=none;fillColor=none;align=left;verticalAlign=top;spacingLeft=4;spacingRight=4;overflow=hidden;rotatable=0;points=[[0,0.5],[1,0.5]];portConstraint=eastwest;whiteSpace=wrap;html=1;" parent="v2iRJg3Xfcc0tF-ludr_-99" vertex="1">
          <mxGeometry y="312" width="190" height="26" as="geometry" />
        </mxCell>
        <mxCell id="v2iRJg3Xfcc0tF-ludr_-107" value="&lt;pre style=&quot;user-select: text; font-family: &amp;quot;Courier New&amp;quot;, Courier, monospace, arial, sans-serif; margin-top: 0px; margin-bottom: 0px; overflow-wrap: break-word; background-color: rgb(255, 255, 255); font-size: 14px;&quot; class=&quot;aLF-aPX-K0-aPE&quot;&gt;archivos_adjuntos&lt;/pre&gt;" style="text;strokeColor=none;fillColor=none;align=left;verticalAlign=top;spacingLeft=4;spacingRight=4;overflow=hidden;rotatable=0;points=[[0,0.5],[1,0.5]];portConstraint=eastwest;whiteSpace=wrap;html=1;" parent="v2iRJg3Xfcc0tF-ludr_-99" vertex="1">
          <mxGeometry y="338" width="190" height="26" as="geometry" />
        </mxCell>
        <mxCell id="v2iRJg3Xfcc0tF-ludr_-116" value="&lt;pre style=&quot;user-select: text; font-family: &amp;quot;Courier New&amp;quot;, Courier, monospace, arial, sans-serif; margin-top: 0px; margin-bottom: 0px; overflow-wrap: break-word; background-color: rgb(255, 255, 255); font-size: 14px;&quot; class=&quot;aLF-aPX-K0-aPE&quot;&gt;directorio_adjuntos&lt;/pre&gt;" style="text;strokeColor=none;fillColor=none;align=left;verticalAlign=top;spacingLeft=4;spacingRight=4;overflow=hidden;rotatable=0;points=[[0,0.5],[1,0.5]];portConstraint=eastwest;whiteSpace=wrap;html=1;" parent="v2iRJg3Xfcc0tF-ludr_-99" vertex="1">
          <mxGeometry y="364" width="190" height="26" as="geometry" />
        </mxCell>
        <mxCell id="v2iRJg3Xfcc0tF-ludr_-114" value="&lt;pre style=&quot;user-select: text; font-family: &amp;quot;Courier New&amp;quot;, Courier, monospace, arial, sans-serif; margin-top: 0px; margin-bottom: 0px; overflow-wrap: break-word; background-color: rgb(255, 255, 255); font-size: 14px;&quot; class=&quot;aLF-aPX-K0-aPE&quot;&gt;subsanada&lt;/pre&gt;" style="text;strokeColor=none;fillColor=none;align=left;verticalAlign=top;spacingLeft=4;spacingRight=4;overflow=hidden;rotatable=0;points=[[0,0.5],[1,0.5]];portConstraint=eastwest;whiteSpace=wrap;html=1;" parent="v2iRJg3Xfcc0tF-ludr_-99" vertex="1">
          <mxGeometry y="390" width="190" height="26" as="geometry" />
        </mxCell>
        <mxCell id="t9MOsn8YDbQsksS0tUmH-1" value="&lt;font style=&quot;font-size: 14px;&quot; face=&quot;Courier New&quot;&gt;aprobacion&lt;/font&gt;" style="text;align=left;verticalAlign=top;spacingLeft=4;spacingRight=4;overflow=hidden;rotatable=0;points=[[0,0.5],[1,0.5]];portConstraint=eastwest;whiteSpace=wrap;html=1;" parent="v2iRJg3Xfcc0tF-ludr_-99" vertex="1">
          <mxGeometry y="416" width="190" height="26" as="geometry" />
        </mxCell>
        <mxCell id="kC0Oe4MXgPykfY4GPiJI-32" value="&lt;font style=&quot;font-size: 14px;&quot; face=&quot;Courier New&quot;&gt;comentario_aprobacion&lt;/font&gt;" style="text;align=left;verticalAlign=top;spacingLeft=4;spacingRight=4;overflow=hidden;rotatable=0;points=[[0,0.5],[1,0.5]];portConstraint=eastwest;whiteSpace=wrap;html=1;" parent="v2iRJg3Xfcc0tF-ludr_-99" vertex="1">
          <mxGeometry y="442" width="190" height="26" as="geometry" />
        </mxCell>
        <mxCell id="kC0Oe4MXgPykfY4GPiJI-28" value="&lt;font style=&quot;font-size: 14px;&quot; face=&quot;Courier New&quot;&gt;fecha_aprobacion&lt;/font&gt;" style="text;align=left;verticalAlign=top;spacingLeft=4;spacingRight=4;overflow=hidden;rotatable=0;points=[[0,0.5],[1,0.5]];portConstraint=eastwest;whiteSpace=wrap;html=1;" parent="v2iRJg3Xfcc0tF-ludr_-99" vertex="1">
          <mxGeometry y="468" width="190" height="26" as="geometry" />
        </mxCell>
        <mxCell id="kC0Oe4MXgPykfY4GPiJI-29" value="&lt;font face=&quot;Courier New&quot;&gt;&lt;span style=&quot;font-size: 14px;&quot;&gt;aceptacion&lt;/span&gt;&lt;/font&gt;" style="text;align=left;verticalAlign=top;spacingLeft=4;spacingRight=4;overflow=hidden;rotatable=0;points=[[0,0.5],[1,0.5]];portConstraint=eastwest;whiteSpace=wrap;html=1;" parent="v2iRJg3Xfcc0tF-ludr_-99" vertex="1">
          <mxGeometry y="494" width="190" height="26" as="geometry" />
        </mxCell>
        <mxCell id="kC0Oe4MXgPykfY4GPiJI-31" value="&lt;font face=&quot;Courier New&quot; style=&quot;font-size: 14px;&quot;&gt;comentario_aceptacion&lt;/font&gt;" style="text;align=left;verticalAlign=top;spacingLeft=4;spacingRight=4;overflow=hidden;rotatable=0;points=[[0,0.5],[1,0.5]];portConstraint=eastwest;whiteSpace=wrap;html=1;" parent="v2iRJg3Xfcc0tF-ludr_-99" vertex="1">
          <mxGeometry y="520" width="190" height="26" as="geometry" />
        </mxCell>
        <mxCell id="kC0Oe4MXgPykfY4GPiJI-30" value="&lt;font style=&quot;font-size: 14px;&quot; face=&quot;Courier New&quot;&gt;fecha_aceptacion&lt;/font&gt;" style="text;align=left;verticalAlign=top;spacingLeft=4;spacingRight=4;overflow=hidden;rotatable=0;points=[[0,0.5],[1,0.5]];portConstraint=eastwest;whiteSpace=wrap;html=1;" parent="v2iRJg3Xfcc0tF-ludr_-99" vertex="1">
          <mxGeometry y="546" width="190" height="26" as="geometry" />
        </mxCell>
        <mxCell id="v2iRJg3Xfcc0tF-ludr_-110" value="&lt;pre style=&quot;user-select: text; font-family: &amp;quot;Courier New&amp;quot;, Courier, monospace, arial, sans-serif; margin-top: 0px; margin-bottom: 0px; overflow-wrap: break-word; background-color: rgb(255, 255, 255); font-size: 14px;&quot; class=&quot;aLF-aPX-K0-aPE&quot;&gt;fecha_creacion&lt;/pre&gt;" style="text;strokeColor=none;fillColor=none;align=left;verticalAlign=top;spacingLeft=4;spacingRight=4;overflow=hidden;rotatable=0;points=[[0,0.5],[1,0.5]];portConstraint=eastwest;whiteSpace=wrap;html=1;" parent="v2iRJg3Xfcc0tF-ludr_-99" vertex="1">
          <mxGeometry y="572" width="190" height="26" as="geometry" />
        </mxCell>
        <mxCell id="zRA_gL1lxdrGA0FTlB0p-13" value="&lt;font face=&quot;Courier New&quot; style=&quot;font-size: 14px;&quot;&gt;estado&lt;/font&gt;" style="text;strokeColor=none;fillColor=none;align=left;verticalAlign=top;spacingLeft=4;spacingRight=4;overflow=hidden;rotatable=0;points=[[0,0.5],[1,0.5]];portConstraint=eastwest;whiteSpace=wrap;html=1;" parent="v2iRJg3Xfcc0tF-ludr_-99" vertex="1">
          <mxGeometry y="598" width="190" height="26" as="geometry" />
        </mxCell>
        <mxCell id="v2iRJg3Xfcc0tF-ludr_-101" value="" style="line;strokeWidth=1;fillColor=none;align=left;verticalAlign=middle;spacingTop=-1;spacingLeft=3;spacingRight=3;rotatable=0;labelPosition=right;points=[];portConstraint=eastwest;strokeColor=inherit;" parent="v2iRJg3Xfcc0tF-ludr_-99" vertex="1">
          <mxGeometry y="624" width="190" height="8" as="geometry" />
        </mxCell>
        <mxCell id="v2iRJg3Xfcc0tF-ludr_-102" value="+ method(type): type" style="text;strokeColor=none;fillColor=none;align=left;verticalAlign=top;spacingLeft=4;spacingRight=4;overflow=hidden;rotatable=0;points=[[0,0.5],[1,0.5]];portConstraint=eastwest;whiteSpace=wrap;html=1;" parent="v2iRJg3Xfcc0tF-ludr_-99" vertex="1">
          <mxGeometry y="632" width="190" height="26" as="geometry" />
        </mxCell>
        <mxCell id="v2iRJg3Xfcc0tF-ludr_-117" value="&lt;pre style=&quot;user-select: text; font-family: &amp;quot;Courier New&amp;quot;, Courier, monospace, arial, sans-serif; margin-top: 0px; margin-bottom: 0px; overflow-wrap: break-word; background-color: rgb(255, 255, 255); font-size: 14px; font-weight: 400; text-align: left;&quot; class=&quot;aLF-aPX-K0-aPE&quot;&gt;part_planificacion&lt;/pre&gt;" style="swimlane;fontStyle=1;align=center;verticalAlign=top;childLayout=stackLayout;horizontal=1;startSize=26;horizontalStack=0;resizeParent=1;resizeParentMax=0;resizeLast=0;collapsible=1;marginBottom=0;whiteSpace=wrap;html=1;" parent="1" vertex="1">
          <mxGeometry x="735" y="-210" width="230" height="216" as="geometry" />
        </mxCell>
        <mxCell id="v2iRJg3Xfcc0tF-ludr_-118" value="&lt;pre style=&quot;user-select: text; font-family: &amp;quot;Courier New&amp;quot;, Courier, monospace, arial, sans-serif; margin-top: 0px; margin-bottom: 0px; overflow-wrap: break-word; background-color: rgb(255, 255, 255); font-size: 14px;&quot; class=&quot;aLF-aPX-K0-aPE&quot;&gt;id_part_plan&lt;/pre&gt;" style="text;strokeColor=none;fillColor=none;align=left;verticalAlign=top;spacingLeft=4;spacingRight=4;overflow=hidden;rotatable=0;points=[[0,0.5],[1,0.5]];portConstraint=eastwest;whiteSpace=wrap;html=1;" parent="v2iRJg3Xfcc0tF-ludr_-117" vertex="1">
          <mxGeometry y="26" width="230" height="26" as="geometry" />
        </mxCell>
        <mxCell id="v2iRJg3Xfcc0tF-ludr_-121" value="&lt;pre style=&quot;user-select: text; font-family: &amp;quot;Courier New&amp;quot;, Courier, monospace, arial, sans-serif; margin-top: 0px; margin-bottom: 0px; overflow-wrap: break-word; background-color: rgb(255, 255, 255); font-size: 14px;&quot; class=&quot;aLF-aPX-K0-aPE&quot;&gt;id_usuario&lt;/pre&gt;" style="text;strokeColor=none;fillColor=none;align=left;verticalAlign=top;spacingLeft=4;spacingRight=4;overflow=hidden;rotatable=0;points=[[0,0.5],[1,0.5]];portConstraint=eastwest;whiteSpace=wrap;html=1;" parent="v2iRJg3Xfcc0tF-ludr_-117" vertex="1">
          <mxGeometry y="52" width="230" height="26" as="geometry" />
        </mxCell>
        <mxCell id="v2iRJg3Xfcc0tF-ludr_-123" value="&lt;pre style=&quot;user-select: text; font-family: &amp;quot;Courier New&amp;quot;, Courier, monospace, arial, sans-serif; margin-top: 0px; margin-bottom: 0px; overflow-wrap: break-word; background-color: rgb(255, 255, 255); font-size: 14px;&quot; class=&quot;aLF-aPX-K0-aPE&quot;&gt;id_plan&lt;/pre&gt;" style="text;strokeColor=none;fillColor=none;align=left;verticalAlign=top;spacingLeft=4;spacingRight=4;overflow=hidden;rotatable=0;points=[[0,0.5],[1,0.5]];portConstraint=eastwest;whiteSpace=wrap;html=1;" parent="v2iRJg3Xfcc0tF-ludr_-117" vertex="1">
          <mxGeometry y="78" width="230" height="26" as="geometry" />
        </mxCell>
        <mxCell id="Lcip7T_UkXhXK0Q2yI7Q-28" value="&lt;font style=&quot;font-size: 14px;&quot; face=&quot;Courier New&quot;&gt;rol&lt;/font&gt;" style="text;align=left;verticalAlign=top;spacingLeft=4;spacingRight=4;overflow=hidden;rotatable=0;points=[[0,0.5],[1,0.5]];portConstraint=eastwest;whiteSpace=wrap;html=1;" parent="v2iRJg3Xfcc0tF-ludr_-117" vertex="1">
          <mxGeometry y="104" width="230" height="26" as="geometry" />
        </mxCell>
        <mxCell id="zRA_gL1lxdrGA0FTlB0p-70" value="&lt;font face=&quot;Courier New&quot; style=&quot;font-size: 14px;&quot;&gt;fecha_creacion&lt;/font&gt;" style="text;strokeColor=none;fillColor=none;align=left;verticalAlign=top;spacingLeft=4;spacingRight=4;overflow=hidden;rotatable=0;points=[[0,0.5],[1,0.5]];portConstraint=eastwest;whiteSpace=wrap;html=1;" parent="v2iRJg3Xfcc0tF-ludr_-117" vertex="1">
          <mxGeometry y="130" width="230" height="26" as="geometry" />
        </mxCell>
        <mxCell id="zRA_gL1lxdrGA0FTlB0p-19" value="&lt;font face=&quot;Courier New&quot; style=&quot;font-size: 14px;&quot;&gt;estado&lt;/font&gt;" style="text;strokeColor=none;fillColor=none;align=left;verticalAlign=top;spacingLeft=4;spacingRight=4;overflow=hidden;rotatable=0;points=[[0,0.5],[1,0.5]];portConstraint=eastwest;whiteSpace=wrap;html=1;" parent="v2iRJg3Xfcc0tF-ludr_-117" vertex="1">
          <mxGeometry y="156" width="230" height="26" as="geometry" />
        </mxCell>
        <mxCell id="v2iRJg3Xfcc0tF-ludr_-119" value="" style="line;strokeWidth=1;fillColor=none;align=left;verticalAlign=middle;spacingTop=-1;spacingLeft=3;spacingRight=3;rotatable=0;labelPosition=right;points=[];portConstraint=eastwest;strokeColor=inherit;" parent="v2iRJg3Xfcc0tF-ludr_-117" vertex="1">
          <mxGeometry y="182" width="230" height="8" as="geometry" />
        </mxCell>
        <mxCell id="v2iRJg3Xfcc0tF-ludr_-120" value="+ method(type): type" style="text;strokeColor=none;fillColor=none;align=left;verticalAlign=top;spacingLeft=4;spacingRight=4;overflow=hidden;rotatable=0;points=[[0,0.5],[1,0.5]];portConstraint=eastwest;whiteSpace=wrap;html=1;" parent="v2iRJg3Xfcc0tF-ludr_-117" vertex="1">
          <mxGeometry y="190" width="230" height="26" as="geometry" />
        </mxCell>
        <mxCell id="v2iRJg3Xfcc0tF-ludr_-126" value="&lt;pre style=&quot;user-select: text; font-family: &amp;quot;Courier New&amp;quot;, Courier, monospace, arial, sans-serif; margin-top: 0px; margin-bottom: 0px; overflow-wrap: break-word; background-color: rgb(255, 255, 255); font-size: 14px; font-weight: 400; text-align: left;&quot; class=&quot;aLF-aPX-K0-aPE&quot;&gt;seguimientos&lt;/pre&gt;" style="swimlane;fontStyle=1;align=center;verticalAlign=top;childLayout=stackLayout;horizontal=1;startSize=26;horizontalStack=0;resizeParent=1;resizeParentMax=0;resizeLast=0;collapsible=1;marginBottom=0;whiteSpace=wrap;html=1;" parent="1" vertex="1">
          <mxGeometry x="2234" y="552" width="250" height="398" as="geometry" />
        </mxCell>
        <mxCell id="v2iRJg3Xfcc0tF-ludr_-127" value="&lt;pre style=&quot;user-select: text; font-family: &amp;quot;Courier New&amp;quot;, Courier, monospace, arial, sans-serif; margin-top: 0px; margin-bottom: 0px; overflow-wrap: break-word; background-color: rgb(255, 255, 255); font-size: 14px;&quot; class=&quot;aLF-aPX-K0-aPE&quot;&gt;id_seguimiento&lt;/pre&gt;" style="text;strokeColor=none;fillColor=none;align=left;verticalAlign=top;spacingLeft=4;spacingRight=4;overflow=hidden;rotatable=0;points=[[0,0.5],[1,0.5]];portConstraint=eastwest;whiteSpace=wrap;html=1;" parent="v2iRJg3Xfcc0tF-ludr_-126" vertex="1">
          <mxGeometry y="26" width="250" height="26" as="geometry" />
        </mxCell>
        <mxCell id="v2iRJg3Xfcc0tF-ludr_-143" value="&lt;pre style=&quot;user-select: text; font-family: &amp;quot;Courier New&amp;quot;, Courier, monospace, arial, sans-serif; margin-top: 0px; margin-bottom: 0px; overflow-wrap: break-word; background-color: rgb(255, 255, 255); font-size: 14px;&quot; class=&quot;aLF-aPX-K0-aPE&quot;&gt;&lt;pre style=&quot;border-color: var(--border-color); user-select: text; font-family: &amp;quot;Courier New&amp;quot;, Courier, monospace, arial, sans-serif; margin-top: 0px; margin-bottom: 0px; overflow-wrap: break-word;&quot; class=&quot;aLF-aPX-K0-aPE&quot;&gt;id_resp_observacion&lt;/pre&gt;&lt;/pre&gt;" style="text;strokeColor=none;fillColor=none;align=left;verticalAlign=top;spacingLeft=4;spacingRight=4;overflow=hidden;rotatable=0;points=[[0,0.5],[1,0.5]];portConstraint=eastwest;whiteSpace=wrap;html=1;" parent="v2iRJg3Xfcc0tF-ludr_-126" vertex="1">
          <mxGeometry y="52" width="250" height="26" as="geometry" />
        </mxCell>
        <mxCell id="v2iRJg3Xfcc0tF-ludr_-139" value="&lt;pre style=&quot;user-select: text; font-family: &amp;quot;Courier New&amp;quot;, Courier, monospace, arial, sans-serif; margin-top: 0px; margin-bottom: 0px; overflow-wrap: break-word; background-color: rgb(255, 255, 255); font-size: 14px;&quot; class=&quot;aLF-aPX-K0-aPE&quot;&gt;id_usuario_responsable&lt;/pre&gt;" style="text;strokeColor=none;fillColor=none;align=left;verticalAlign=top;spacingLeft=4;spacingRight=4;overflow=hidden;rotatable=0;points=[[0,0.5],[1,0.5]];portConstraint=eastwest;whiteSpace=wrap;html=1;" parent="v2iRJg3Xfcc0tF-ludr_-126" vertex="1">
          <mxGeometry y="78" width="250" height="26" as="geometry" />
        </mxCell>
        <mxCell id="v2iRJg3Xfcc0tF-ludr_-138" value="&lt;pre style=&quot;user-select: text; font-family: &amp;quot;Courier New&amp;quot;, Courier, monospace, arial, sans-serif; margin-top: 0px; margin-bottom: 0px; overflow-wrap: break-word; background-color: rgb(255, 255, 255); font-size: 14px;&quot; class=&quot;aLF-aPX-K0-aPE&quot;&gt;&lt;pre style=&quot;border-color: var(--border-color); user-select: text; font-family: &amp;quot;Courier New&amp;quot;, Courier, monospace, arial, sans-serif; margin-top: 0px; margin-bottom: 0px; overflow-wrap: break-word;&quot; class=&quot;aLF-aPX-K0-aPE&quot;&gt;auditado_comentario&lt;/pre&gt;&lt;/pre&gt;" style="text;strokeColor=none;fillColor=none;align=left;verticalAlign=top;spacingLeft=4;spacingRight=4;overflow=hidden;rotatable=0;points=[[0,0.5],[1,0.5]];portConstraint=eastwest;whiteSpace=wrap;html=1;" parent="v2iRJg3Xfcc0tF-ludr_-126" vertex="1">
          <mxGeometry y="104" width="250" height="26" as="geometry" />
        </mxCell>
        <mxCell id="v2iRJg3Xfcc0tF-ludr_-137" value="&lt;pre style=&quot;user-select: text; font-family: &amp;quot;Courier New&amp;quot;, Courier, monospace, arial, sans-serif; margin-top: 0px; margin-bottom: 0px; overflow-wrap: break-word; background-color: rgb(255, 255, 255); font-size: 14px;&quot; class=&quot;aLF-aPX-K0-aPE&quot;&gt;&lt;pre style=&quot;border-color: var(--border-color); user-select: text; font-family: &amp;quot;Courier New&amp;quot;, Courier, monospace, arial, sans-serif; margin-top: 0px; margin-bottom: 0px; overflow-wrap: break-word;&quot; class=&quot;aLF-aPX-K0-aPE&quot;&gt;auditado_medidas_correctivas&lt;/pre&gt;&lt;/pre&gt;" style="text;strokeColor=none;fillColor=none;align=left;verticalAlign=top;spacingLeft=4;spacingRight=4;overflow=hidden;rotatable=0;points=[[0,0.5],[1,0.5]];portConstraint=eastwest;whiteSpace=wrap;html=1;" parent="v2iRJg3Xfcc0tF-ludr_-126" vertex="1">
          <mxGeometry y="130" width="250" height="26" as="geometry" />
        </mxCell>
        <mxCell id="v2iRJg3Xfcc0tF-ludr_-136" value="&lt;pre style=&quot;user-select: text; font-family: &amp;quot;Courier New&amp;quot;, Courier, monospace, arial, sans-serif; margin-top: 0px; margin-bottom: 0px; overflow-wrap: break-word; background-color: rgb(255, 255, 255); font-size: 14px;&quot; class=&quot;aLF-aPX-K0-aPE&quot;&gt;auditado_plazo_subasanar&lt;/pre&gt;" style="text;strokeColor=none;fillColor=none;align=left;verticalAlign=top;spacingLeft=4;spacingRight=4;overflow=hidden;rotatable=0;points=[[0,0.5],[1,0.5]];portConstraint=eastwest;whiteSpace=wrap;html=1;" parent="v2iRJg3Xfcc0tF-ludr_-126" vertex="1">
          <mxGeometry y="156" width="250" height="26" as="geometry" />
        </mxCell>
        <mxCell id="v2iRJg3Xfcc0tF-ludr_-133" value="&lt;pre style=&quot;user-select: text; font-family: &amp;quot;Courier New&amp;quot;, Courier, monospace, arial, sans-serif; margin-top: 0px; margin-bottom: 0px; overflow-wrap: break-word; background-color: rgb(255, 255, 255); font-size: 14px;&quot; class=&quot;aLF-aPX-K0-aPE&quot;&gt;&lt;pre style=&quot;border-color: var(--border-color); user-select: text; font-family: &amp;quot;Courier New&amp;quot;, Courier, monospace, arial, sans-serif; margin-top: 0px; margin-bottom: 0px; overflow-wrap: break-word;&quot; class=&quot;aLF-aPX-K0-aPE&quot;&gt;auditado_archivos_adjuntos&lt;/pre&gt;&lt;/pre&gt;" style="text;strokeColor=none;fillColor=none;align=left;verticalAlign=top;spacingLeft=4;spacingRight=4;overflow=hidden;rotatable=0;points=[[0,0.5],[1,0.5]];portConstraint=eastwest;whiteSpace=wrap;html=1;" parent="v2iRJg3Xfcc0tF-ludr_-126" vertex="1">
          <mxGeometry y="182" width="250" height="26" as="geometry" />
        </mxCell>
        <mxCell id="v2iRJg3Xfcc0tF-ludr_-132" value="&lt;pre style=&quot;user-select: text; font-family: &amp;quot;Courier New&amp;quot;, Courier, monospace, arial, sans-serif; margin-top: 0px; margin-bottom: 0px; overflow-wrap: break-word; background-color: rgb(255, 255, 255); font-size: 14px;&quot; class=&quot;aLF-aPX-K0-aPE&quot;&gt;&lt;pre style=&quot;border-color: var(--border-color); user-select: text; font-family: &amp;quot;Courier New&amp;quot;, Courier, monospace, arial, sans-serif; margin-top: 0px; margin-bottom: 0px; overflow-wrap: break-word;&quot; class=&quot;aLF-aPX-K0-aPE&quot;&gt;&lt;span style=&quot;white-space: normal;&quot;&gt;auditor_&lt;/span&gt;comentario&lt;/pre&gt;&lt;/pre&gt;" style="text;strokeColor=none;fillColor=none;align=left;verticalAlign=top;spacingLeft=4;spacingRight=4;overflow=hidden;rotatable=0;points=[[0,0.5],[1,0.5]];portConstraint=eastwest;whiteSpace=wrap;html=1;" parent="v2iRJg3Xfcc0tF-ludr_-126" vertex="1">
          <mxGeometry y="208" width="250" height="26" as="geometry" />
        </mxCell>
        <mxCell id="v2iRJg3Xfcc0tF-ludr_-131" value="&lt;pre style=&quot;user-select: text; font-family: &amp;quot;Courier New&amp;quot;, Courier, monospace, arial, sans-serif; margin-top: 0px; margin-bottom: 0px; overflow-wrap: break-word; background-color: rgb(255, 255, 255); font-size: 14px;&quot; class=&quot;aLF-aPX-K0-aPE&quot;&gt;&lt;pre style=&quot;border-color: var(--border-color); user-select: text; font-family: &amp;quot;Courier New&amp;quot;, Courier, monospace, arial, sans-serif; margin-top: 0px; margin-bottom: 0px; overflow-wrap: break-word;&quot; class=&quot;aLF-aPX-K0-aPE&quot;&gt;&lt;span style=&quot;white-space: normal;&quot;&gt;auditor_aprobacion&lt;/span&gt;&lt;/pre&gt;&lt;/pre&gt;" style="text;strokeColor=none;fillColor=none;align=left;verticalAlign=top;spacingLeft=4;spacingRight=4;overflow=hidden;rotatable=0;points=[[0,0.5],[1,0.5]];portConstraint=eastwest;whiteSpace=wrap;html=1;" parent="v2iRJg3Xfcc0tF-ludr_-126" vertex="1">
          <mxGeometry y="234" width="250" height="26" as="geometry" />
        </mxCell>
        <mxCell id="zRA_gL1lxdrGA0FTlB0p-17" value="&lt;span style=&quot;font-family: &amp;quot;Courier New&amp;quot;; font-size: 14px;&quot;&gt;auditor_&lt;/span&gt;&lt;font face=&quot;Courier New&quot; style=&quot;font-size: 14px;&quot;&gt;fecha_resp&lt;/font&gt;" style="text;strokeColor=none;fillColor=none;align=left;verticalAlign=top;spacingLeft=4;spacingRight=4;overflow=hidden;rotatable=0;points=[[0,0.5],[1,0.5]];portConstraint=eastwest;whiteSpace=wrap;html=1;" parent="v2iRJg3Xfcc0tF-ludr_-126" vertex="1">
          <mxGeometry y="260" width="250" height="26" as="geometry" />
        </mxCell>
        <mxCell id="v2iRJg3Xfcc0tF-ludr_-144" value="&lt;pre style=&quot;user-select: text; font-family: &amp;quot;Courier New&amp;quot;, Courier, monospace, arial, sans-serif; margin-top: 0px; margin-bottom: 0px; overflow-wrap: break-word; background-color: rgb(255, 255, 255); font-size: 14px;&quot; class=&quot;aLF-aPX-K0-aPE&quot;&gt;documentos&lt;/pre&gt;" style="text;strokeColor=#36393d;fillColor=#cdeb8b;align=left;verticalAlign=top;spacingLeft=4;spacingRight=4;overflow=hidden;rotatable=0;points=[[0,0.5],[1,0.5]];portConstraint=eastwest;whiteSpace=wrap;html=1;" parent="v2iRJg3Xfcc0tF-ludr_-126" vertex="1">
          <mxGeometry y="286" width="250" height="26" as="geometry" />
        </mxCell>
        <mxCell id="v2iRJg3Xfcc0tF-ludr_-141" value="&lt;pre style=&quot;user-select: text; font-family: &amp;quot;Courier New&amp;quot;, Courier, monospace, arial, sans-serif; margin-top: 0px; margin-bottom: 0px; overflow-wrap: break-word; background-color: rgb(255, 255, 255); font-size: 14px;&quot; class=&quot;aLF-aPX-K0-aPE&quot;&gt;fecha_creacion&lt;/pre&gt;" style="text;strokeColor=none;fillColor=none;align=left;verticalAlign=top;spacingLeft=4;spacingRight=4;overflow=hidden;rotatable=0;points=[[0,0.5],[1,0.5]];portConstraint=eastwest;whiteSpace=wrap;html=1;" parent="v2iRJg3Xfcc0tF-ludr_-126" vertex="1">
          <mxGeometry y="312" width="250" height="26" as="geometry" />
        </mxCell>
        <mxCell id="zRA_gL1lxdrGA0FTlB0p-15" value="&lt;font face=&quot;Courier New&quot; style=&quot;font-size: 14px;&quot;&gt;estado&lt;/font&gt;" style="text;strokeColor=none;fillColor=none;align=left;verticalAlign=top;spacingLeft=4;spacingRight=4;overflow=hidden;rotatable=0;points=[[0,0.5],[1,0.5]];portConstraint=eastwest;whiteSpace=wrap;html=1;" parent="v2iRJg3Xfcc0tF-ludr_-126" vertex="1">
          <mxGeometry y="338" width="250" height="26" as="geometry" />
        </mxCell>
        <mxCell id="v2iRJg3Xfcc0tF-ludr_-128" value="" style="line;strokeWidth=1;fillColor=none;align=left;verticalAlign=middle;spacingTop=-1;spacingLeft=3;spacingRight=3;rotatable=0;labelPosition=right;points=[];portConstraint=eastwest;strokeColor=inherit;" parent="v2iRJg3Xfcc0tF-ludr_-126" vertex="1">
          <mxGeometry y="364" width="250" height="8" as="geometry" />
        </mxCell>
        <mxCell id="v2iRJg3Xfcc0tF-ludr_-129" value="+ method(type): type" style="text;strokeColor=none;fillColor=none;align=left;verticalAlign=top;spacingLeft=4;spacingRight=4;overflow=hidden;rotatable=0;points=[[0,0.5],[1,0.5]];portConstraint=eastwest;whiteSpace=wrap;html=1;" parent="v2iRJg3Xfcc0tF-ludr_-126" vertex="1">
          <mxGeometry y="372" width="250" height="26" as="geometry" />
        </mxCell>
        <mxCell id="v2iRJg3Xfcc0tF-ludr_-159" value="" style="edgeStyle=elbowEdgeStyle;fontSize=12;html=1;endArrow=ERoneToMany;rounded=0;entryX=0;entryY=0.5;entryDx=0;entryDy=0;exitX=1;exitY=0.5;exitDx=0;exitDy=0;" parent="1" source="1lgYtawJcJ5ZMoFz6sz0-43" target="v2iRJg3Xfcc0tF-ludr_-143" edge="1">
          <mxGeometry width="100" height="100" relative="1" as="geometry">
            <mxPoint x="1497" y="586" as="sourcePoint" />
            <mxPoint x="1897" y="636" as="targetPoint" />
            <Array as="points" />
          </mxGeometry>
        </mxCell>
        <mxCell id="1lgYtawJcJ5ZMoFz6sz0-5" value="&lt;pre style=&quot;border-color: var(--border-color); user-select: text; font-family: &amp;quot;Courier New&amp;quot;, Courier, monospace, arial, sans-serif; margin-top: 0px; margin-bottom: 0px; overflow-wrap: break-word; background-color: rgb(255, 255, 255); font-size: 14px; font-weight: 400; text-align: left;&quot; class=&quot;aLF-aPX-K0-aPE&quot;&gt;auditorias&lt;/pre&gt;" style="swimlane;fontStyle=1;align=center;verticalAlign=top;childLayout=stackLayout;horizontal=1;startSize=26;horizontalStack=0;resizeParent=1;resizeParentMax=0;resizeLast=0;collapsible=1;marginBottom=0;whiteSpace=wrap;html=1;" parent="1" vertex="1">
          <mxGeometry x="1270" y="80" width="230" height="398" as="geometry" />
        </mxCell>
        <mxCell id="1lgYtawJcJ5ZMoFz6sz0-6" value="&lt;pre style=&quot;border-color: var(--border-color); user-select: text; font-family: &amp;quot;Courier New&amp;quot;, Courier, monospace, arial, sans-serif; margin-top: 0px; margin-bottom: 0px; overflow-wrap: break-word; background-color: rgb(255, 255, 255); font-size: 14px;&quot; class=&quot;aLF-aPX-K0-aPE&quot;&gt;id_auditoria&lt;/pre&gt;" style="text;strokeColor=none;fillColor=none;align=left;verticalAlign=top;spacingLeft=4;spacingRight=4;overflow=hidden;rotatable=0;points=[[0,0.5],[1,0.5]];portConstraint=eastwest;whiteSpace=wrap;html=1;" parent="1lgYtawJcJ5ZMoFz6sz0-5" vertex="1">
          <mxGeometry y="26" width="230" height="26" as="geometry" />
        </mxCell>
        <mxCell id="1lgYtawJcJ5ZMoFz6sz0-11" value="&lt;pre style=&quot;border-color: var(--border-color); user-select: text; font-family: &amp;quot;Courier New&amp;quot;, Courier, monospace, arial, sans-serif; margin-top: 0px; margin-bottom: 0px; overflow-wrap: break-word; background-color: rgb(255, 255, 255); font-size: 14px;&quot; class=&quot;aLF-aPX-K0-aPE&quot;&gt;id_actividad&lt;/pre&gt;" style="text;strokeColor=none;fillColor=none;align=left;verticalAlign=top;spacingLeft=4;spacingRight=4;overflow=hidden;rotatable=0;points=[[0,0.5],[1,0.5]];portConstraint=eastwest;whiteSpace=wrap;html=1;" parent="1lgYtawJcJ5ZMoFz6sz0-5" vertex="1">
          <mxGeometry y="52" width="230" height="26" as="geometry" />
        </mxCell>
        <mxCell id="v2iRJg3Xfcc0tF-ludr_-78" value="&lt;pre style=&quot;user-select: text; font-family: &amp;quot;Courier New&amp;quot;, Courier, monospace, arial, sans-serif; margin-top: 0px; margin-bottom: 0px; overflow-wrap: break-word; background-color: rgb(255, 255, 255); font-size: 14px;&quot; class=&quot;aLF-aPX-K0-aPE&quot;&gt;etapa&lt;/pre&gt;" style="text;strokeColor=none;fillColor=none;align=left;verticalAlign=top;spacingLeft=4;spacingRight=4;overflow=hidden;rotatable=0;points=[[0,0.5],[1,0.5]];portConstraint=eastwest;whiteSpace=wrap;html=1;" parent="1lgYtawJcJ5ZMoFz6sz0-5" vertex="1">
          <mxGeometry y="78" width="230" height="26" as="geometry" />
        </mxCell>
        <mxCell id="1lgYtawJcJ5ZMoFz6sz0-10" value="&lt;font face=&quot;Courier New&quot; style=&quot;font-size: 14px;&quot;&gt;tipo&lt;/font&gt;" style="text;strokeColor=none;fillColor=none;align=left;verticalAlign=top;spacingLeft=4;spacingRight=4;overflow=hidden;rotatable=0;points=[[0,0.5],[1,0.5]];portConstraint=eastwest;whiteSpace=wrap;html=1;" parent="1lgYtawJcJ5ZMoFz6sz0-5" vertex="1">
          <mxGeometry y="104" width="230" height="26" as="geometry" />
        </mxCell>
        <mxCell id="v2iRJg3Xfcc0tF-ludr_-79" value="&lt;pre style=&quot;user-select: text; font-family: &amp;quot;Courier New&amp;quot;, Courier, monospace, arial, sans-serif; margin-top: 0px; margin-bottom: 0px; overflow-wrap: break-word; background-color: rgb(255, 255, 255); font-size: 14px;&quot; class=&quot;aLF-aPX-K0-aPE&quot;&gt;titulo&lt;/pre&gt;" style="text;strokeColor=none;fillColor=none;align=left;verticalAlign=top;spacingLeft=4;spacingRight=4;overflow=hidden;rotatable=0;points=[[0,0.5],[1,0.5]];portConstraint=eastwest;whiteSpace=wrap;html=1;" parent="1lgYtawJcJ5ZMoFz6sz0-5" vertex="1">
          <mxGeometry y="130" width="230" height="26" as="geometry" />
        </mxCell>
        <mxCell id="dZusn4wj0V5rwVi1F2iV-1" value="&lt;pre style=&quot;user-select: text; font-family: &amp;quot;Courier New&amp;quot;, Courier, monospace, arial, sans-serif; margin-top: 0px; margin-bottom: 0px; overflow-wrap: break-word; background-color: rgb(255, 255, 255); font-size: 14px;&quot; class=&quot;aLF-aPX-K0-aPE&quot;&gt;sucursal&lt;/pre&gt;" style="text;strokeColor=none;fillColor=none;align=left;verticalAlign=top;spacingLeft=4;spacingRight=4;overflow=hidden;rotatable=0;points=[[0,0.5],[1,0.5]];portConstraint=eastwest;whiteSpace=wrap;html=1;" parent="1lgYtawJcJ5ZMoFz6sz0-5" vertex="1">
          <mxGeometry y="156" width="230" height="26" as="geometry" />
        </mxCell>
        <mxCell id="lcfuUG2EUXc0XpPvngMS-30" value="&lt;font style=&quot;font-size: 14px;&quot; face=&quot;Courier New&quot;&gt;origen&lt;/font&gt;" style="text;align=left;verticalAlign=top;spacingLeft=4;spacingRight=4;overflow=hidden;rotatable=0;points=[[0,0.5],[1,0.5]];portConstraint=eastwest;whiteSpace=wrap;html=1;" parent="1lgYtawJcJ5ZMoFz6sz0-5" vertex="1">
          <mxGeometry y="182" width="230" height="26" as="geometry" />
        </mxCell>
        <mxCell id="1lgYtawJcJ5ZMoFz6sz0-16" value="&lt;font style=&quot;font-size: 14px;&quot; face=&quot;Courier New&quot;&gt;cronograma&lt;/font&gt;" style="text;align=left;verticalAlign=top;spacingLeft=4;spacingRight=4;overflow=hidden;rotatable=0;points=[[0,0.5],[1,0.5]];portConstraint=eastwest;whiteSpace=wrap;html=1;" parent="1lgYtawJcJ5ZMoFz6sz0-5" vertex="1">
          <mxGeometry y="208" width="230" height="26" as="geometry" />
        </mxCell>
        <mxCell id="v2iRJg3Xfcc0tF-ludr_-82" value="&lt;pre style=&quot;user-select: text; font-family: &amp;quot;Courier New&amp;quot;, Courier, monospace, arial, sans-serif; margin-top: 0px; margin-bottom: 0px; overflow-wrap: break-word; background-color: rgb(255, 255, 255); font-size: 14px;&quot; class=&quot;aLF-aPX-K0-aPE&quot;&gt;aprobacion_planificacion&lt;/pre&gt;" style="text;strokeColor=#36393d;fillColor=#ffff88;align=left;verticalAlign=top;spacingLeft=4;spacingRight=4;overflow=hidden;rotatable=0;points=[[0,0.5],[1,0.5]];portConstraint=eastwest;whiteSpace=wrap;html=1;" parent="1lgYtawJcJ5ZMoFz6sz0-5" vertex="1">
          <mxGeometry y="234" width="230" height="26" as="geometry" />
        </mxCell>
        <mxCell id="v2iRJg3Xfcc0tF-ludr_-81" value="&lt;pre style=&quot;user-select: text; font-family: &amp;quot;Courier New&amp;quot;, Courier, monospace, arial, sans-serif; margin-top: 0px; margin-bottom: 0px; overflow-wrap: break-word; background-color: rgb(255, 255, 255); font-size: 14px;&quot; class=&quot;aLF-aPX-K0-aPE&quot;&gt;aprobacion_ejecucion&lt;/pre&gt;" style="text;strokeColor=#36393d;fillColor=#ffff88;align=left;verticalAlign=top;spacingLeft=4;spacingRight=4;overflow=hidden;rotatable=0;points=[[0,0.5],[1,0.5]];portConstraint=eastwest;whiteSpace=wrap;html=1;" parent="1lgYtawJcJ5ZMoFz6sz0-5" vertex="1">
          <mxGeometry y="260" width="230" height="26" as="geometry" />
        </mxCell>
        <mxCell id="v2iRJg3Xfcc0tF-ludr_-83" value="&lt;pre style=&quot;user-select: text; font-family: &amp;quot;Courier New&amp;quot;, Courier, monospace, arial, sans-serif; margin-top: 0px; margin-bottom: 0px; overflow-wrap: break-word; background-color: rgb(255, 255, 255); font-size: 14px;&quot; class=&quot;aLF-aPX-K0-aPE&quot;&gt;documentos&lt;/pre&gt;" style="text;strokeColor=#36393d;fillColor=#cdeb8b;align=left;verticalAlign=top;spacingLeft=4;spacingRight=4;overflow=hidden;rotatable=0;points=[[0,0.5],[1,0.5]];portConstraint=eastwest;whiteSpace=wrap;html=1;" parent="1lgYtawJcJ5ZMoFz6sz0-5" vertex="1">
          <mxGeometry y="286" width="230" height="26" as="geometry" />
        </mxCell>
        <mxCell id="zRA_gL1lxdrGA0FTlB0p-67" value="&lt;font face=&quot;Courier New&quot; style=&quot;font-size: 14px;&quot;&gt;fecha_creacion&lt;/font&gt;" style="text;strokeColor=none;fillColor=none;align=left;verticalAlign=top;spacingLeft=4;spacingRight=4;overflow=hidden;rotatable=0;points=[[0,0.5],[1,0.5]];portConstraint=eastwest;whiteSpace=wrap;html=1;" parent="1lgYtawJcJ5ZMoFz6sz0-5" vertex="1">
          <mxGeometry y="312" width="230" height="26" as="geometry" />
        </mxCell>
        <mxCell id="zRA_gL1lxdrGA0FTlB0p-12" value="&lt;font face=&quot;Courier New&quot; style=&quot;font-size: 14px;&quot;&gt;estado&lt;/font&gt;" style="text;strokeColor=none;fillColor=none;align=left;verticalAlign=top;spacingLeft=4;spacingRight=4;overflow=hidden;rotatable=0;points=[[0,0.5],[1,0.5]];portConstraint=eastwest;whiteSpace=wrap;html=1;" parent="1lgYtawJcJ5ZMoFz6sz0-5" vertex="1">
          <mxGeometry y="338" width="230" height="26" as="geometry" />
        </mxCell>
        <mxCell id="1lgYtawJcJ5ZMoFz6sz0-7" value="" style="line;strokeWidth=1;fillColor=none;align=left;verticalAlign=middle;spacingTop=-1;spacingLeft=3;spacingRight=3;rotatable=0;labelPosition=right;points=[];portConstraint=eastwest;strokeColor=inherit;" parent="1lgYtawJcJ5ZMoFz6sz0-5" vertex="1">
          <mxGeometry y="364" width="230" height="8" as="geometry" />
        </mxCell>
        <mxCell id="1lgYtawJcJ5ZMoFz6sz0-8" value="+ method(type): type" style="text;strokeColor=none;fillColor=none;align=left;verticalAlign=top;spacingLeft=4;spacingRight=4;overflow=hidden;rotatable=0;points=[[0,0.5],[1,0.5]];portConstraint=eastwest;whiteSpace=wrap;html=1;" parent="1lgYtawJcJ5ZMoFz6sz0-5" vertex="1">
          <mxGeometry y="372" width="230" height="26" as="geometry" />
        </mxCell>
        <mxCell id="1lgYtawJcJ5ZMoFz6sz0-13" value="" style="endArrow=none;html=1;rounded=0;entryX=0;entryY=0.5;entryDx=0;entryDy=0;exitX=1;exitY=0.5;exitDx=0;exitDy=0;edgeStyle=orthogonalEdgeStyle;" parent="1" source="v2iRJg3Xfcc0tF-ludr_-60" target="1lgYtawJcJ5ZMoFz6sz0-11" edge="1">
          <mxGeometry relative="1" as="geometry">
            <mxPoint x="1070" y="251" as="sourcePoint" />
            <mxPoint x="1230" y="251" as="targetPoint" />
          </mxGeometry>
        </mxCell>
        <mxCell id="1lgYtawJcJ5ZMoFz6sz0-22" value="" style="endArrow=none;html=1;rounded=0;edgeStyle=elbowEdgeStyle;entryX=0;entryY=0.5;entryDx=0;entryDy=0;exitX=1;exitY=0.5;exitDx=0;exitDy=0;" parent="1" source="1lgYtawJcJ5ZMoFz6sz0-6" target="1lgYtawJcJ5ZMoFz6sz0-20" edge="1">
          <mxGeometry relative="1" as="geometry">
            <mxPoint x="1560" y="70" as="sourcePoint" />
            <mxPoint x="1220" y="50" as="targetPoint" />
            <Array as="points">
              <mxPoint x="1620" y="-90" />
            </Array>
          </mxGeometry>
        </mxCell>
        <mxCell id="1lgYtawJcJ5ZMoFz6sz0-24" value="&lt;pre style=&quot;user-select: text; font-family: &amp;quot;Courier New&amp;quot;, Courier, monospace, arial, sans-serif; margin-top: 0px; margin-bottom: 0px; overflow-wrap: break-word; background-color: rgb(255, 255, 255); font-size: 14px; font-weight: 400; text-align: left;&quot; class=&quot;aLF-aPX-K0-aPE&quot;&gt;part_ejecucion&lt;/pre&gt;" style="swimlane;fontStyle=1;align=center;verticalAlign=top;childLayout=stackLayout;horizontal=1;startSize=26;horizontalStack=0;resizeParent=1;resizeParentMax=0;resizeLast=0;collapsible=1;marginBottom=0;whiteSpace=wrap;html=1;" parent="1" vertex="1">
          <mxGeometry x="1250" y="-216" width="230" height="216" as="geometry" />
        </mxCell>
        <mxCell id="1lgYtawJcJ5ZMoFz6sz0-25" value="&lt;pre style=&quot;user-select: text; font-family: &amp;quot;Courier New&amp;quot;, Courier, monospace, arial, sans-serif; margin-top: 0px; margin-bottom: 0px; overflow-wrap: break-word; background-color: rgb(255, 255, 255); font-size: 14px;&quot; class=&quot;aLF-aPX-K0-aPE&quot;&gt;id_part_ejec&lt;/pre&gt;" style="text;strokeColor=none;fillColor=none;align=left;verticalAlign=top;spacingLeft=4;spacingRight=4;overflow=hidden;rotatable=0;points=[[0,0.5],[1,0.5]];portConstraint=eastwest;whiteSpace=wrap;html=1;" parent="1lgYtawJcJ5ZMoFz6sz0-24" vertex="1">
          <mxGeometry y="26" width="230" height="26" as="geometry" />
        </mxCell>
        <mxCell id="1lgYtawJcJ5ZMoFz6sz0-29" value="&lt;pre style=&quot;user-select: text; font-family: &amp;quot;Courier New&amp;quot;, Courier, monospace, arial, sans-serif; margin-top: 0px; margin-bottom: 0px; overflow-wrap: break-word; background-color: rgb(255, 255, 255); font-size: 14px;&quot; class=&quot;aLF-aPX-K0-aPE&quot;&gt;id_usuario&lt;/pre&gt;" style="text;strokeColor=none;fillColor=none;align=left;verticalAlign=top;spacingLeft=4;spacingRight=4;overflow=hidden;rotatable=0;points=[[0,0.5],[1,0.5]];portConstraint=eastwest;whiteSpace=wrap;html=1;" parent="1lgYtawJcJ5ZMoFz6sz0-24" vertex="1">
          <mxGeometry y="52" width="230" height="26" as="geometry" />
        </mxCell>
        <mxCell id="1lgYtawJcJ5ZMoFz6sz0-28" value="&lt;pre style=&quot;user-select: text; font-family: &amp;quot;Courier New&amp;quot;, Courier, monospace, arial, sans-serif; margin-top: 0px; margin-bottom: 0px; overflow-wrap: break-word; background-color: rgb(255, 255, 255); font-size: 14px;&quot; class=&quot;aLF-aPX-K0-aPE&quot;&gt;id_auditoria&lt;/pre&gt;" style="text;strokeColor=none;fillColor=none;align=left;verticalAlign=top;spacingLeft=4;spacingRight=4;overflow=hidden;rotatable=0;points=[[0,0.5],[1,0.5]];portConstraint=eastwest;whiteSpace=wrap;html=1;" parent="1lgYtawJcJ5ZMoFz6sz0-24" vertex="1">
          <mxGeometry y="78" width="230" height="26" as="geometry" />
        </mxCell>
        <mxCell id="Lcip7T_UkXhXK0Q2yI7Q-29" value="&lt;font face=&quot;Courier New&quot; style=&quot;font-size: 14px;&quot;&gt;rol&lt;/font&gt;" style="text;align=left;verticalAlign=top;spacingLeft=4;spacingRight=4;overflow=hidden;rotatable=0;points=[[0,0.5],[1,0.5]];portConstraint=eastwest;whiteSpace=wrap;html=1;" parent="1lgYtawJcJ5ZMoFz6sz0-24" vertex="1">
          <mxGeometry y="104" width="230" height="26" as="geometry" />
        </mxCell>
        <mxCell id="zRA_gL1lxdrGA0FTlB0p-69" value="&lt;font face=&quot;Courier New&quot; style=&quot;font-size: 14px;&quot;&gt;fecha_creacion&lt;/font&gt;" style="text;strokeColor=none;fillColor=none;align=left;verticalAlign=top;spacingLeft=4;spacingRight=4;overflow=hidden;rotatable=0;points=[[0,0.5],[1,0.5]];portConstraint=eastwest;whiteSpace=wrap;html=1;" parent="1lgYtawJcJ5ZMoFz6sz0-24" vertex="1">
          <mxGeometry y="130" width="230" height="26" as="geometry" />
        </mxCell>
        <mxCell id="zRA_gL1lxdrGA0FTlB0p-20" value="&lt;font face=&quot;Courier New&quot; style=&quot;font-size: 14px;&quot;&gt;estado&lt;/font&gt;" style="text;strokeColor=none;fillColor=none;align=left;verticalAlign=top;spacingLeft=4;spacingRight=4;overflow=hidden;rotatable=0;points=[[0,0.5],[1,0.5]];portConstraint=eastwest;whiteSpace=wrap;html=1;" parent="1lgYtawJcJ5ZMoFz6sz0-24" vertex="1">
          <mxGeometry y="156" width="230" height="26" as="geometry" />
        </mxCell>
        <mxCell id="1lgYtawJcJ5ZMoFz6sz0-31" value="" style="line;strokeWidth=1;fillColor=none;align=left;verticalAlign=middle;spacingTop=-1;spacingLeft=3;spacingRight=3;rotatable=0;labelPosition=right;points=[];portConstraint=eastwest;strokeColor=inherit;" parent="1lgYtawJcJ5ZMoFz6sz0-24" vertex="1">
          <mxGeometry y="182" width="230" height="8" as="geometry" />
        </mxCell>
        <mxCell id="1lgYtawJcJ5ZMoFz6sz0-32" value="+ method(type): type" style="text;strokeColor=none;fillColor=none;align=left;verticalAlign=top;spacingLeft=4;spacingRight=4;overflow=hidden;rotatable=0;points=[[0,0.5],[1,0.5]];portConstraint=eastwest;whiteSpace=wrap;html=1;" parent="1lgYtawJcJ5ZMoFz6sz0-24" vertex="1">
          <mxGeometry y="190" width="230" height="26" as="geometry" />
        </mxCell>
        <mxCell id="1lgYtawJcJ5ZMoFz6sz0-35" value="" style="endArrow=none;html=1;rounded=0;exitX=0;exitY=0.5;exitDx=0;exitDy=0;edgeStyle=elbowEdgeStyle;entryX=0;entryY=0.5;entryDx=0;entryDy=0;" parent="1" source="v2iRJg3Xfcc0tF-ludr_-123" target="v2iRJg3Xfcc0tF-ludr_-49" edge="1">
          <mxGeometry relative="1" as="geometry">
            <mxPoint x="1240" y="30" as="sourcePoint" />
            <mxPoint x="620" y="170" as="targetPoint" />
            <Array as="points">
              <mxPoint x="700" y="40" />
            </Array>
          </mxGeometry>
        </mxCell>
        <mxCell id="1lgYtawJcJ5ZMoFz6sz0-36" value="" style="endArrow=none;html=1;rounded=0;entryX=1;entryY=0.5;entryDx=0;entryDy=0;exitX=1;exitY=0.5;exitDx=0;exitDy=0;edgeStyle=elbowEdgeStyle;" parent="1" source="1lgYtawJcJ5ZMoFz6sz0-6" target="1lgYtawJcJ5ZMoFz6sz0-28" edge="1">
          <mxGeometry relative="1" as="geometry">
            <mxPoint x="1000" y="120" as="sourcePoint" />
            <mxPoint x="1160" y="120" as="targetPoint" />
            <Array as="points">
              <mxPoint x="1540" y="40" />
            </Array>
          </mxGeometry>
        </mxCell>
        <mxCell id="1lgYtawJcJ5ZMoFz6sz0-39" value="" style="endArrow=none;html=1;rounded=0;entryX=0;entryY=0.5;entryDx=0;entryDy=0;exitX=1;exitY=0.5;exitDx=0;exitDy=0;edgeStyle=elbowEdgeStyle;" parent="1" source="v2iRJg3Xfcc0tF-ludr_-2" target="1lgYtawJcJ5ZMoFz6sz0-29" edge="1">
          <mxGeometry relative="1" as="geometry">
            <mxPoint x="1030" y="-180" as="sourcePoint" />
            <mxPoint x="1190" y="-180" as="targetPoint" />
            <Array as="points">
              <mxPoint x="1220" y="-350" />
            </Array>
          </mxGeometry>
        </mxCell>
        <mxCell id="1lgYtawJcJ5ZMoFz6sz0-40" value="" style="endArrow=none;html=1;rounded=0;exitX=1;exitY=0.5;exitDx=0;exitDy=0;entryX=0;entryY=0.5;entryDx=0;entryDy=0;edgeStyle=elbowEdgeStyle;" parent="1" source="v2iRJg3Xfcc0tF-ludr_-121" target="v2iRJg3Xfcc0tF-ludr_-2" edge="1">
          <mxGeometry relative="1" as="geometry">
            <mxPoint x="1030" y="-180" as="sourcePoint" />
            <mxPoint x="1190" y="-180" as="targetPoint" />
            <Array as="points">
              <mxPoint x="1000" y="-370" />
            </Array>
          </mxGeometry>
        </mxCell>
        <mxCell id="1lgYtawJcJ5ZMoFz6sz0-42" value="&lt;pre style=&quot;user-select: text; font-family: &amp;quot;Courier New&amp;quot;, Courier, monospace, arial, sans-serif; margin-top: 0px; margin-bottom: 0px; overflow-wrap: break-word; background-color: rgb(255, 255, 255); font-size: 14px; font-weight: 400; text-align: left;&quot; class=&quot;aLF-aPX-K0-aPE&quot;&gt;resp_observacion&lt;/pre&gt;" style="swimlane;fontStyle=1;align=center;verticalAlign=top;childLayout=stackLayout;horizontal=1;startSize=26;horizontalStack=0;resizeParent=1;resizeParentMax=0;resizeLast=0;collapsible=1;marginBottom=0;whiteSpace=wrap;html=1;" parent="1" vertex="1">
          <mxGeometry x="1894" y="552" width="270" height="424" as="geometry" />
        </mxCell>
        <mxCell id="1lgYtawJcJ5ZMoFz6sz0-43" value="&lt;pre style=&quot;user-select: text; font-family: &amp;quot;Courier New&amp;quot;, Courier, monospace, arial, sans-serif; margin-top: 0px; margin-bottom: 0px; overflow-wrap: break-word; background-color: rgb(255, 255, 255); font-size: 14px;&quot; class=&quot;aLF-aPX-K0-aPE&quot;&gt;id_resp_observacion&lt;/pre&gt;" style="text;strokeColor=none;fillColor=none;align=left;verticalAlign=top;spacingLeft=4;spacingRight=4;overflow=hidden;rotatable=0;points=[[0,0.5],[1,0.5]];portConstraint=eastwest;whiteSpace=wrap;html=1;" parent="1lgYtawJcJ5ZMoFz6sz0-42" vertex="1">
          <mxGeometry y="26" width="270" height="26" as="geometry" />
        </mxCell>
        <mxCell id="1lgYtawJcJ5ZMoFz6sz0-44" value="&lt;pre style=&quot;user-select: text; font-family: &amp;quot;Courier New&amp;quot;, Courier, monospace, arial, sans-serif; margin-top: 0px; margin-bottom: 0px; overflow-wrap: break-word; background-color: rgb(255, 255, 255); font-size: 14px;&quot; class=&quot;aLF-aPX-K0-aPE&quot;&gt;id_observacion&lt;/pre&gt;" style="text;strokeColor=none;fillColor=none;align=left;verticalAlign=top;spacingLeft=4;spacingRight=4;overflow=hidden;rotatable=0;points=[[0,0.5],[1,0.5]];portConstraint=eastwest;whiteSpace=wrap;html=1;" parent="1lgYtawJcJ5ZMoFz6sz0-42" vertex="1">
          <mxGeometry y="52" width="270" height="26" as="geometry" />
        </mxCell>
        <mxCell id="1lgYtawJcJ5ZMoFz6sz0-48" value="&lt;pre style=&quot;user-select: text; font-family: &amp;quot;Courier New&amp;quot;, Courier, monospace, arial, sans-serif; margin-top: 0px; margin-bottom: 0px; overflow-wrap: break-word; background-color: rgb(255, 255, 255); font-size: 14px;&quot; class=&quot;aLF-aPX-K0-aPE&quot;&gt;id_usuario_responsable&lt;/pre&gt;" style="text;strokeColor=none;fillColor=none;align=left;verticalAlign=top;spacingLeft=4;spacingRight=4;overflow=hidden;rotatable=0;points=[[0,0.5],[1,0.5]];portConstraint=eastwest;whiteSpace=wrap;html=1;" parent="1lgYtawJcJ5ZMoFz6sz0-42" vertex="1">
          <mxGeometry y="78" width="270" height="26" as="geometry" />
        </mxCell>
        <mxCell id="1lgYtawJcJ5ZMoFz6sz0-49" value="&lt;pre style=&quot;user-select: text; font-family: &amp;quot;Courier New&amp;quot;, Courier, monospace, arial, sans-serif; margin-top: 0px; margin-bottom: 0px; overflow-wrap: break-word; background-color: rgb(255, 255, 255); font-size: 14px;&quot; class=&quot;aLF-aPX-K0-aPE&quot;&gt;&lt;span style=&quot;white-space: normal;&quot;&gt;auditado_&lt;/span&gt;comentario&lt;/pre&gt;" style="text;strokeColor=none;fillColor=none;align=left;verticalAlign=top;spacingLeft=4;spacingRight=4;overflow=hidden;rotatable=0;points=[[0,0.5],[1,0.5]];portConstraint=eastwest;whiteSpace=wrap;html=1;" parent="1lgYtawJcJ5ZMoFz6sz0-42" vertex="1">
          <mxGeometry y="104" width="270" height="26" as="geometry" />
        </mxCell>
        <mxCell id="1lgYtawJcJ5ZMoFz6sz0-50" value="&lt;pre style=&quot;user-select: text; font-family: &amp;quot;Courier New&amp;quot;, Courier, monospace, arial, sans-serif; margin-top: 0px; margin-bottom: 0px; overflow-wrap: break-word; background-color: rgb(255, 255, 255); font-size: 14px;&quot; class=&quot;aLF-aPX-K0-aPE&quot;&gt;&lt;span style=&quot;white-space: normal;&quot;&gt;auditado_&lt;/span&gt;medidas_correctivas&lt;/pre&gt;" style="text;strokeColor=none;fillColor=none;align=left;verticalAlign=top;spacingLeft=4;spacingRight=4;overflow=hidden;rotatable=0;points=[[0,0.5],[1,0.5]];portConstraint=eastwest;whiteSpace=wrap;html=1;" parent="1lgYtawJcJ5ZMoFz6sz0-42" vertex="1">
          <mxGeometry y="130" width="270" height="26" as="geometry" />
        </mxCell>
        <mxCell id="1lgYtawJcJ5ZMoFz6sz0-51" value="&lt;pre style=&quot;user-select: text; font-family: &amp;quot;Courier New&amp;quot;, Courier, monospace, arial, sans-serif; margin-top: 0px; margin-bottom: 0px; overflow-wrap: break-word; background-color: rgb(255, 255, 255); font-size: 14px;&quot; class=&quot;aLF-aPX-K0-aPE&quot;&gt;auditado_plazo_subsanar&lt;/pre&gt;" style="text;strokeColor=none;fillColor=none;align=left;verticalAlign=top;spacingLeft=4;spacingRight=4;overflow=hidden;rotatable=0;points=[[0,0.5],[1,0.5]];portConstraint=eastwest;whiteSpace=wrap;html=1;" parent="1lgYtawJcJ5ZMoFz6sz0-42" vertex="1">
          <mxGeometry y="156" width="270" height="26" as="geometry" />
        </mxCell>
        <mxCell id="1lgYtawJcJ5ZMoFz6sz0-54" value="&lt;pre style=&quot;user-select: text; font-family: &amp;quot;Courier New&amp;quot;, Courier, monospace, arial, sans-serif; margin-top: 0px; margin-bottom: 0px; overflow-wrap: break-word; background-color: rgb(255, 255, 255); font-size: 14px;&quot; class=&quot;aLF-aPX-K0-aPE&quot;&gt;auditado_archivos_adjuntos&lt;/pre&gt;" style="text;strokeColor=none;fillColor=none;align=left;verticalAlign=top;spacingLeft=4;spacingRight=4;overflow=hidden;rotatable=0;points=[[0,0.5],[1,0.5]];portConstraint=eastwest;whiteSpace=wrap;html=1;" parent="1lgYtawJcJ5ZMoFz6sz0-42" vertex="1">
          <mxGeometry y="182" width="270" height="26" as="geometry" />
        </mxCell>
        <mxCell id="1lgYtawJcJ5ZMoFz6sz0-53" value="&lt;pre style=&quot;user-select: text; font-family: &amp;quot;Courier New&amp;quot;, Courier, monospace, arial, sans-serif; margin-top: 0px; margin-bottom: 0px; overflow-wrap: break-word; background-color: rgb(255, 255, 255); font-size: 14px;&quot; class=&quot;aLF-aPX-K0-aPE&quot;&gt;&lt;span style=&quot;white-space: normal;&quot;&gt;auditor_&lt;/span&gt;comentario&lt;/pre&gt;" style="text;strokeColor=none;fillColor=none;align=left;verticalAlign=top;spacingLeft=4;spacingRight=4;overflow=hidden;rotatable=0;points=[[0,0.5],[1,0.5]];portConstraint=eastwest;whiteSpace=wrap;html=1;" parent="1lgYtawJcJ5ZMoFz6sz0-42" vertex="1">
          <mxGeometry y="208" width="270" height="26" as="geometry" />
        </mxCell>
        <mxCell id="1lgYtawJcJ5ZMoFz6sz0-56" value="&lt;pre style=&quot;user-select: text; font-family: &amp;quot;Courier New&amp;quot;, Courier, monospace, arial, sans-serif; margin-top: 0px; margin-bottom: 0px; overflow-wrap: break-word; background-color: rgb(255, 255, 255); font-size: 14px;&quot; class=&quot;aLF-aPX-K0-aPE&quot;&gt;&lt;span style=&quot;white-space: normal;&quot;&gt;auditor_&lt;/span&gt;aprobacion&lt;/pre&gt;" style="text;strokeColor=none;fillColor=none;align=left;verticalAlign=top;spacingLeft=4;spacingRight=4;overflow=hidden;rotatable=0;points=[[0,0.5],[1,0.5]];portConstraint=eastwest;whiteSpace=wrap;html=1;" parent="1lgYtawJcJ5ZMoFz6sz0-42" vertex="1">
          <mxGeometry y="234" width="270" height="26" as="geometry" />
        </mxCell>
        <mxCell id="TRtConVOSURS0k0011Dr-2" value="&lt;font style=&quot;font-size: 14px;&quot; face=&quot;Courier New&quot;&gt;auditor_requiere_seg&lt;/font&gt;" style="text;strokeColor=none;fillColor=none;align=left;verticalAlign=top;spacingLeft=4;spacingRight=4;overflow=hidden;rotatable=0;points=[[0,0.5],[1,0.5]];portConstraint=eastwest;whiteSpace=wrap;html=1;" parent="1lgYtawJcJ5ZMoFz6sz0-42" vertex="1">
          <mxGeometry y="260" width="270" height="26" as="geometry" />
        </mxCell>
        <mxCell id="zRA_gL1lxdrGA0FTlB0p-16" value="&lt;span style=&quot;font-family: &amp;quot;Courier New&amp;quot;; font-size: 14px;&quot;&gt;auditor_&lt;/span&gt;&lt;font face=&quot;Courier New&quot; style=&quot;font-size: 14px;&quot;&gt;fecha_resp&lt;/font&gt;" style="text;strokeColor=none;fillColor=none;align=left;verticalAlign=top;spacingLeft=4;spacingRight=4;overflow=hidden;rotatable=0;points=[[0,0.5],[1,0.5]];portConstraint=eastwest;whiteSpace=wrap;html=1;" parent="1lgYtawJcJ5ZMoFz6sz0-42" vertex="1">
          <mxGeometry y="286" width="270" height="26" as="geometry" />
        </mxCell>
        <mxCell id="1lgYtawJcJ5ZMoFz6sz0-58" value="&lt;pre style=&quot;user-select: text; font-family: &amp;quot;Courier New&amp;quot;, Courier, monospace, arial, sans-serif; margin-top: 0px; margin-bottom: 0px; overflow-wrap: break-word; background-color: rgb(255, 255, 255); font-size: 14px;&quot; class=&quot;aLF-aPX-K0-aPE&quot;&gt;documentos&lt;/pre&gt;" style="text;strokeColor=#36393d;fillColor=#cdeb8b;align=left;verticalAlign=top;spacingLeft=4;spacingRight=4;overflow=hidden;rotatable=0;points=[[0,0.5],[1,0.5]];portConstraint=eastwest;whiteSpace=wrap;html=1;" parent="1lgYtawJcJ5ZMoFz6sz0-42" vertex="1">
          <mxGeometry y="312" width="270" height="26" as="geometry" />
        </mxCell>
        <mxCell id="1lgYtawJcJ5ZMoFz6sz0-46" value="&lt;pre style=&quot;user-select: text; font-family: &amp;quot;Courier New&amp;quot;, Courier, monospace, arial, sans-serif; margin-top: 0px; margin-bottom: 0px; overflow-wrap: break-word; background-color: rgb(255, 255, 255); font-size: 14px;&quot; class=&quot;aLF-aPX-K0-aPE&quot;&gt;fecha_creacion&lt;/pre&gt;" style="text;strokeColor=none;fillColor=none;align=left;verticalAlign=top;spacingLeft=4;spacingRight=4;overflow=hidden;rotatable=0;points=[[0,0.5],[1,0.5]];portConstraint=eastwest;whiteSpace=wrap;html=1;" parent="1lgYtawJcJ5ZMoFz6sz0-42" vertex="1">
          <mxGeometry y="338" width="270" height="26" as="geometry" />
        </mxCell>
        <mxCell id="zRA_gL1lxdrGA0FTlB0p-14" value="&lt;font face=&quot;Courier New&quot; style=&quot;font-size: 14px;&quot;&gt;estado&lt;/font&gt;" style="text;strokeColor=none;fillColor=none;align=left;verticalAlign=top;spacingLeft=4;spacingRight=4;overflow=hidden;rotatable=0;points=[[0,0.5],[1,0.5]];portConstraint=eastwest;whiteSpace=wrap;html=1;" parent="1lgYtawJcJ5ZMoFz6sz0-42" vertex="1">
          <mxGeometry y="364" width="270" height="26" as="geometry" />
        </mxCell>
        <mxCell id="1lgYtawJcJ5ZMoFz6sz0-59" value="" style="line;strokeWidth=1;fillColor=none;align=left;verticalAlign=middle;spacingTop=-1;spacingLeft=3;spacingRight=3;rotatable=0;labelPosition=right;points=[];portConstraint=eastwest;strokeColor=inherit;" parent="1lgYtawJcJ5ZMoFz6sz0-42" vertex="1">
          <mxGeometry y="390" width="270" height="8" as="geometry" />
        </mxCell>
        <mxCell id="1lgYtawJcJ5ZMoFz6sz0-60" value="+ method(type): type" style="text;strokeColor=none;fillColor=none;align=left;verticalAlign=top;spacingLeft=4;spacingRight=4;overflow=hidden;rotatable=0;points=[[0,0.5],[1,0.5]];portConstraint=eastwest;whiteSpace=wrap;html=1;" parent="1lgYtawJcJ5ZMoFz6sz0-42" vertex="1">
          <mxGeometry y="398" width="270" height="26" as="geometry" />
        </mxCell>
        <mxCell id="1lgYtawJcJ5ZMoFz6sz0-61" value="" style="endArrow=none;html=1;rounded=0;exitX=1;exitY=0.5;exitDx=0;exitDy=0;entryX=0;entryY=0.5;entryDx=0;entryDy=0;edgeStyle=elbowEdgeStyle;" parent="1" source="v2iRJg3Xfcc0tF-ludr_-100" target="1lgYtawJcJ5ZMoFz6sz0-44" edge="1">
          <mxGeometry relative="1" as="geometry">
            <mxPoint x="1654" y="696" as="sourcePoint" />
            <mxPoint x="1814" y="696" as="targetPoint" />
          </mxGeometry>
        </mxCell>
        <mxCell id="zRA_gL1lxdrGA0FTlB0p-4" value="" style="endArrow=none;html=1;rounded=0;exitX=1;exitY=0.5;exitDx=0;exitDy=0;entryX=0;entryY=0.5;entryDx=0;entryDy=0;edgeStyle=elbowEdgeStyle;" parent="1" source="v2iRJg3Xfcc0tF-ludr_-83" target="v2iRJg3Xfcc0tF-ludr_-88" edge="1">
          <mxGeometry relative="1" as="geometry">
            <mxPoint x="1770" y="400" as="sourcePoint" />
            <mxPoint x="1930" y="400" as="targetPoint" />
            <Array as="points">
              <mxPoint x="1540" y="780" />
            </Array>
          </mxGeometry>
        </mxCell>
        <mxCell id="zRA_gL1lxdrGA0FTlB0p-5" value="" style="endArrow=none;html=1;rounded=0;entryX=1;entryY=0.5;entryDx=0;entryDy=0;edgeStyle=elbowEdgeStyle;exitX=1;exitY=0.5;exitDx=0;exitDy=0;" parent="1" source="1lgYtawJcJ5ZMoFz6sz0-58" target="v2iRJg3Xfcc0tF-ludr_-88" edge="1">
          <mxGeometry relative="1" as="geometry">
            <mxPoint x="2220" y="940" as="sourcePoint" />
            <mxPoint x="1920" y="650" as="targetPoint" />
            <Array as="points">
              <mxPoint x="2200" y="1080" />
            </Array>
          </mxGeometry>
        </mxCell>
        <mxCell id="zRA_gL1lxdrGA0FTlB0p-6" value="" style="endArrow=none;html=1;rounded=0;exitX=1;exitY=0.5;exitDx=0;exitDy=0;entryX=1;entryY=0.5;entryDx=0;entryDy=0;edgeStyle=elbowEdgeStyle;" parent="1" source="v2iRJg3Xfcc0tF-ludr_-88" target="v2iRJg3Xfcc0tF-ludr_-144" edge="1">
          <mxGeometry relative="1" as="geometry">
            <mxPoint x="1760" y="430" as="sourcePoint" />
            <mxPoint x="1920" y="430" as="targetPoint" />
            <Array as="points">
              <mxPoint x="2520" y="1080" />
            </Array>
          </mxGeometry>
        </mxCell>
        <mxCell id="zRA_gL1lxdrGA0FTlB0p-47" value="libros" style="swimlane;fontStyle=1;align=center;verticalAlign=top;childLayout=stackLayout;horizontal=1;startSize=26;horizontalStack=0;resizeParent=1;resizeParentMax=0;resizeLast=0;collapsible=1;marginBottom=0;whiteSpace=wrap;html=1;fontFamily=Courier New;fontSize=14;" parent="1" vertex="1">
          <mxGeometry x="430" y="-930" width="160" height="190" as="geometry" />
        </mxCell>
        <mxCell id="zRA_gL1lxdrGA0FTlB0p-54" value="id_libro" style="text;strokeColor=none;fillColor=none;align=left;verticalAlign=top;spacingLeft=4;spacingRight=4;overflow=hidden;rotatable=0;points=[[0,0.5],[1,0.5]];portConstraint=eastwest;whiteSpace=wrap;html=1;fontFamily=Courier New;fontSize=14;" parent="zRA_gL1lxdrGA0FTlB0p-47" vertex="1">
          <mxGeometry y="26" width="160" height="26" as="geometry" />
        </mxCell>
        <mxCell id="zRA_gL1lxdrGA0FTlB0p-48" value="titulo" style="text;strokeColor=none;fillColor=none;align=left;verticalAlign=top;spacingLeft=4;spacingRight=4;overflow=hidden;rotatable=0;points=[[0,0.5],[1,0.5]];portConstraint=eastwest;whiteSpace=wrap;html=1;fontFamily=Courier New;fontSize=14;" parent="zRA_gL1lxdrGA0FTlB0p-47" vertex="1">
          <mxGeometry y="52" width="160" height="26" as="geometry" />
        </mxCell>
        <mxCell id="zRA_gL1lxdrGA0FTlB0p-51" value="area" style="text;strokeColor=none;fillColor=none;align=left;verticalAlign=top;spacingLeft=4;spacingRight=4;overflow=hidden;rotatable=0;points=[[0,0.5],[1,0.5]];portConstraint=eastwest;whiteSpace=wrap;html=1;fontFamily=Courier New;fontSize=14;" parent="zRA_gL1lxdrGA0FTlB0p-47" vertex="1">
          <mxGeometry y="78" width="160" height="26" as="geometry" />
        </mxCell>
        <mxCell id="zRA_gL1lxdrGA0FTlB0p-52" value="edicion" style="text;strokeColor=none;fillColor=none;align=left;verticalAlign=top;spacingLeft=4;spacingRight=4;overflow=hidden;rotatable=0;points=[[0,0.5],[1,0.5]];portConstraint=eastwest;whiteSpace=wrap;html=1;fontFamily=Courier New;fontSize=14;" parent="zRA_gL1lxdrGA0FTlB0p-47" vertex="1">
          <mxGeometry y="104" width="160" height="26" as="geometry" />
        </mxCell>
        <mxCell id="zRA_gL1lxdrGA0FTlB0p-53" value="ubicacion" style="text;strokeColor=none;fillColor=none;align=left;verticalAlign=top;spacingLeft=4;spacingRight=4;overflow=hidden;rotatable=0;points=[[0,0.5],[1,0.5]];portConstraint=eastwest;whiteSpace=wrap;html=1;fontFamily=Courier New;fontSize=14;" parent="zRA_gL1lxdrGA0FTlB0p-47" vertex="1">
          <mxGeometry y="130" width="160" height="26" as="geometry" />
        </mxCell>
        <mxCell id="zRA_gL1lxdrGA0FTlB0p-49" value="" style="line;strokeWidth=1;fillColor=none;align=left;verticalAlign=middle;spacingTop=-1;spacingLeft=3;spacingRight=3;rotatable=0;labelPosition=right;points=[];portConstraint=eastwest;strokeColor=inherit;fontFamily=Courier New;fontSize=14;" parent="zRA_gL1lxdrGA0FTlB0p-47" vertex="1">
          <mxGeometry y="156" width="160" height="8" as="geometry" />
        </mxCell>
        <mxCell id="zRA_gL1lxdrGA0FTlB0p-50" value="+ method(type): type" style="text;strokeColor=none;fillColor=none;align=left;verticalAlign=top;spacingLeft=4;spacingRight=4;overflow=hidden;rotatable=0;points=[[0,0.5],[1,0.5]];portConstraint=eastwest;whiteSpace=wrap;html=1;fontFamily=Courier New;fontSize=14;" parent="zRA_gL1lxdrGA0FTlB0p-47" vertex="1">
          <mxGeometry y="164" width="160" height="26" as="geometry" />
        </mxCell>
        <mxCell id="zRA_gL1lxdrGA0FTlB0p-55" value="indicadores" style="swimlane;fontStyle=1;align=center;verticalAlign=top;childLayout=stackLayout;horizontal=1;startSize=26;horizontalStack=0;resizeParent=1;resizeParentMax=0;resizeLast=0;collapsible=1;marginBottom=0;whiteSpace=wrap;html=1;fontFamily=Courier New;fontSize=14;" parent="1" vertex="1">
          <mxGeometry x="430" y="-710" width="160" height="346" as="geometry" />
        </mxCell>
        <mxCell id="zRA_gL1lxdrGA0FTlB0p-56" value="id_indicador" style="text;strokeColor=none;fillColor=none;align=left;verticalAlign=top;spacingLeft=4;spacingRight=4;overflow=hidden;rotatable=0;points=[[0,0.5],[1,0.5]];portConstraint=eastwest;whiteSpace=wrap;html=1;fontFamily=Courier New;fontSize=14;" parent="zRA_gL1lxdrGA0FTlB0p-55" vertex="1">
          <mxGeometry y="26" width="160" height="26" as="geometry" />
        </mxCell>
        <mxCell id="zRA_gL1lxdrGA0FTlB0p-59" value="fecha_inicio" style="text;strokeColor=none;fillColor=none;align=left;verticalAlign=top;spacingLeft=4;spacingRight=4;overflow=hidden;rotatable=0;points=[[0,0.5],[1,0.5]];portConstraint=eastwest;whiteSpace=wrap;html=1;fontFamily=Courier New;fontSize=14;" parent="zRA_gL1lxdrGA0FTlB0p-55" vertex="1">
          <mxGeometry y="52" width="160" height="26" as="geometry" />
        </mxCell>
        <mxCell id="zRA_gL1lxdrGA0FTlB0p-60" value="fecha_fin" style="text;strokeColor=none;fillColor=none;align=left;verticalAlign=top;spacingLeft=4;spacingRight=4;overflow=hidden;rotatable=0;points=[[0,0.5],[1,0.5]];portConstraint=eastwest;whiteSpace=wrap;html=1;fontFamily=Courier New;fontSize=14;" parent="zRA_gL1lxdrGA0FTlB0p-55" vertex="1">
          <mxGeometry y="78" width="160" height="26" as="geometry" />
        </mxCell>
        <mxCell id="zRA_gL1lxdrGA0FTlB0p-61" value="tipo" style="text;strokeColor=none;fillColor=none;align=left;verticalAlign=top;spacingLeft=4;spacingRight=4;overflow=hidden;rotatable=0;points=[[0,0.5],[1,0.5]];portConstraint=eastwest;whiteSpace=wrap;html=1;fontFamily=Courier New;fontSize=14;" parent="zRA_gL1lxdrGA0FTlB0p-55" vertex="1">
          <mxGeometry y="104" width="160" height="26" as="geometry" />
        </mxCell>
        <mxCell id="zRA_gL1lxdrGA0FTlB0p-62" value="tipo_poblacion" style="text;strokeColor=none;fillColor=none;align=left;verticalAlign=top;spacingLeft=4;spacingRight=4;overflow=hidden;rotatable=0;points=[[0,0.5],[1,0.5]];portConstraint=eastwest;whiteSpace=wrap;html=1;fontFamily=Courier New;fontSize=14;" parent="zRA_gL1lxdrGA0FTlB0p-55" vertex="1">
          <mxGeometry y="130" width="160" height="26" as="geometry" />
        </mxCell>
        <mxCell id="zRA_gL1lxdrGA0FTlB0p-63" value="poblacion" style="text;strokeColor=none;fillColor=none;align=left;verticalAlign=top;spacingLeft=4;spacingRight=4;overflow=hidden;rotatable=0;points=[[0,0.5],[1,0.5]];portConstraint=eastwest;whiteSpace=wrap;html=1;fontFamily=Courier New;fontSize=14;" parent="zRA_gL1lxdrGA0FTlB0p-55" vertex="1">
          <mxGeometry y="156" width="160" height="26" as="geometry" />
        </mxCell>
        <mxCell id="zRA_gL1lxdrGA0FTlB0p-64" value="porcentaje" style="text;strokeColor=none;fillColor=none;align=left;verticalAlign=top;spacingLeft=4;spacingRight=4;overflow=hidden;rotatable=0;points=[[0,0.5],[1,0.5]];portConstraint=eastwest;whiteSpace=wrap;html=1;fontFamily=Courier New;fontSize=14;" parent="zRA_gL1lxdrGA0FTlB0p-55" vertex="1">
          <mxGeometry y="182" width="160" height="26" as="geometry" />
        </mxCell>
        <mxCell id="kC0Oe4MXgPykfY4GPiJI-84" value="titulo" style="text;strokeColor=none;fillColor=none;align=left;verticalAlign=top;spacingLeft=4;spacingRight=4;overflow=hidden;rotatable=0;points=[[0,0.5],[1,0.5]];portConstraint=eastwest;whiteSpace=wrap;html=1;fontFamily=Courier New;fontSize=14;" parent="zRA_gL1lxdrGA0FTlB0p-55" vertex="1">
          <mxGeometry y="208" width="160" height="26" as="geometry" />
        </mxCell>
        <mxCell id="kC0Oe4MXgPykfY4GPiJI-85" value="comentarios" style="text;strokeColor=none;fillColor=none;align=left;verticalAlign=top;spacingLeft=4;spacingRight=4;overflow=hidden;rotatable=0;points=[[0,0.5],[1,0.5]];portConstraint=eastwest;whiteSpace=wrap;html=1;fontFamily=Courier New;fontSize=14;" parent="zRA_gL1lxdrGA0FTlB0p-55" vertex="1">
          <mxGeometry y="234" width="160" height="26" as="geometry" />
        </mxCell>
        <mxCell id="kC0Oe4MXgPykfY4GPiJI-86" value="fecha_creacion" style="text;strokeColor=none;fillColor=none;align=left;verticalAlign=top;spacingLeft=4;spacingRight=4;overflow=hidden;rotatable=0;points=[[0,0.5],[1,0.5]];portConstraint=eastwest;whiteSpace=wrap;html=1;fontFamily=Courier New;fontSize=14;" parent="zRA_gL1lxdrGA0FTlB0p-55" vertex="1">
          <mxGeometry y="260" width="160" height="26" as="geometry" />
        </mxCell>
        <mxCell id="kC0Oe4MXgPykfY4GPiJI-87" value="estado" style="text;strokeColor=none;fillColor=none;align=left;verticalAlign=top;spacingLeft=4;spacingRight=4;overflow=hidden;rotatable=0;points=[[0,0.5],[1,0.5]];portConstraint=eastwest;whiteSpace=wrap;html=1;fontFamily=Courier New;fontSize=14;" parent="zRA_gL1lxdrGA0FTlB0p-55" vertex="1">
          <mxGeometry y="286" width="160" height="26" as="geometry" />
        </mxCell>
        <mxCell id="zRA_gL1lxdrGA0FTlB0p-57" value="" style="line;strokeWidth=1;fillColor=none;align=left;verticalAlign=middle;spacingTop=-1;spacingLeft=3;spacingRight=3;rotatable=0;labelPosition=right;points=[];portConstraint=eastwest;strokeColor=inherit;fontFamily=Courier New;fontSize=14;" parent="zRA_gL1lxdrGA0FTlB0p-55" vertex="1">
          <mxGeometry y="312" width="160" height="8" as="geometry" />
        </mxCell>
        <mxCell id="zRA_gL1lxdrGA0FTlB0p-58" value="+ method(type): type" style="text;strokeColor=none;fillColor=none;align=left;verticalAlign=top;spacingLeft=4;spacingRight=4;overflow=hidden;rotatable=0;points=[[0,0.5],[1,0.5]];portConstraint=eastwest;whiteSpace=wrap;html=1;fontFamily=Courier New;fontSize=14;" parent="zRA_gL1lxdrGA0FTlB0p-55" vertex="1">
          <mxGeometry y="320" width="160" height="26" as="geometry" />
        </mxCell>
        <mxCell id="Lcip7T_UkXhXK0Q2yI7Q-1" value="&lt;pre style=&quot;user-select: text; font-family: &amp;quot;Courier New&amp;quot;, Courier, monospace, arial, sans-serif; margin-top: 0px; margin-bottom: 0px; overflow-wrap: break-word; background-color: rgb(255, 255, 255); font-size: 14px; font-weight: 400; text-align: left;&quot; class=&quot;aLF-aPX-K0-aPE&quot;&gt;permisos&lt;/pre&gt;" style="swimlane;fontStyle=1;align=center;verticalAlign=top;childLayout=stackLayout;horizontal=1;startSize=26;horizontalStack=0;resizeParent=1;resizeParentMax=0;resizeLast=0;collapsible=1;marginBottom=0;whiteSpace=wrap;html=1;" parent="1" vertex="1">
          <mxGeometry x="1270" y="-630" width="160" height="346" as="geometry" />
        </mxCell>
        <mxCell id="Lcip7T_UkXhXK0Q2yI7Q-2" value="&lt;pre style=&quot;user-select: text; font-family: &amp;quot;Courier New&amp;quot;, Courier, monospace, arial, sans-serif; margin-top: 0px; margin-bottom: 0px; overflow-wrap: break-word; background-color: rgb(255, 255, 255); font-size: 14px;&quot; class=&quot;aLF-aPX-K0-aPE&quot;&gt;id_permiso&lt;/pre&gt;" style="text;strokeColor=none;fillColor=none;align=left;verticalAlign=top;spacingLeft=4;spacingRight=4;overflow=hidden;rotatable=0;points=[[0,0.5],[1,0.5]];portConstraint=eastwest;whiteSpace=wrap;html=1;" parent="Lcip7T_UkXhXK0Q2yI7Q-1" vertex="1">
          <mxGeometry y="26" width="160" height="26" as="geometry" />
        </mxCell>
        <mxCell id="Lcip7T_UkXhXK0Q2yI7Q-7" value="&lt;pre style=&quot;user-select: text; font-family: &amp;quot;Courier New&amp;quot;, Courier, monospace, arial, sans-serif; margin-top: 0px; margin-bottom: 0px; overflow-wrap: break-word; background-color: rgb(255, 255, 255); font-size: 14px;&quot; class=&quot;aLF-aPX-K0-aPE&quot;&gt;titulo&lt;/pre&gt;" style="text;strokeColor=none;fillColor=none;align=left;verticalAlign=top;spacingLeft=4;spacingRight=4;overflow=hidden;rotatable=0;points=[[0,0.5],[1,0.5]];portConstraint=eastwest;whiteSpace=wrap;html=1;" parent="Lcip7T_UkXhXK0Q2yI7Q-1" vertex="1">
          <mxGeometry y="52" width="160" height="26" as="geometry" />
        </mxCell>
        <mxCell id="Lcip7T_UkXhXK0Q2yI7Q-8" value="&lt;pre style=&quot;user-select: text; font-family: &amp;quot;Courier New&amp;quot;, Courier, monospace, arial, sans-serif; margin-top: 0px; margin-bottom: 0px; overflow-wrap: break-word; background-color: rgb(255, 255, 255); font-size: 14px;&quot; class=&quot;aLF-aPX-K0-aPE&quot;&gt;tipo&lt;/pre&gt;" style="text;strokeColor=none;fillColor=none;align=left;verticalAlign=top;spacingLeft=4;spacingRight=4;overflow=hidden;rotatable=0;points=[[0,0.5],[1,0.5]];portConstraint=eastwest;whiteSpace=wrap;html=1;" parent="Lcip7T_UkXhXK0Q2yI7Q-1" vertex="1">
          <mxGeometry y="78" width="160" height="26" as="geometry" />
        </mxCell>
        <mxCell id="Lcip7T_UkXhXK0Q2yI7Q-9" value="&lt;pre style=&quot;user-select: text; font-family: &amp;quot;Courier New&amp;quot;, Courier, monospace, arial, sans-serif; margin-top: 0px; margin-bottom: 0px; overflow-wrap: break-word; background-color: rgb(255, 255, 255); font-size: 14px;&quot; class=&quot;aLF-aPX-K0-aPE&quot;&gt;crear&lt;/pre&gt;" style="text;strokeColor=none;fillColor=none;align=left;verticalAlign=top;spacingLeft=4;spacingRight=4;overflow=hidden;rotatable=0;points=[[0,0.5],[1,0.5]];portConstraint=eastwest;whiteSpace=wrap;html=1;" parent="Lcip7T_UkXhXK0Q2yI7Q-1" vertex="1">
          <mxGeometry y="104" width="160" height="26" as="geometry" />
        </mxCell>
        <mxCell id="Lcip7T_UkXhXK0Q2yI7Q-10" value="&lt;pre style=&quot;user-select: text; font-family: &amp;quot;Courier New&amp;quot;, Courier, monospace, arial, sans-serif; margin-top: 0px; margin-bottom: 0px; overflow-wrap: break-word; background-color: rgb(255, 255, 255); font-size: 14px;&quot; class=&quot;aLF-aPX-K0-aPE&quot;&gt;leer&lt;/pre&gt;" style="text;strokeColor=none;fillColor=none;align=left;verticalAlign=top;spacingLeft=4;spacingRight=4;overflow=hidden;rotatable=0;points=[[0,0.5],[1,0.5]];portConstraint=eastwest;whiteSpace=wrap;html=1;" parent="Lcip7T_UkXhXK0Q2yI7Q-1" vertex="1">
          <mxGeometry y="130" width="160" height="26" as="geometry" />
        </mxCell>
        <mxCell id="Lcip7T_UkXhXK0Q2yI7Q-11" value="&lt;pre style=&quot;user-select: text; font-family: &amp;quot;Courier New&amp;quot;, Courier, monospace, arial, sans-serif; margin-top: 0px; margin-bottom: 0px; overflow-wrap: break-word; background-color: rgb(255, 255, 255); font-size: 14px;&quot; class=&quot;aLF-aPX-K0-aPE&quot;&gt;modificar&lt;/pre&gt;" style="text;strokeColor=none;fillColor=none;align=left;verticalAlign=top;spacingLeft=4;spacingRight=4;overflow=hidden;rotatable=0;points=[[0,0.5],[1,0.5]];portConstraint=eastwest;whiteSpace=wrap;html=1;" parent="Lcip7T_UkXhXK0Q2yI7Q-1" vertex="1">
          <mxGeometry y="156" width="160" height="26" as="geometry" />
        </mxCell>
        <mxCell id="Lcip7T_UkXhXK0Q2yI7Q-12" value="&lt;pre style=&quot;user-select: text; font-family: &amp;quot;Courier New&amp;quot;, Courier, monospace, arial, sans-serif; margin-top: 0px; margin-bottom: 0px; overflow-wrap: break-word; background-color: rgb(255, 255, 255); font-size: 14px;&quot; class=&quot;aLF-aPX-K0-aPE&quot;&gt;borrar&lt;/pre&gt;" style="text;strokeColor=none;fillColor=none;align=left;verticalAlign=top;spacingLeft=4;spacingRight=4;overflow=hidden;rotatable=0;points=[[0,0.5],[1,0.5]];portConstraint=eastwest;whiteSpace=wrap;html=1;" parent="Lcip7T_UkXhXK0Q2yI7Q-1" vertex="1">
          <mxGeometry y="182" width="160" height="26" as="geometry" />
        </mxCell>
        <mxCell id="Lcip7T_UkXhXK0Q2yI7Q-13" value="&lt;font face=&quot;Courier New&quot; style=&quot;font-size: 14px;&quot;&gt;acceso&lt;/font&gt;" style="text;strokeColor=none;fillColor=none;align=left;verticalAlign=top;spacingLeft=4;spacingRight=4;overflow=hidden;rotatable=0;points=[[0,0.5],[1,0.5]];portConstraint=eastwest;whiteSpace=wrap;html=1;" parent="Lcip7T_UkXhXK0Q2yI7Q-1" vertex="1">
          <mxGeometry y="208" width="160" height="26" as="geometry" />
        </mxCell>
        <mxCell id="cOuRUTMtnNx2OE-kur7D-3" value="&lt;font face=&quot;Courier New&quot; style=&quot;font-size: 14px;&quot;&gt;paginas&lt;/font&gt;" style="text;align=left;verticalAlign=top;spacingLeft=4;spacingRight=4;overflow=hidden;rotatable=0;points=[[0,0.5],[1,0.5]];portConstraint=eastwest;whiteSpace=wrap;html=1;" parent="Lcip7T_UkXhXK0Q2yI7Q-1" vertex="1">
          <mxGeometry y="234" width="160" height="26" as="geometry" />
        </mxCell>
        <mxCell id="Lcip7T_UkXhXK0Q2yI7Q-31" value="&lt;font style=&quot;font-size: 14px;&quot; face=&quot;Courier New&quot;&gt;fecha_creacion&lt;/font&gt;" style="text;strokeColor=none;fillColor=none;align=left;verticalAlign=top;spacingLeft=4;spacingRight=4;overflow=hidden;rotatable=0;points=[[0,0.5],[1,0.5]];portConstraint=eastwest;whiteSpace=wrap;html=1;" parent="Lcip7T_UkXhXK0Q2yI7Q-1" vertex="1">
          <mxGeometry y="260" width="160" height="26" as="geometry" />
        </mxCell>
        <mxCell id="Lcip7T_UkXhXK0Q2yI7Q-30" value="&lt;font style=&quot;font-size: 14px;&quot; face=&quot;Courier New&quot;&gt;estado&lt;/font&gt;" style="text;strokeColor=none;fillColor=none;align=left;verticalAlign=top;spacingLeft=4;spacingRight=4;overflow=hidden;rotatable=0;points=[[0,0.5],[1,0.5]];portConstraint=eastwest;whiteSpace=wrap;html=1;" parent="Lcip7T_UkXhXK0Q2yI7Q-1" vertex="1">
          <mxGeometry y="286" width="160" height="26" as="geometry" />
        </mxCell>
        <mxCell id="Lcip7T_UkXhXK0Q2yI7Q-14" value="" style="line;strokeWidth=1;fillColor=none;align=left;verticalAlign=middle;spacingTop=-1;spacingLeft=3;spacingRight=3;rotatable=0;labelPosition=right;points=[];portConstraint=eastwest;strokeColor=inherit;" parent="Lcip7T_UkXhXK0Q2yI7Q-1" vertex="1">
          <mxGeometry y="312" width="160" height="8" as="geometry" />
        </mxCell>
        <mxCell id="Lcip7T_UkXhXK0Q2yI7Q-15" value="+ method(type): type" style="text;strokeColor=none;fillColor=none;align=left;verticalAlign=top;spacingLeft=4;spacingRight=4;overflow=hidden;rotatable=0;points=[[0,0.5],[1,0.5]];portConstraint=eastwest;whiteSpace=wrap;html=1;" parent="Lcip7T_UkXhXK0Q2yI7Q-1" vertex="1">
          <mxGeometry y="320" width="160" height="26" as="geometry" />
        </mxCell>
        <mxCell id="Lcip7T_UkXhXK0Q2yI7Q-21" value="" style="endArrow=none;html=1;rounded=0;exitX=1;exitY=0.5;exitDx=0;exitDy=0;entryX=0;entryY=0.5;entryDx=0;entryDy=0;edgeStyle=orthogonalEdgeStyle;" parent="1" source="Lcip7T_UkXhXK0Q2yI7Q-18" target="Lcip7T_UkXhXK0Q2yI7Q-2" edge="1">
          <mxGeometry width="50" height="50" relative="1" as="geometry">
            <mxPoint x="1300" y="-510" as="sourcePoint" />
            <mxPoint x="1350" y="-560" as="targetPoint" />
          </mxGeometry>
        </mxCell>
        <mxCell id="kC0Oe4MXgPykfY4GPiJI-49" value="&lt;pre style=&quot;user-select: text; font-family: &amp;quot;Courier New&amp;quot;, Courier, monospace, arial, sans-serif; margin-top: 0px; margin-bottom: 0px; overflow-wrap: break-word; background-color: rgb(255, 255, 255); font-size: 14px; font-weight: 400; text-align: left;&quot; class=&quot;aLF-aPX-K0-aPE&quot;&gt;procedimientos&lt;/pre&gt;" style="swimlane;fontStyle=1;align=center;verticalAlign=top;childLayout=stackLayout;horizontal=1;startSize=26;horizontalStack=0;resizeParent=1;resizeParentMax=0;resizeLast=0;collapsible=1;marginBottom=0;whiteSpace=wrap;html=1;" parent="1" vertex="1">
          <mxGeometry x="1671.5" y="120" width="178.5" height="346" as="geometry" />
        </mxCell>
        <mxCell id="ePQf7IGZMu_F8IOme0l5-10" value="&lt;font face=&quot;Courier New&quot; style=&quot;font-size: 14px;&quot;&gt;id_procedimiento&lt;/font&gt;" style="text;strokeColor=none;fillColor=none;align=left;verticalAlign=top;spacingLeft=4;spacingRight=4;overflow=hidden;rotatable=0;points=[[0,0.5],[1,0.5]];portConstraint=eastwest;whiteSpace=wrap;html=1;" parent="kC0Oe4MXgPykfY4GPiJI-49" vertex="1">
          <mxGeometry y="26" width="178.5" height="26" as="geometry" />
        </mxCell>
        <mxCell id="ePQf7IGZMu_F8IOme0l5-3" value="&lt;pre style=&quot;user-select: text; font-family: &amp;quot;Courier New&amp;quot;, Courier, monospace, arial, sans-serif; margin-top: 0px; margin-bottom: 0px; overflow-wrap: break-word; background-color: rgb(255, 255, 255); font-size: 14px;&quot; class=&quot;aLF-aPX-K0-aPE&quot;&gt;id_auditoria&lt;/pre&gt;" style="text;strokeColor=none;fillColor=none;align=left;verticalAlign=top;spacingLeft=4;spacingRight=4;overflow=hidden;rotatable=0;points=[[0,0.5],[1,0.5]];portConstraint=eastwest;whiteSpace=wrap;html=1;" parent="kC0Oe4MXgPykfY4GPiJI-49" vertex="1">
          <mxGeometry y="52" width="178.5" height="26" as="geometry" />
        </mxCell>
        <mxCell id="kC0Oe4MXgPykfY4GPiJI-88" value="&lt;pre style=&quot;user-select: text; font-family: &amp;quot;Courier New&amp;quot;, Courier, monospace, arial, sans-serif; margin-top: 0px; margin-bottom: 0px; overflow-wrap: break-word; background-color: rgb(255, 255, 255); font-size: 14px;&quot; class=&quot;aLF-aPX-K0-aPE&quot;&gt;origen&lt;/pre&gt;" style="text;strokeColor=none;fillColor=none;align=left;verticalAlign=top;spacingLeft=4;spacingRight=4;overflow=hidden;rotatable=0;points=[[0,0.5],[1,0.5]];portConstraint=eastwest;whiteSpace=wrap;html=1;" parent="kC0Oe4MXgPykfY4GPiJI-49" vertex="1">
          <mxGeometry y="78" width="178.5" height="26" as="geometry" />
        </mxCell>
        <mxCell id="kC0Oe4MXgPykfY4GPiJI-91" value="&lt;pre style=&quot;user-select: text; font-family: &amp;quot;Courier New&amp;quot;, Courier, monospace, arial, sans-serif; margin-top: 0px; margin-bottom: 0px; overflow-wrap: break-word; background-color: rgb(255, 255, 255); font-size: 14px;&quot; class=&quot;aLF-aPX-K0-aPE&quot;&gt;actividad&lt;/pre&gt;" style="text;strokeColor=none;fillColor=none;align=left;verticalAlign=top;spacingLeft=4;spacingRight=4;overflow=hidden;rotatable=0;points=[[0,0.5],[1,0.5]];portConstraint=eastwest;whiteSpace=wrap;html=1;" parent="kC0Oe4MXgPykfY4GPiJI-49" vertex="1">
          <mxGeometry y="104" width="178.5" height="26" as="geometry" />
        </mxCell>
        <mxCell id="ePQf7IGZMu_F8IOme0l5-5" value="&lt;font face=&quot;Courier New&quot; style=&quot;font-size: 14px;&quot;&gt;norma&lt;/font&gt;" style="text;strokeColor=none;fillColor=none;align=left;verticalAlign=top;spacingLeft=4;spacingRight=4;overflow=hidden;rotatable=0;points=[[0,0.5],[1,0.5]];portConstraint=eastwest;whiteSpace=wrap;html=1;" parent="kC0Oe4MXgPykfY4GPiJI-49" vertex="1">
          <mxGeometry y="130" width="178.5" height="26" as="geometry" />
        </mxCell>
        <mxCell id="ePQf7IGZMu_F8IOme0l5-6" value="&lt;font face=&quot;Courier New&quot; style=&quot;font-size: 14px;&quot;&gt;riesgo&lt;/font&gt;" style="text;strokeColor=none;fillColor=none;align=left;verticalAlign=top;spacingLeft=4;spacingRight=4;overflow=hidden;rotatable=0;points=[[0,0.5],[1,0.5]];portConstraint=eastwest;whiteSpace=wrap;html=1;" parent="kC0Oe4MXgPykfY4GPiJI-49" vertex="1">
          <mxGeometry y="156" width="178.5" height="26" as="geometry" />
        </mxCell>
        <mxCell id="kC0Oe4MXgPykfY4GPiJI-60" value="&lt;pre style=&quot;user-select: text; font-family: &amp;quot;Courier New&amp;quot;, Courier, monospace, arial, sans-serif; margin-top: 0px; margin-bottom: 0px; overflow-wrap: break-word; background-color: rgb(255, 255, 255); font-size: 14px;&quot; class=&quot;aLF-aPX-K0-aPE&quot;&gt;hecho_por&lt;/pre&gt;" style="text;strokeColor=none;fillColor=none;align=left;verticalAlign=top;spacingLeft=4;spacingRight=4;overflow=hidden;rotatable=0;points=[[0,0.5],[1,0.5]];portConstraint=eastwest;whiteSpace=wrap;html=1;" parent="kC0Oe4MXgPykfY4GPiJI-49" vertex="1">
          <mxGeometry y="182" width="178.5" height="26" as="geometry" />
        </mxCell>
        <mxCell id="kC0Oe4MXgPykfY4GPiJI-54" value="&lt;pre style=&quot;user-select: text; font-family: &amp;quot;Courier New&amp;quot;, Courier, monospace, arial, sans-serif; margin-top: 0px; margin-bottom: 0px; overflow-wrap: break-word; background-color: rgb(255, 255, 255); font-size: 14px;&quot; class=&quot;aLF-aPX-K0-aPE&quot;&gt;comentarios&lt;/pre&gt;" style="text;strokeColor=none;fillColor=none;align=left;verticalAlign=top;spacingLeft=4;spacingRight=4;overflow=hidden;rotatable=0;points=[[0,0.5],[1,0.5]];portConstraint=eastwest;whiteSpace=wrap;html=1;" parent="kC0Oe4MXgPykfY4GPiJI-49" vertex="1">
          <mxGeometry y="208" width="178.5" height="26" as="geometry" />
        </mxCell>
        <mxCell id="kC0Oe4MXgPykfY4GPiJI-53" value="&lt;pre style=&quot;user-select: text; font-family: &amp;quot;Courier New&amp;quot;, Courier, monospace, arial, sans-serif; margin-top: 0px; margin-bottom: 0px; overflow-wrap: break-word; background-color: rgb(255, 255, 255); font-size: 14px;&quot; class=&quot;aLF-aPX-K0-aPE&quot;&gt;referencias&lt;/pre&gt;" style="text;strokeColor=none;fillColor=none;align=left;verticalAlign=top;spacingLeft=4;spacingRight=4;overflow=hidden;rotatable=0;points=[[0,0.5],[1,0.5]];portConstraint=eastwest;whiteSpace=wrap;html=1;" parent="kC0Oe4MXgPykfY4GPiJI-49" vertex="1">
          <mxGeometry y="234" width="178.5" height="26" as="geometry" />
        </mxCell>
        <mxCell id="kC0Oe4MXgPykfY4GPiJI-56" value="&lt;font face=&quot;Courier New&quot; style=&quot;font-size: 14px;&quot;&gt;fecha_creacion&lt;/font&gt;" style="text;strokeColor=none;fillColor=none;align=left;verticalAlign=top;spacingLeft=4;spacingRight=4;overflow=hidden;rotatable=0;points=[[0,0.5],[1,0.5]];portConstraint=eastwest;whiteSpace=wrap;html=1;" parent="kC0Oe4MXgPykfY4GPiJI-49" vertex="1">
          <mxGeometry y="260" width="178.5" height="26" as="geometry" />
        </mxCell>
        <mxCell id="kC0Oe4MXgPykfY4GPiJI-57" value="&lt;font face=&quot;Courier New&quot; style=&quot;font-size: 14px;&quot;&gt;estado&lt;/font&gt;" style="text;strokeColor=none;fillColor=none;align=left;verticalAlign=top;spacingLeft=4;spacingRight=4;overflow=hidden;rotatable=0;points=[[0,0.5],[1,0.5]];portConstraint=eastwest;whiteSpace=wrap;html=1;" parent="kC0Oe4MXgPykfY4GPiJI-49" vertex="1">
          <mxGeometry y="286" width="178.5" height="26" as="geometry" />
        </mxCell>
        <mxCell id="kC0Oe4MXgPykfY4GPiJI-58" value="" style="line;strokeWidth=1;fillColor=none;align=left;verticalAlign=middle;spacingTop=-1;spacingLeft=3;spacingRight=3;rotatable=0;labelPosition=right;points=[];portConstraint=eastwest;strokeColor=inherit;" parent="kC0Oe4MXgPykfY4GPiJI-49" vertex="1">
          <mxGeometry y="312" width="178.5" height="8" as="geometry" />
        </mxCell>
        <mxCell id="kC0Oe4MXgPykfY4GPiJI-59" value="+ method(type): type" style="text;strokeColor=none;fillColor=none;align=left;verticalAlign=top;spacingLeft=4;spacingRight=4;overflow=hidden;rotatable=0;points=[[0,0.5],[1,0.5]];portConstraint=eastwest;whiteSpace=wrap;html=1;" parent="kC0Oe4MXgPykfY4GPiJI-49" vertex="1">
          <mxGeometry y="320" width="178.5" height="26" as="geometry" />
        </mxCell>
        <mxCell id="kC0Oe4MXgPykfY4GPiJI-61" value="configuracion_general" style="swimlane;fontStyle=1;align=center;verticalAlign=top;childLayout=stackLayout;horizontal=1;startSize=26;horizontalStack=0;resizeParent=1;resizeParentMax=0;resizeLast=0;collapsible=1;marginBottom=0;whiteSpace=wrap;html=1;fontFamily=Courier New;fontSize=14;" parent="1" vertex="1">
          <mxGeometry x="636" y="-930" width="200" height="294" as="geometry" />
        </mxCell>
        <mxCell id="kC0Oe4MXgPykfY4GPiJI-62" value="id_config_general" style="text;strokeColor=none;fillColor=none;align=left;verticalAlign=top;spacingLeft=4;spacingRight=4;overflow=hidden;rotatable=0;points=[[0,0.5],[1,0.5]];portConstraint=eastwest;whiteSpace=wrap;html=1;fontFamily=Courier New;fontSize=14;" parent="kC0Oe4MXgPykfY4GPiJI-61" vertex="1">
          <mxGeometry y="26" width="200" height="26" as="geometry" />
        </mxCell>
        <mxCell id="kC0Oe4MXgPykfY4GPiJI-63" value="empresa" style="text;align=left;verticalAlign=top;spacingLeft=4;spacingRight=4;overflow=hidden;rotatable=0;points=[[0,0.5],[1,0.5]];portConstraint=eastwest;whiteSpace=wrap;html=1;fontFamily=Courier New;fontSize=14;" parent="kC0Oe4MXgPykfY4GPiJI-61" vertex="1">
          <mxGeometry y="52" width="200" height="26" as="geometry" />
        </mxCell>
        <mxCell id="kC0Oe4MXgPykfY4GPiJI-72" value="departamentos" style="text;strokeColor=none;fillColor=none;align=left;verticalAlign=top;spacingLeft=4;spacingRight=4;overflow=hidden;rotatable=0;points=[[0,0.5],[1,0.5]];portConstraint=eastwest;whiteSpace=wrap;html=1;fontFamily=Courier New;fontSize=14;" parent="kC0Oe4MXgPykfY4GPiJI-61" vertex="1">
          <mxGeometry y="78" width="200" height="26" as="geometry" />
        </mxCell>
        <mxCell id="dZusn4wj0V5rwVi1F2iV-3" value="sucursal" style="text;strokeColor=none;fillColor=none;align=left;verticalAlign=top;spacingLeft=4;spacingRight=4;overflow=hidden;rotatable=0;points=[[0,0.5],[1,0.5]];portConstraint=eastwest;whiteSpace=wrap;html=1;fontFamily=Courier New;fontSize=14;" parent="kC0Oe4MXgPykfY4GPiJI-61" vertex="1">
          <mxGeometry y="104" width="200" height="26" as="geometry" />
        </mxCell>
        <mxCell id="kC0Oe4MXgPykfY4GPiJI-70" value="logo" style="text;strokeColor=none;fillColor=none;align=left;verticalAlign=top;spacingLeft=4;spacingRight=4;overflow=hidden;rotatable=0;points=[[0,0.5],[1,0.5]];portConstraint=eastwest;whiteSpace=wrap;html=1;fontFamily=Courier New;fontSize=14;" parent="kC0Oe4MXgPykfY4GPiJI-61" vertex="1">
          <mxGeometry y="130" width="200" height="26" as="geometry" />
        </mxCell>
        <mxCell id="MdilOlbVCDJDPG1JR87V-14" value="roles_planificacion" style="text;strokeColor=none;fillColor=none;align=left;verticalAlign=top;spacingLeft=4;spacingRight=4;overflow=hidden;rotatable=0;points=[[0,0.5],[1,0.5]];portConstraint=eastwest;whiteSpace=wrap;html=1;fontFamily=Courier New;fontSize=14;" vertex="1" parent="kC0Oe4MXgPykfY4GPiJI-61">
          <mxGeometry y="156" width="200" height="26" as="geometry" />
        </mxCell>
        <mxCell id="MdilOlbVCDJDPG1JR87V-15" value="roles_ejecucion" style="text;strokeColor=none;fillColor=none;align=left;verticalAlign=top;spacingLeft=4;spacingRight=4;overflow=hidden;rotatable=0;points=[[0,0.5],[1,0.5]];portConstraint=eastwest;whiteSpace=wrap;html=1;fontFamily=Courier New;fontSize=14;" vertex="1" parent="kC0Oe4MXgPykfY4GPiJI-61">
          <mxGeometry y="182" width="200" height="26" as="geometry" />
        </mxCell>
        <mxCell id="kC0Oe4MXgPykfY4GPiJI-66" value="fecha_creacion" style="text;strokeColor=none;fillColor=none;align=left;verticalAlign=top;spacingLeft=4;spacingRight=4;overflow=hidden;rotatable=0;points=[[0,0.5],[1,0.5]];portConstraint=eastwest;whiteSpace=wrap;html=1;fontFamily=Courier New;fontSize=14;" parent="kC0Oe4MXgPykfY4GPiJI-61" vertex="1">
          <mxGeometry y="208" width="200" height="26" as="geometry" />
        </mxCell>
        <mxCell id="kC0Oe4MXgPykfY4GPiJI-69" value="estado" style="text;strokeColor=none;fillColor=none;align=left;verticalAlign=top;spacingLeft=4;spacingRight=4;overflow=hidden;rotatable=0;points=[[0,0.5],[1,0.5]];portConstraint=eastwest;whiteSpace=wrap;html=1;fontFamily=Courier New;fontSize=14;" parent="kC0Oe4MXgPykfY4GPiJI-61" vertex="1">
          <mxGeometry y="234" width="200" height="26" as="geometry" />
        </mxCell>
        <mxCell id="kC0Oe4MXgPykfY4GPiJI-67" value="" style="line;strokeWidth=1;fillColor=none;align=left;verticalAlign=middle;spacingTop=-1;spacingLeft=3;spacingRight=3;rotatable=0;labelPosition=right;points=[];portConstraint=eastwest;strokeColor=inherit;fontFamily=Courier New;fontSize=14;" parent="kC0Oe4MXgPykfY4GPiJI-61" vertex="1">
          <mxGeometry y="260" width="200" height="8" as="geometry" />
        </mxCell>
        <mxCell id="kC0Oe4MXgPykfY4GPiJI-68" value="+ method(type): type" style="text;strokeColor=none;fillColor=none;align=left;verticalAlign=top;spacingLeft=4;spacingRight=4;overflow=hidden;rotatable=0;points=[[0,0.5],[1,0.5]];portConstraint=eastwest;whiteSpace=wrap;html=1;fontFamily=Courier New;fontSize=14;" parent="kC0Oe4MXgPykfY4GPiJI-61" vertex="1">
          <mxGeometry y="268" width="200" height="26" as="geometry" />
        </mxCell>
        <mxCell id="kC0Oe4MXgPykfY4GPiJI-74" value="configuracion_informes" style="swimlane;fontStyle=1;align=center;verticalAlign=top;childLayout=stackLayout;horizontal=1;startSize=26;horizontalStack=0;resizeParent=1;resizeParentMax=0;resizeLast=0;collapsible=1;marginBottom=0;whiteSpace=wrap;html=1;fontFamily=Courier New;fontSize=14;" parent="1" vertex="1">
          <mxGeometry x="636" y="-610" width="200" height="268" as="geometry" />
        </mxCell>
        <mxCell id="zRA_gL1lxdrGA0FTlB0p-45" value="id_config_informes" style="text;strokeColor=none;fillColor=none;align=left;verticalAlign=top;spacingLeft=4;spacingRight=4;overflow=hidden;rotatable=0;points=[[0,0.5],[1,0.5]];portConstraint=eastwest;whiteSpace=wrap;html=1;fontFamily=Courier New;fontSize=14;" parent="kC0Oe4MXgPykfY4GPiJI-74" vertex="1">
          <mxGeometry y="26" width="200" height="26" as="geometry" />
        </mxCell>
        <mxCell id="kC0Oe4MXgPykfY4GPiJI-71" value="logo_informes" style="text;strokeColor=none;fillColor=none;align=left;verticalAlign=top;spacingLeft=4;spacingRight=4;overflow=hidden;rotatable=0;points=[[0,0.5],[1,0.5]];portConstraint=eastwest;whiteSpace=wrap;html=1;fontFamily=Courier New;fontSize=14;" parent="kC0Oe4MXgPykfY4GPiJI-74" vertex="1">
          <mxGeometry y="52" width="200" height="26" as="geometry" />
        </mxCell>
        <mxCell id="kC0Oe4MXgPykfY4GPiJI-75" value="cc" style="text;strokeColor=none;fillColor=none;align=left;verticalAlign=top;spacingLeft=4;spacingRight=4;overflow=hidden;rotatable=0;points=[[0,0.5],[1,0.5]];portConstraint=eastwest;whiteSpace=wrap;html=1;fontFamily=Courier New;fontSize=14;" parent="kC0Oe4MXgPykfY4GPiJI-74" vertex="1">
          <mxGeometry y="78" width="200" height="26" as="geometry" />
        </mxCell>
        <mxCell id="kC0Oe4MXgPykfY4GPiJI-76" value="de" style="text;strokeColor=none;fillColor=none;align=left;verticalAlign=top;spacingLeft=4;spacingRight=4;overflow=hidden;rotatable=0;points=[[0,0.5],[1,0.5]];portConstraint=eastwest;whiteSpace=wrap;html=1;fontFamily=Courier New;fontSize=14;" parent="kC0Oe4MXgPykfY4GPiJI-74" vertex="1">
          <mxGeometry y="104" width="200" height="26" as="geometry" />
        </mxCell>
        <mxCell id="kC0Oe4MXgPykfY4GPiJI-77" value="extension" style="text;strokeColor=none;fillColor=none;align=left;verticalAlign=top;spacingLeft=4;spacingRight=4;overflow=hidden;rotatable=0;points=[[0,0.5],[1,0.5]];portConstraint=eastwest;whiteSpace=wrap;html=1;fontFamily=Courier New;fontSize=14;" parent="kC0Oe4MXgPykfY4GPiJI-74" vertex="1">
          <mxGeometry y="130" width="200" height="26" as="geometry" />
        </mxCell>
        <mxCell id="kC0Oe4MXgPykfY4GPiJI-79" value="para" style="text;strokeColor=none;fillColor=none;align=left;verticalAlign=top;spacingLeft=4;spacingRight=4;overflow=hidden;rotatable=0;points=[[0,0.5],[1,0.5]];portConstraint=eastwest;whiteSpace=wrap;html=1;fontFamily=Courier New;fontSize=14;" parent="kC0Oe4MXgPykfY4GPiJI-74" vertex="1">
          <mxGeometry y="156" width="200" height="26" as="geometry" />
        </mxCell>
        <mxCell id="kC0Oe4MXgPykfY4GPiJI-80" value="fecha_creacion" style="text;strokeColor=none;fillColor=none;align=left;verticalAlign=top;spacingLeft=4;spacingRight=4;overflow=hidden;rotatable=0;points=[[0,0.5],[1,0.5]];portConstraint=eastwest;whiteSpace=wrap;html=1;fontFamily=Courier New;fontSize=14;" parent="kC0Oe4MXgPykfY4GPiJI-74" vertex="1">
          <mxGeometry y="182" width="200" height="26" as="geometry" />
        </mxCell>
        <mxCell id="kC0Oe4MXgPykfY4GPiJI-81" value="estado" style="text;strokeColor=none;fillColor=none;align=left;verticalAlign=top;spacingLeft=4;spacingRight=4;overflow=hidden;rotatable=0;points=[[0,0.5],[1,0.5]];portConstraint=eastwest;whiteSpace=wrap;html=1;fontFamily=Courier New;fontSize=14;" parent="kC0Oe4MXgPykfY4GPiJI-74" vertex="1">
          <mxGeometry y="208" width="200" height="26" as="geometry" />
        </mxCell>
        <mxCell id="kC0Oe4MXgPykfY4GPiJI-82" value="" style="line;strokeWidth=1;fillColor=none;align=left;verticalAlign=middle;spacingTop=-1;spacingLeft=3;spacingRight=3;rotatable=0;labelPosition=right;points=[];portConstraint=eastwest;strokeColor=inherit;fontFamily=Courier New;fontSize=14;" parent="kC0Oe4MXgPykfY4GPiJI-74" vertex="1">
          <mxGeometry y="234" width="200" height="8" as="geometry" />
        </mxCell>
        <mxCell id="kC0Oe4MXgPykfY4GPiJI-83" value="+ method(type): type" style="text;strokeColor=none;fillColor=none;align=left;verticalAlign=top;spacingLeft=4;spacingRight=4;overflow=hidden;rotatable=0;points=[[0,0.5],[1,0.5]];portConstraint=eastwest;whiteSpace=wrap;html=1;fontFamily=Courier New;fontSize=14;" parent="kC0Oe4MXgPykfY4GPiJI-74" vertex="1">
          <mxGeometry y="242" width="200" height="26" as="geometry" />
        </mxCell>
        <mxCell id="ePQf7IGZMu_F8IOme0l5-9" value="" style="endArrow=none;html=1;rounded=0;exitX=1;exitY=0.5;exitDx=0;exitDy=0;entryX=0;entryY=0.5;entryDx=0;entryDy=0;edgeStyle=orthogonalEdgeStyle;" parent="1" source="1lgYtawJcJ5ZMoFz6sz0-6" target="ePQf7IGZMu_F8IOme0l5-3" edge="1">
          <mxGeometry width="50" height="50" relative="1" as="geometry">
            <mxPoint x="1740" y="330" as="sourcePoint" />
            <mxPoint x="1630" y="260" as="targetPoint" />
            <Array as="points">
              <mxPoint x="1620" y="119" />
              <mxPoint x="1620" y="203" />
            </Array>
          </mxGeometry>
        </mxCell>
        <mxCell id="mHRO-zRE8Tbxt5fUKjw2-1" value="&lt;pre style=&quot;user-select: text; font-family: &amp;quot;Courier New&amp;quot;, Courier, monospace, arial, sans-serif; margin-top: 0px; margin-bottom: 0px; overflow-wrap: break-word; background-color: rgb(255, 255, 255); font-size: 14px; font-weight: 400; text-align: left;&quot; class=&quot;aLF-aPX-K0-aPE&quot;&gt;cronograma&lt;/pre&gt;" style="swimlane;fontStyle=1;align=center;verticalAlign=top;childLayout=stackLayout;horizontal=1;startSize=26;horizontalStack=0;resizeParent=1;resizeParentMax=0;resizeLast=0;collapsible=1;marginBottom=0;whiteSpace=wrap;html=1;" parent="1" vertex="1">
          <mxGeometry x="1040" y="310" width="160" height="242" as="geometry" />
        </mxCell>
        <mxCell id="mHRO-zRE8Tbxt5fUKjw2-3" value="&lt;pre style=&quot;user-select: text; font-family: &amp;quot;Courier New&amp;quot;, Courier, monospace, arial, sans-serif; margin-top: 0px; margin-bottom: 0px; overflow-wrap: break-word; background-color: rgb(255, 255, 255); font-size: 14px;&quot; class=&quot;aLF-aPX-K0-aPE&quot;&gt;id_cronograma&lt;/pre&gt;" style="text;strokeColor=none;fillColor=none;align=left;verticalAlign=top;spacingLeft=4;spacingRight=4;overflow=hidden;rotatable=0;points=[[0,0.5],[1,0.5]];portConstraint=eastwest;whiteSpace=wrap;html=1;" parent="mHRO-zRE8Tbxt5fUKjw2-1" vertex="1">
          <mxGeometry y="26" width="160" height="26" as="geometry" />
        </mxCell>
        <mxCell id="mHRO-zRE8Tbxt5fUKjw2-10" value="&lt;font style=&quot;font-size: 14px;&quot; face=&quot;Courier New&quot;&gt;fecha_inicio_plan&lt;/font&gt;" style="text;strokeColor=none;fillColor=none;align=left;verticalAlign=top;spacingLeft=4;spacingRight=4;overflow=hidden;rotatable=0;points=[[0,0.5],[1,0.5]];portConstraint=eastwest;whiteSpace=wrap;html=1;" parent="mHRO-zRE8Tbxt5fUKjw2-1" vertex="1">
          <mxGeometry y="52" width="160" height="26" as="geometry" />
        </mxCell>
        <mxCell id="mHRO-zRE8Tbxt5fUKjw2-11" value="&lt;pre style=&quot;user-select: text; font-family: &amp;quot;Courier New&amp;quot;, Courier, monospace, arial, sans-serif; margin-top: 0px; margin-bottom: 0px; overflow-wrap: break-word; background-color: rgb(255, 255, 255); font-size: 14px;&quot; class=&quot;aLF-aPX-K0-aPE&quot;&gt;fecha_fin_plan&lt;br&gt;&lt;/pre&gt;" style="text;strokeColor=none;fillColor=none;align=left;verticalAlign=top;spacingLeft=4;spacingRight=4;overflow=hidden;rotatable=0;points=[[0,0.5],[1,0.5]];portConstraint=eastwest;whiteSpace=wrap;html=1;" parent="mHRO-zRE8Tbxt5fUKjw2-1" vertex="1">
          <mxGeometry y="78" width="160" height="26" as="geometry" />
        </mxCell>
        <mxCell id="mHRO-zRE8Tbxt5fUKjw2-12" value="&lt;font style=&quot;font-size: 14px;&quot; face=&quot;Courier New&quot;&gt;fecha_inicio_real&lt;/font&gt;" style="text;strokeColor=none;fillColor=none;align=left;verticalAlign=top;spacingLeft=4;spacingRight=4;overflow=hidden;rotatable=0;points=[[0,0.5],[1,0.5]];portConstraint=eastwest;whiteSpace=wrap;html=1;" parent="mHRO-zRE8Tbxt5fUKjw2-1" vertex="1">
          <mxGeometry y="104" width="160" height="26" as="geometry" />
        </mxCell>
        <mxCell id="mHRO-zRE8Tbxt5fUKjw2-13" value="&lt;font face=&quot;Courier New&quot; style=&quot;font-size: 14px;&quot;&gt;fecha_fin_real &lt;/font&gt;" style="text;strokeColor=none;fillColor=none;align=left;verticalAlign=top;spacingLeft=4;spacingRight=4;overflow=hidden;rotatable=0;points=[[0,0.5],[1,0.5]];portConstraint=eastwest;whiteSpace=wrap;html=1;" parent="mHRO-zRE8Tbxt5fUKjw2-1" vertex="1">
          <mxGeometry y="130" width="160" height="26" as="geometry" />
        </mxCell>
        <mxCell id="mHRO-zRE8Tbxt5fUKjw2-6" value="&lt;font face=&quot;Courier New&quot; style=&quot;font-size: 14px;&quot;&gt;fecha_creacion&lt;/font&gt;" style="text;strokeColor=none;fillColor=none;align=left;verticalAlign=top;spacingLeft=4;spacingRight=4;overflow=hidden;rotatable=0;points=[[0,0.5],[1,0.5]];portConstraint=eastwest;whiteSpace=wrap;html=1;" parent="mHRO-zRE8Tbxt5fUKjw2-1" vertex="1">
          <mxGeometry y="156" width="160" height="26" as="geometry" />
        </mxCell>
        <mxCell id="mHRO-zRE8Tbxt5fUKjw2-7" value="&lt;font face=&quot;Courier New&quot; style=&quot;font-size: 14px;&quot;&gt;estado&lt;/font&gt;" style="text;strokeColor=none;fillColor=none;align=left;verticalAlign=top;spacingLeft=4;spacingRight=4;overflow=hidden;rotatable=0;points=[[0,0.5],[1,0.5]];portConstraint=eastwest;whiteSpace=wrap;html=1;" parent="mHRO-zRE8Tbxt5fUKjw2-1" vertex="1">
          <mxGeometry y="182" width="160" height="26" as="geometry" />
        </mxCell>
        <mxCell id="mHRO-zRE8Tbxt5fUKjw2-8" value="" style="line;strokeWidth=1;fillColor=none;align=left;verticalAlign=middle;spacingTop=-1;spacingLeft=3;spacingRight=3;rotatable=0;labelPosition=right;points=[];portConstraint=eastwest;strokeColor=inherit;" parent="mHRO-zRE8Tbxt5fUKjw2-1" vertex="1">
          <mxGeometry y="208" width="160" height="8" as="geometry" />
        </mxCell>
        <mxCell id="mHRO-zRE8Tbxt5fUKjw2-9" value="+ method(type): type" style="text;strokeColor=none;fillColor=none;align=left;verticalAlign=top;spacingLeft=4;spacingRight=4;overflow=hidden;rotatable=0;points=[[0,0.5],[1,0.5]];portConstraint=eastwest;whiteSpace=wrap;html=1;" parent="mHRO-zRE8Tbxt5fUKjw2-1" vertex="1">
          <mxGeometry y="216" width="160" height="26" as="geometry" />
        </mxCell>
        <mxCell id="xzRCo4YPVUpBEt9XM8Tn-21" value="&lt;pre style=&quot;user-select: text; font-family: &amp;quot;Courier New&amp;quot;, Courier, monospace, arial, sans-serif; margin-top: 0px; margin-bottom: 0px; overflow-wrap: break-word; background-color: rgb(255, 255, 255); font-size: 14px; font-weight: 400; text-align: left;&quot; class=&quot;aLF-aPX-K0-aPE&quot;&gt;aprobacion&lt;/pre&gt;" style="swimlane;fontStyle=1;align=center;verticalAlign=top;childLayout=stackLayout;horizontal=1;startSize=26;horizontalStack=0;resizeParent=1;resizeParentMax=0;resizeLast=0;collapsible=1;marginBottom=0;whiteSpace=wrap;html=1;fillColor=#ffff88;strokeColor=#36393d;" parent="1" vertex="1">
          <mxGeometry x="370" y="265" width="240" height="216" as="geometry" />
        </mxCell>
        <mxCell id="xzRCo4YPVUpBEt9XM8Tn-22" value="&lt;pre style=&quot;user-select: text; font-family: &amp;quot;Courier New&amp;quot;, Courier, monospace, arial, sans-serif; margin-top: 0px; margin-bottom: 0px; overflow-wrap: break-word; background-color: rgb(255, 255, 255); font-size: 14px;&quot; class=&quot;aLF-aPX-K0-aPE&quot;&gt;id_aprobacion&lt;/pre&gt;" style="text;align=left;verticalAlign=top;spacingLeft=4;spacingRight=4;overflow=hidden;rotatable=0;points=[[0,0.5],[1,0.5]];portConstraint=eastwest;whiteSpace=wrap;html=1;" parent="xzRCo4YPVUpBEt9XM8Tn-21" vertex="1">
          <mxGeometry y="26" width="240" height="26" as="geometry" />
        </mxCell>
        <mxCell id="xzRCo4YPVUpBEt9XM8Tn-25" value="&lt;pre style=&quot;user-select: text; font-family: &amp;quot;Courier New&amp;quot;, Courier, monospace, arial, sans-serif; margin-top: 0px; margin-bottom: 0px; overflow-wrap: break-word; background-color: rgb(255, 255, 255); font-size: 14px;&quot; class=&quot;aLF-aPX-K0-aPE&quot;&gt;tipo&lt;/pre&gt;" style="text;align=left;verticalAlign=top;spacingLeft=4;spacingRight=4;overflow=hidden;rotatable=0;points=[[0,0.5],[1,0.5]];portConstraint=eastwest;whiteSpace=wrap;html=1;fillColor=#ffff88;strokeColor=#36393d;" parent="xzRCo4YPVUpBEt9XM8Tn-21" vertex="1">
          <mxGeometry y="52" width="240" height="26" as="geometry" />
        </mxCell>
        <mxCell id="xzRCo4YPVUpBEt9XM8Tn-26" value="&lt;font style=&quot;font-size: 14px;&quot; face=&quot;Courier New&quot;&gt;aprobacion&lt;/font&gt;" style="text;align=left;verticalAlign=top;spacingLeft=4;spacingRight=4;overflow=hidden;rotatable=0;points=[[0,0.5],[1,0.5]];portConstraint=eastwest;whiteSpace=wrap;html=1;" parent="xzRCo4YPVUpBEt9XM8Tn-21" vertex="1">
          <mxGeometry y="78" width="240" height="26" as="geometry" />
        </mxCell>
        <mxCell id="xzRCo4YPVUpBEt9XM8Tn-40" value="&lt;font style=&quot;font-size: 14px;&quot; face=&quot;Courier New&quot;&gt;checks&lt;/font&gt;" style="text;align=left;verticalAlign=top;spacingLeft=4;spacingRight=4;overflow=hidden;rotatable=0;points=[[0,0.5],[1,0.5]];portConstraint=eastwest;whiteSpace=wrap;html=1;" parent="xzRCo4YPVUpBEt9XM8Tn-21" vertex="1">
          <mxGeometry y="104" width="240" height="26" as="geometry" />
        </mxCell>
        <mxCell id="xzRCo4YPVUpBEt9XM8Tn-27" value="&lt;font face=&quot;Courier New&quot; style=&quot;font-size: 14px;&quot;&gt;fecha_creacion&lt;/font&gt;" style="text;strokeColor=none;fillColor=none;align=left;verticalAlign=top;spacingLeft=4;spacingRight=4;overflow=hidden;rotatable=0;points=[[0,0.5],[1,0.5]];portConstraint=eastwest;whiteSpace=wrap;html=1;" parent="xzRCo4YPVUpBEt9XM8Tn-21" vertex="1">
          <mxGeometry y="130" width="240" height="26" as="geometry" />
        </mxCell>
        <mxCell id="xzRCo4YPVUpBEt9XM8Tn-28" value="&lt;font face=&quot;Courier New&quot; style=&quot;font-size: 14px;&quot;&gt;estado&lt;/font&gt;" style="text;strokeColor=none;fillColor=none;align=left;verticalAlign=top;spacingLeft=4;spacingRight=4;overflow=hidden;rotatable=0;points=[[0,0.5],[1,0.5]];portConstraint=eastwest;whiteSpace=wrap;html=1;" parent="xzRCo4YPVUpBEt9XM8Tn-21" vertex="1">
          <mxGeometry y="156" width="240" height="26" as="geometry" />
        </mxCell>
        <mxCell id="xzRCo4YPVUpBEt9XM8Tn-29" value="" style="line;strokeWidth=1;fillColor=none;align=left;verticalAlign=middle;spacingTop=-1;spacingLeft=3;spacingRight=3;rotatable=0;labelPosition=right;points=[];portConstraint=eastwest;strokeColor=inherit;" parent="xzRCo4YPVUpBEt9XM8Tn-21" vertex="1">
          <mxGeometry y="182" width="240" height="8" as="geometry" />
        </mxCell>
        <mxCell id="xzRCo4YPVUpBEt9XM8Tn-30" value="+ method(type): type" style="text;strokeColor=none;fillColor=none;align=left;verticalAlign=top;spacingLeft=4;spacingRight=4;overflow=hidden;rotatable=0;points=[[0,0.5],[1,0.5]];portConstraint=eastwest;whiteSpace=wrap;html=1;" parent="xzRCo4YPVUpBEt9XM8Tn-21" vertex="1">
          <mxGeometry y="190" width="240" height="26" as="geometry" />
        </mxCell>
        <mxCell id="xzRCo4YPVUpBEt9XM8Tn-32" value="&lt;pre style=&quot;user-select: text; font-family: &amp;quot;Courier New&amp;quot;, Courier, monospace, arial, sans-serif; margin-top: 0px; margin-bottom: 0px; overflow-wrap: break-word; background-color: rgb(255, 255, 255); font-size: 14px; font-weight: 400; text-align: left;&quot; class=&quot;aLF-aPX-K0-aPE&quot;&gt;checks&lt;/pre&gt;" style="swimlane;fontStyle=1;align=center;verticalAlign=top;childLayout=stackLayout;horizontal=1;startSize=26;horizontalStack=0;resizeParent=1;resizeParentMax=0;resizeLast=0;collapsible=1;marginBottom=0;whiteSpace=wrap;html=1;" parent="1" vertex="1">
          <mxGeometry x="70" y="239" width="240" height="242" as="geometry" />
        </mxCell>
        <mxCell id="xzRCo4YPVUpBEt9XM8Tn-33" value="&lt;pre style=&quot;user-select: text; font-family: &amp;quot;Courier New&amp;quot;, Courier, monospace, arial, sans-serif; margin-top: 0px; margin-bottom: 0px; overflow-wrap: break-word; background-color: rgb(255, 255, 255); font-size: 14px;&quot; class=&quot;aLF-aPX-K0-aPE&quot;&gt;id_revision&lt;/pre&gt;" style="text;align=left;verticalAlign=top;spacingLeft=4;spacingRight=4;overflow=hidden;rotatable=0;points=[[0,0.5],[1,0.5]];portConstraint=eastwest;whiteSpace=wrap;html=1;" parent="xzRCo4YPVUpBEt9XM8Tn-32" vertex="1">
          <mxGeometry y="26" width="240" height="26" as="geometry" />
        </mxCell>
        <mxCell id="xzRCo4YPVUpBEt9XM8Tn-41" value="&lt;pre style=&quot;user-select: text; font-family: &amp;quot;Courier New&amp;quot;, Courier, monospace, arial, sans-serif; margin-top: 0px; margin-bottom: 0px; overflow-wrap: break-word; background-color: rgb(255, 255, 255); font-size: 14px;&quot; class=&quot;aLF-aPX-K0-aPE&quot;&gt;id_part_plan&lt;/pre&gt;" style="text;align=left;verticalAlign=top;spacingLeft=4;spacingRight=4;overflow=hidden;rotatable=0;points=[[0,0.5],[1,0.5]];portConstraint=eastwest;whiteSpace=wrap;html=1;" parent="xzRCo4YPVUpBEt9XM8Tn-32" vertex="1">
          <mxGeometry y="52" width="240" height="26" as="geometry" />
        </mxCell>
        <mxCell id="xzRCo4YPVUpBEt9XM8Tn-42" value="&lt;pre style=&quot;user-select: text; font-family: &amp;quot;Courier New&amp;quot;, Courier, monospace, arial, sans-serif; margin-top: 0px; margin-bottom: 0px; overflow-wrap: break-word; background-color: rgb(255, 255, 255); font-size: 14px;&quot; class=&quot;aLF-aPX-K0-aPE&quot;&gt;id_part_ejec&lt;/pre&gt;" style="text;align=left;verticalAlign=top;spacingLeft=4;spacingRight=4;overflow=hidden;rotatable=0;points=[[0,0.5],[1,0.5]];portConstraint=eastwest;whiteSpace=wrap;html=1;" parent="xzRCo4YPVUpBEt9XM8Tn-32" vertex="1">
          <mxGeometry y="78" width="240" height="26" as="geometry" />
        </mxCell>
        <mxCell id="xzRCo4YPVUpBEt9XM8Tn-34" value="&lt;pre style=&quot;user-select: text; font-family: &amp;quot;Courier New&amp;quot;, Courier, monospace, arial, sans-serif; margin-top: 0px; margin-bottom: 0px; overflow-wrap: break-word; background-color: rgb(255, 255, 255); font-size: 14px;&quot; class=&quot;aLF-aPX-K0-aPE&quot;&gt;check&lt;/pre&gt;" style="text;align=left;verticalAlign=top;spacingLeft=4;spacingRight=4;overflow=hidden;rotatable=0;points=[[0,0.5],[1,0.5]];portConstraint=eastwest;whiteSpace=wrap;html=1;" parent="xzRCo4YPVUpBEt9XM8Tn-32" vertex="1">
          <mxGeometry y="104" width="240" height="26" as="geometry" />
        </mxCell>
        <mxCell id="xzRCo4YPVUpBEt9XM8Tn-35" value="&lt;font style=&quot;font-size: 14px;&quot; face=&quot;Courier New&quot;&gt;comentario&lt;/font&gt;" style="text;align=left;verticalAlign=top;spacingLeft=4;spacingRight=4;overflow=hidden;rotatable=0;points=[[0,0.5],[1,0.5]];portConstraint=eastwest;whiteSpace=wrap;html=1;" parent="xzRCo4YPVUpBEt9XM8Tn-32" vertex="1">
          <mxGeometry y="130" width="240" height="26" as="geometry" />
        </mxCell>
        <mxCell id="xzRCo4YPVUpBEt9XM8Tn-36" value="&lt;font face=&quot;Courier New&quot; style=&quot;font-size: 14px;&quot;&gt;fecha_creacion&lt;/font&gt;" style="text;strokeColor=none;fillColor=none;align=left;verticalAlign=top;spacingLeft=4;spacingRight=4;overflow=hidden;rotatable=0;points=[[0,0.5],[1,0.5]];portConstraint=eastwest;whiteSpace=wrap;html=1;" parent="xzRCo4YPVUpBEt9XM8Tn-32" vertex="1">
          <mxGeometry y="156" width="240" height="26" as="geometry" />
        </mxCell>
        <mxCell id="xzRCo4YPVUpBEt9XM8Tn-37" value="&lt;font face=&quot;Courier New&quot; style=&quot;font-size: 14px;&quot;&gt;estado&lt;/font&gt;" style="text;strokeColor=none;fillColor=none;align=left;verticalAlign=top;spacingLeft=4;spacingRight=4;overflow=hidden;rotatable=0;points=[[0,0.5],[1,0.5]];portConstraint=eastwest;whiteSpace=wrap;html=1;" parent="xzRCo4YPVUpBEt9XM8Tn-32" vertex="1">
          <mxGeometry y="182" width="240" height="26" as="geometry" />
        </mxCell>
        <mxCell id="xzRCo4YPVUpBEt9XM8Tn-38" value="" style="line;strokeWidth=1;fillColor=none;align=left;verticalAlign=middle;spacingTop=-1;spacingLeft=3;spacingRight=3;rotatable=0;labelPosition=right;points=[];portConstraint=eastwest;strokeColor=inherit;" parent="xzRCo4YPVUpBEt9XM8Tn-32" vertex="1">
          <mxGeometry y="208" width="240" height="8" as="geometry" />
        </mxCell>
        <mxCell id="xzRCo4YPVUpBEt9XM8Tn-39" value="+ method(type): type" style="text;strokeColor=none;fillColor=none;align=left;verticalAlign=top;spacingLeft=4;spacingRight=4;overflow=hidden;rotatable=0;points=[[0,0.5],[1,0.5]];portConstraint=eastwest;whiteSpace=wrap;html=1;" parent="xzRCo4YPVUpBEt9XM8Tn-32" vertex="1">
          <mxGeometry y="216" width="240" height="26" as="geometry" />
        </mxCell>
        <mxCell id="xzRCo4YPVUpBEt9XM8Tn-43" value="" style="endArrow=none;html=1;rounded=0;entryX=1;entryY=0.5;entryDx=0;entryDy=0;exitX=0;exitY=0.5;exitDx=0;exitDy=0;" parent="1" source="xzRCo4YPVUpBEt9XM8Tn-40" target="xzRCo4YPVUpBEt9XM8Tn-33" edge="1">
          <mxGeometry width="50" height="50" relative="1" as="geometry">
            <mxPoint x="350" y="420" as="sourcePoint" />
            <mxPoint x="310" y="290" as="targetPoint" />
          </mxGeometry>
        </mxCell>
        <mxCell id="xzRCo4YPVUpBEt9XM8Tn-56" value="" style="endArrow=none;html=1;rounded=0;entryX=1;entryY=0.5;entryDx=0;entryDy=0;exitX=0;exitY=0.5;exitDx=0;exitDy=0;" parent="1" source="v2iRJg3Xfcc0tF-ludr_-58" target="xzRCo4YPVUpBEt9XM8Tn-22" edge="1">
          <mxGeometry width="50" height="50" relative="1" as="geometry">
            <mxPoint x="490" y="340" as="sourcePoint" />
            <mxPoint x="540" y="290" as="targetPoint" />
          </mxGeometry>
        </mxCell>
        <mxCell id="xzRCo4YPVUpBEt9XM8Tn-60" value="" style="endArrow=none;html=1;rounded=0;entryX=0;entryY=0.5;entryDx=0;entryDy=0;exitX=1;exitY=0.5;exitDx=0;exitDy=0;edgeStyle=orthogonalEdgeStyle;" parent="1" source="v2iRJg3Xfcc0tF-ludr_-49" target="v2iRJg3Xfcc0tF-ludr_-65" edge="1">
          <mxGeometry relative="1" as="geometry">
            <mxPoint x="959.48" y="129" as="sourcePoint" />
            <mxPoint x="1029.48" y="155" as="targetPoint" />
          </mxGeometry>
        </mxCell>
        <mxCell id="xzRCo4YPVUpBEt9XM8Tn-62" value="" style="endArrow=none;html=1;rounded=0;entryX=0;entryY=0.5;entryDx=0;entryDy=0;exitX=1;exitY=0.5;exitDx=0;exitDy=0;edgeStyle=orthogonalEdgeStyle;" parent="1" source="1lgYtawJcJ5ZMoFz6sz0-2" target="mHRO-zRE8Tbxt5fUKjw2-3" edge="1">
          <mxGeometry relative="1" as="geometry">
            <mxPoint x="745" y="450" as="sourcePoint" />
            <mxPoint x="815" y="476" as="targetPoint" />
          </mxGeometry>
        </mxCell>
        <mxCell id="xzRCo4YPVUpBEt9XM8Tn-63" value="" style="endArrow=none;html=1;rounded=0;entryX=0;entryY=0.5;entryDx=0;entryDy=0;exitX=1;exitY=0.5;exitDx=0;exitDy=0;" parent="1" source="1lgYtawJcJ5ZMoFz6sz0-6" target="v2iRJg3Xfcc0tF-ludr_-113" edge="1">
          <mxGeometry width="50" height="50" relative="1" as="geometry">
            <mxPoint x="1600" y="410" as="sourcePoint" />
            <mxPoint x="1540" y="550" as="targetPoint" />
            <Array as="points">
              <mxPoint x="1620" y="120" />
              <mxPoint x="1620" y="617" />
            </Array>
          </mxGeometry>
        </mxCell>
        <mxCell id="dZusn4wj0V5rwVi1F2iV-2" value="" style="endArrow=none;html=1;rounded=0;exitX=1;exitY=0.5;exitDx=0;exitDy=0;entryX=0;entryY=0.5;entryDx=0;entryDy=0;edgeStyle=elbowEdgeStyle;" parent="1" source="mHRO-zRE8Tbxt5fUKjw2-3" target="1lgYtawJcJ5ZMoFz6sz0-16" edge="1">
          <mxGeometry width="50" height="50" relative="1" as="geometry">
            <mxPoint x="1470" y="250" as="sourcePoint" />
            <mxPoint x="1520" y="200" as="targetPoint" />
          </mxGeometry>
        </mxCell>
        <mxCell id="MdilOlbVCDJDPG1JR87V-2" value="&lt;pre style=&quot;user-select: text; font-family: &amp;quot;Courier New&amp;quot;, Courier, monospace, arial, sans-serif; margin-top: 0px; margin-bottom: 0px; overflow-wrap: break-word; background-color: rgb(255, 255, 255); font-size: 14px; font-weight: 400; text-align: left;&quot; class=&quot;aLF-aPX-K0-aPE&quot;&gt;participante&lt;/pre&gt;" style="swimlane;fontStyle=1;align=center;verticalAlign=top;childLayout=stackLayout;horizontal=1;startSize=26;horizontalStack=0;resizeParent=1;resizeParentMax=0;resizeLast=0;collapsible=1;marginBottom=0;whiteSpace=wrap;html=1;" vertex="1" parent="1">
          <mxGeometry x="430" y="-216" width="230" height="268" as="geometry" />
        </mxCell>
        <mxCell id="MdilOlbVCDJDPG1JR87V-3" value="&lt;pre style=&quot;user-select: text; font-family: &amp;quot;Courier New&amp;quot;, Courier, monospace, arial, sans-serif; margin-top: 0px; margin-bottom: 0px; overflow-wrap: break-word; background-color: rgb(255, 255, 255); font-size: 14px;&quot; class=&quot;aLF-aPX-K0-aPE&quot;&gt;id_participante&lt;/pre&gt;" style="text;strokeColor=none;fillColor=none;align=left;verticalAlign=top;spacingLeft=4;spacingRight=4;overflow=hidden;rotatable=0;points=[[0,0.5],[1,0.5]];portConstraint=eastwest;whiteSpace=wrap;html=1;" vertex="1" parent="MdilOlbVCDJDPG1JR87V-2">
          <mxGeometry y="26" width="230" height="26" as="geometry" />
        </mxCell>
        <mxCell id="MdilOlbVCDJDPG1JR87V-4" value="&lt;pre style=&quot;user-select: text; font-family: &amp;quot;Courier New&amp;quot;, Courier, monospace, arial, sans-serif; margin-top: 0px; margin-bottom: 0px; overflow-wrap: break-word; background-color: rgb(255, 255, 255); font-size: 14px;&quot; class=&quot;aLF-aPX-K0-aPE&quot;&gt;id_usuario&lt;/pre&gt;" style="text;strokeColor=none;fillColor=none;align=left;verticalAlign=top;spacingLeft=4;spacingRight=4;overflow=hidden;rotatable=0;points=[[0,0.5],[1,0.5]];portConstraint=eastwest;whiteSpace=wrap;html=1;" vertex="1" parent="MdilOlbVCDJDPG1JR87V-2">
          <mxGeometry y="52" width="230" height="26" as="geometry" />
        </mxCell>
        <mxCell id="MdilOlbVCDJDPG1JR87V-12" value="&lt;font style=&quot;font-size: 14px;&quot; face=&quot;Courier New&quot;&gt;tipo&lt;/font&gt;" style="text;align=left;verticalAlign=top;spacingLeft=4;spacingRight=4;overflow=hidden;rotatable=0;points=[[0,0.5],[1,0.5]];portConstraint=eastwest;whiteSpace=wrap;html=1;" vertex="1" parent="MdilOlbVCDJDPG1JR87V-2">
          <mxGeometry y="78" width="230" height="26" as="geometry" />
        </mxCell>
        <mxCell id="MdilOlbVCDJDPG1JR87V-5" value="&lt;pre style=&quot;user-select: text; font-family: &amp;quot;Courier New&amp;quot;, Courier, monospace, arial, sans-serif; margin-top: 0px; margin-bottom: 0px; overflow-wrap: break-word; background-color: rgb(255, 255, 255); font-size: 14px;&quot; class=&quot;aLF-aPX-K0-aPE&quot;&gt;id_plan&lt;/pre&gt;" style="text;strokeColor=none;fillColor=none;align=left;verticalAlign=top;spacingLeft=4;spacingRight=4;overflow=hidden;rotatable=0;points=[[0,0.5],[1,0.5]];portConstraint=eastwest;whiteSpace=wrap;html=1;" vertex="1" parent="MdilOlbVCDJDPG1JR87V-2">
          <mxGeometry y="104" width="230" height="26" as="geometry" />
        </mxCell>
        <mxCell id="MdilOlbVCDJDPG1JR87V-11" value="&lt;pre style=&quot;user-select: text; font-family: &amp;quot;Courier New&amp;quot;, Courier, monospace, arial, sans-serif; margin-top: 0px; margin-bottom: 0px; overflow-wrap: break-word; background-color: rgb(255, 255, 255); font-size: 14px;&quot; class=&quot;aLF-aPX-K0-aPE&quot;&gt;id_auditoria&lt;/pre&gt;" style="text;strokeColor=none;fillColor=none;align=left;verticalAlign=top;spacingLeft=4;spacingRight=4;overflow=hidden;rotatable=0;points=[[0,0.5],[1,0.5]];portConstraint=eastwest;whiteSpace=wrap;html=1;" vertex="1" parent="MdilOlbVCDJDPG1JR87V-2">
          <mxGeometry y="130" width="230" height="26" as="geometry" />
        </mxCell>
        <mxCell id="MdilOlbVCDJDPG1JR87V-6" value="&lt;font style=&quot;font-size: 14px;&quot; face=&quot;Courier New&quot;&gt;rol&lt;/font&gt;" style="text;align=left;verticalAlign=top;spacingLeft=4;spacingRight=4;overflow=hidden;rotatable=0;points=[[0,0.5],[1,0.5]];portConstraint=eastwest;whiteSpace=wrap;html=1;" vertex="1" parent="MdilOlbVCDJDPG1JR87V-2">
          <mxGeometry y="156" width="230" height="26" as="geometry" />
        </mxCell>
        <mxCell id="MdilOlbVCDJDPG1JR87V-7" value="&lt;font face=&quot;Courier New&quot; style=&quot;font-size: 14px;&quot;&gt;fecha_creacion&lt;/font&gt;" style="text;strokeColor=none;fillColor=none;align=left;verticalAlign=top;spacingLeft=4;spacingRight=4;overflow=hidden;rotatable=0;points=[[0,0.5],[1,0.5]];portConstraint=eastwest;whiteSpace=wrap;html=1;" vertex="1" parent="MdilOlbVCDJDPG1JR87V-2">
          <mxGeometry y="182" width="230" height="26" as="geometry" />
        </mxCell>
        <mxCell id="MdilOlbVCDJDPG1JR87V-8" value="&lt;font face=&quot;Courier New&quot; style=&quot;font-size: 14px;&quot;&gt;estado&lt;/font&gt;" style="text;strokeColor=none;fillColor=none;align=left;verticalAlign=top;spacingLeft=4;spacingRight=4;overflow=hidden;rotatable=0;points=[[0,0.5],[1,0.5]];portConstraint=eastwest;whiteSpace=wrap;html=1;" vertex="1" parent="MdilOlbVCDJDPG1JR87V-2">
          <mxGeometry y="208" width="230" height="26" as="geometry" />
        </mxCell>
        <mxCell id="MdilOlbVCDJDPG1JR87V-9" value="" style="line;strokeWidth=1;fillColor=none;align=left;verticalAlign=middle;spacingTop=-1;spacingLeft=3;spacingRight=3;rotatable=0;labelPosition=right;points=[];portConstraint=eastwest;strokeColor=inherit;" vertex="1" parent="MdilOlbVCDJDPG1JR87V-2">
          <mxGeometry y="234" width="230" height="8" as="geometry" />
        </mxCell>
        <mxCell id="MdilOlbVCDJDPG1JR87V-10" value="+ method(type): type" style="text;strokeColor=none;fillColor=none;align=left;verticalAlign=top;spacingLeft=4;spacingRight=4;overflow=hidden;rotatable=0;points=[[0,0.5],[1,0.5]];portConstraint=eastwest;whiteSpace=wrap;html=1;" vertex="1" parent="MdilOlbVCDJDPG1JR87V-2">
          <mxGeometry y="242" width="230" height="26" as="geometry" />
        </mxCell>
      </root>
    </mxGraphModel>
  </diagram>
</mxfile>
